<?xml version="1.0" encoding="utf-8"?>
<!-- Generator: Adobe Illustrator 14.0.0, SVG Export Plug-In . SVG Version: 6.00 Build 43363)  -->
<!DOCTYPE svg PUBLIC "-//W3C//DTD SVG 1.1//EN" "http://www.w3.org/Graphics/SVG/1.1/DTD/svg11.dtd" [
	<!ENTITY ns_extend "http://ns.adobe.com/Extensibility/1.0/">
	<!ENTITY ns_ai "http://ns.adobe.com/AdobeIllustrator/10.0/">
	<!ENTITY ns_graphs "http://ns.adobe.com/Graphs/1.0/">
	<!ENTITY ns_vars "http://ns.adobe.com/Variables/1.0/">
	<!ENTITY ns_imrep "http://ns.adobe.com/ImageReplacement/1.0/">
	<!ENTITY ns_sfw "http://ns.adobe.com/SaveForWeb/1.0/">
	<!ENTITY ns_custom "http://ns.adobe.com/GenericCustomNamespace/1.0/">
	<!ENTITY ns_adobe_xpath "http://ns.adobe.com/XPath/1.0/">
]>
<svg version="1.1" id="Calque_1" xmlns:x="&ns_extend;" xmlns:i="&ns_ai;" xmlns:graph="&ns_graphs;"
	 xmlns="http://www.w3.org/2000/svg" xmlns:xlink="http://www.w3.org/1999/xlink" x="0px" y="0px" width="4100px" height="4100px"
	 viewBox="-51.445 647.64 4100 4100" enable-background="new -51.445 647.64 4100 4100" xml:space="preserve">
<metadata>
	<sfw  xmlns="&ns_sfw;">
		<slices></slices>
		<sliceSourceBounds  x="131.084" y="-4092.292" width="3956.393" height="3956.393" bottomLeftOrigin="true"></sliceSourceBounds>
	</sfw>
</metadata>
<g>
	<radialGradient id="SVGID_1_" cx="2007.8352" cy="2711.7354" r="1881.6255" gradientUnits="userSpaceOnUse">
		<stop  offset="0" style="stop-color:#E2007A"/>
		<stop  offset="0.5" style="stop-color:#FFED00"/>
		<stop  offset="1" style="stop-color:#009EE0"/>
	</radialGradient>
	<path fill="url(#SVGID_1_)" d="M3889.244,2712.169c0,1039.073-842.338,1881.408-1881.409,1881.408
		S126.426,3751.242,126.426,2712.169S968.763,830.76,2007.835,830.76S3889.244,1673.095,3889.244,2712.169z M2982.681,3197.874
		c6.386,3.202,12.801,8.914,16.94,14.742c4.607,6.494,8.063,15.328,9.428,23.171c1.548,8.907,1.012,19.588-1.074,28.386
		c-2.376,10.027-7.484,21.027-13.348,29.509c-6.648,9.628-16.41,19.261-25.938,26.06c-10.735,7.646-24.646,14.253-37.281,18.016
		c-14.103,4.207-31.144,6.296-45.862,5.924c-16.292-0.42-34.952-3.963-50.355-9.265c-16.941-5.834-35.354-15.614-49.823-26.17
		c-15.804-11.517-31.916-27.553-43.72-43.133c-12.809-16.906-24.592-38.545-32.069-58.393c-8.07-21.404-13.682-47.377-15.433-70.185
		c-1.875-24.479,0.098-52.928,5.094-76.967c5.341-25.692,15.754-54.328,27.957-77.563c12.994-24.736,32.009-51.008,51.27-71.25
		c20.428-21.484,47.422-42.813,72.924-57.929c26.967-15.986,60.547-29.979,90.839-38.086c31.94-8.547,70.015-13.207,103.079-12.841
		c34.779,0.385,74.676,6.412,108.082,16.108c35.055,10.178,73.696,27.479,104.762,46.656c32.521,20.075,66.691,48.338,92.684,76.36
		c27.168,29.289,53.731,67.243,72.14,102.704c19.197,37.001,35.396,82.531,44.093,123.294
		c9.056,42.453,12.768,92.649,10.251,135.981c-2.606,45.067-12.695,96.421-27.123,139.188
		c-14.985,44.419-39.177,93.075-65.347,131.966c-27.146,40.32-64.646,82.379-101.453,114.118
		c-38.133,32.875-87.07,64.666-132.5,86.345c-47,22.421-104.496,40.837-155.738,50.112c-52.951,9.584-115.274,12.326-168.887,7.659
		c-55.342-4.818-118.161-18.968-170.299-38.14c-53.771-19.783-112.454-50.86-159.156-84.046
		c-48.117-34.189-98.078-80.939-135.555-126.543c-38.579-46.949-75.614-106.878-100.553-162.283
		c-25.654-57.006-46.285-126.47-56.127-188.194c-10.109-63.451-11.902-137.898-5.068-201.787
		c7.019-65.615,25.231-139.907,49.156-201.411c24.561-63.119,62.534-131.836,102.732-186.35
		c41.232-55.922,97.239-113.785,151.646-156.989c66.144-50.848,134.479-119.251,185.103-185.567
		c49.556-64.934,96.718-147.022,127.655-222.619c30.277-73.988,53.906-163.576,63.854-242.89
		c9.725-77.588,9.208-168.21-1.625-245.66c-10.595-75.71-34.179-161.119-64.146-231.453
		c-29.285-68.729-73.298-143.291-119.499-202.004c-45.109-57.338-105.608-116.43-164.125-160.01
		c-57.125-42.542-129.185-82.809-195.421-108.961c-64.623-25.517-142.732-45.081-211.776-52.838
		c-67.317-7.553-145.813-6.076-212.761,4.213c-65.22,10.029-138.666,31.404-199.007,58.13
		c-58.744,26.03-122.318,64.805-172.214,105.291c-48.537,39.388-98.375,91.979-134.908,142.698
		c-35.529,49.306-68.896,111.334-90.271,168.225c-20.766,55.255-36.265,121.905-41.818,180.666
		c-5.392,57.038-2.962,123.406,6.796,179.858c9.463,54.74,28.619,116.218,52.114,166.556c22.768,48.761,56.303,101.36,91.08,142.425
		c33.656,39.748,78.349,80.326,121.271,109.816c41.487,28.514,93.491,55,141.024,71.579c45.89,16.014,101.074,27.456,149.563,30.802
		c46.757,3.227,100.995-0.159,146.949-9.387c44.255-8.892,93.778-25.833,134.101-46.1c38.783-19.504,80.404-47.808,112.647-76.873
		c30.95-27.916,62.286-64.71,84.719-99.837c21.507-33.665,41.108-75.652,52.888-113.826c11.271-36.525,18.649-80.235,19.778-118.449
		c1.079-36.488-3.26-78.603-11.978-114.052c-8.307-33.774-23.028-71.341-40.087-101.645c-16.215-28.827-39.292-59.467-62.662-82.86
		c-22.168-22.179-51.068-44.269-78.396-59.631c-25.843-14.528-57.818-27.23-86.629-34.189c-27.163-6.558-59.418-9.88-87.344-8.766
		c-26.22,1.045-56.223,6.351-81.148,14.568c-23.316,7.688-48.943,20.211-69.204,34.069c-18.88,12.92-38.565,30.77-53.066,48.458
		c-13.447,16.395-26.298,37.427-34.533,56.971c-7.587,18.014-13.421,39.988-15.495,59.423c-1.899,17.813-1.176,38.647,2.247,56.231
		c3.108,16,9.37,33.926,17.155,48.258c7.029,12.925,17.361,26.639,28.063,36.745c9.57,9.057,22.252,17.807,34.245,23.275
		c10.646,4.861,23.87,8.499,35.533,9.439c10.277,0.838,22.355-0.238,32.228-3.193c8.663-2.598,18.183-7.469,25.119-13.267
		c6.115-5.102,12.034-12.509,15.352-19.743c2.977-6.498,4.72-14.912,4.309-22.046c-0.394-6.697-2.868-14.414-6.519-20.04
		c-3.656-5.623-6.118-13.345-6.511-20.04c-0.415-7.136,1.328-15.546,4.311-22.04c3.318-7.24,9.231-14.649,15.347-19.753
		c6.939-5.788,16.461-10.666,25.122-13.263c9.878-2.958,21.954-4.024,32.229-3.193c11.664,0.939,24.887,4.582,35.535,9.43
		c11.987,5.476,24.661,14.231,34.245,23.282c10.695,10.113,21.032,23.819,28.056,36.76c7.78,14.32,14.045,32.245,17.16,48.246
		c3.41,17.579,4.145,38.418,2.246,56.228c-2.08,19.448-7.907,41.418-15.498,59.438c-8.23,19.535-21.081,40.554-34.527,56.956
		c-14.501,17.691-34.183,35.544-53.062,48.461c-20.271,13.859-45.895,26.371-69.208,34.068
		c-24.928,8.221-54.929,13.523-81.149,14.574c-27.924,1.112-60.186-2.216-87.345-8.767c-28.816-6.962-60.786-19.673-86.63-34.193
		c-27.326-15.358-56.237-37.448-78.395-59.628c-23.374-23.391-46.448-54.035-62.667-82.852
		c-17.054-30.314-31.781-67.88-40.083-101.66c-8.717-35.448-13.055-77.563-11.981-114.044c1.128-38.21,8.517-81.926,19.783-118.453
		c11.784-38.174,31.381-80.155,52.887-113.827c22.435-35.123,53.768-71.916,84.723-99.832
		c32.236-29.076,73.858-57.381,112.636-76.874c40.333-20.271,89.855-37.207,134.11-46.099c45.952-9.23,100.188-12.613,146.948-9.384
		c48.491,3.341,103.674,14.787,149.564,30.799c47.527,16.583,99.535,43.064,141.02,71.572
		c42.917,29.498,87.618,70.076,121.268,109.814c34.776,41.075,68.317,93.673,91.078,142.436
		c23.498,50.338,42.652,111.814,52.117,166.548c9.757,56.452,12.183,122.821,6.8,179.857
		c-5.553,58.768-21.064,125.41-41.815,180.664c-21.376,56.886-54.75,118.921-90.272,168.23
		c-36.53,50.717-86.374,103.311-134.912,142.701c-49.893,40.479-113.47,79.262-172.215,105.29
		c-60.336,26.731-133.777,48.093-199,58.122c-66.96,10.292-145.444,11.77-212.764,4.207c-69.04-7.747-147.149-27.311-211.777-52.824
		c-77.105-31.865-170.509-56.848-253.256-67.526c-81.006-10.458-175.681-10.258-256.62,0.757
		c-79.208,10.769-168.605,35.102-242.267,66.146c-72.063,30.372-150.284,76.127-211.937,124.234
		c-60.279,47.03-122.448,110.164-168.375,171.282c-44.879,59.719-87.443,135.123-115.193,204.488
		c-27.102,67.743-48.021,149.674-56.51,222.143c-8.278,70.737-7.12,153.273,3.352,223.721
		c10.211,68.724,32.322,146.156,60.135,209.82c27.107,62.074,67.636,129.32,110.021,182.146
		c41.3,51.479,96.526,104.399,149.844,143.281c51.91,37.861,117.282,73.54,177.288,96.505
		c58.38,22.343,128.852,39.197,191.036,45.484c60.467,6.11,130.874,3.997,190.825-5.938c58.233-9.648,123.702-29.547,177.371-54.117
		c52.093-23.853,108.349-59.14,152.355-95.82c42.677-35.559,86.342-82.889,118.183-128.402c30.853-44.102,59.631-99.44,77.813-150.1
		c17.593-49.012,30.39-108.002,34.472-159.92c3.945-50.193,0.875-108.473-8.526-157.926c-9.084-47.75-26.761-101.254-48.105-144.925
		c-20.588-42.106-50.637-87.386-81.606-122.569c-29.827-33.876-69.261-68.297-106.981-93.083
		c-36.275-23.839-81.594-45.735-122.888-59.108c-39.651-12.857-87.179-21.593-128.823-23.461
		c-39.912-1.793-86.067,2.229-125.017,11.108c-37.268,8.506-78.818,23.968-112.469,42.094c-32.142,17.313-66.445,42.131-92.784,67.4
		c-25.101,24.085-50.269,55.616-67.999,85.548c-16.849,28.451-31.843,63.76-40.416,95.693
		c-8.127,30.279-12.803,66.355-12.443,97.705c0.343,29.645,5.323,63.684,13.708,92.119c7.898,26.798,21.15,56.406,36.078,80.019
		c14.019,22.189,33.606,45.526,53.194,62.996c18.316,16.352,41.967,32.278,64.107,42.9c20.628,9.893,45.919,18.016,68.5,21.729
		c20.919,3.439,45.559,4.057,66.595,1.424c19.398-2.436,41.346-8.376,59.221-16.299c16.372-7.26,34.049-18.309,47.565-30.059
		c12.302-10.699,24.696-25.082,33.207-38.988c7.689-12.549,14.4-28.355,17.805-42.676c3.049-12.819,4.29-28.174,3.038-41.293
		c-1.125-11.651-4.581-24.924-9.597-35.496c-4.417-9.313-11.381-19.236-18.883-26.314c-6.576-6.198-15.563-12.005-24.051-15.118
		c-7.476-2.744-16.844-4.165-24.77-3.423c-7.123,0.668-15.276,3.364-21.247,7.295c-5.604,3.685-11.056,9.684-14.096,15.666
		c-3.045,5.966-8.499,11.966-14.1,15.654c-5.976,3.926-14.126,6.625-21.243,7.292c-7.93,0.743-17.305-0.673-24.775-3.424
		c-8.491-3.112-17.474-8.918-24.05-15.117c-7.503-7.077-14.46-16.996-18.886-26.317c-5.014-10.569-8.473-23.842-9.594-35.482
		c-1.258-13.125-0.016-28.478,3.037-41.305c3.405-14.316,10.116-30.127,17.8-42.674c8.513-13.9,20.899-28.289,33.204-38.986
		c13.523-11.753,31.2-22.804,47.578-30.058c17.869-7.926,39.818-13.867,59.215-16.3c21.035-2.638,45.669-2.018,66.602,1.428
		c22.567,3.71,47.872,11.83,68.492,21.723c22.141,10.623,45.792,26.55,64.114,42.898c19.578,17.472,39.175,40.809,53.194,62.997
		c14.916,23.619,28.167,53.224,36.071,80.021c8.385,28.435,13.359,62.473,13.706,92.116c0.359,31.351-4.318,67.429-12.442,97.707
		c-8.564,31.938-23.571,67.247-40.421,95.695c-17.72,29.931-42.893,61.468-67.985,85.543c-26.35,25.272-60.648,50.091-92.785,67.401
		c-33.656,18.13-75.203,33.591-112.475,42.091c-38.95,8.884-85.106,12.907-125.016,11.114
		c-41.638-1.872-89.171-10.605-128.823-23.454c-41.291-13.383-86.619-35.274-122.894-59.113
		c-37.72-24.788-77.148-59.209-106.976-93.084c-30.969-35.186-61.021-80.462-81.605-122.573
		c-21.347-43.664-39.022-97.174-48.105-144.924c-9.41-49.451-12.472-107.731-8.526-157.917
		c4.08-51.912,16.878-110.916,34.47-159.929c18.182-50.652,46.961-105.995,77.807-150.094
		c31.845-45.519,75.511-92.842,118.181-128.408c44.011-36.682,100.277-71.966,152.363-95.82
		c53.671-24.571,119.133-44.468,177.372-54.114c59.957-9.938,130.359-12.051,190.818-5.942
		c62.193,6.291,132.663,23.145,191.038,45.494c60.011,22.966,125.385,58.64,177.293,96.5
		c53.311,38.883,108.55,91.801,149.846,143.276c42.384,52.829,82.911,120.073,110.02,182.147
		c27.807,63.671,49.923,141.104,60.134,209.82c10.955,82.711,36.03,176.097,68.155,253.088
		c31.45,75.395,78.959,157.274,128.964,221.863c48.94,63.21,114.704,128.467,178.423,176.74
		c62.329,47.223,141.071,92.086,213.555,121.426c70.862,28.688,156.624,50.962,232.516,60.177
		c74.166,9.007,160.744,8.17,234.69-2.483c72.22-10.4,153.636-33.253,220.637-62.145c65.407-28.192,136.305-70.463,192.075-114.756
		c54.404-43.201,110.404-101.066,151.651-156.984c40.188-54.521,78.162-123.231,102.724-186.362
		c23.93-61.492,42.142-135.788,49.164-201.4c6.834-63.89,5.037-138.338-5.078-201.797c-9.841-61.728-30.475-131.183-56.123-188.186
		c-24.937-55.418-61.968-115.332-100.553-162.286c-37.472-45.606-87.436-92.354-135.557-126.548
		c-46.697-33.184-105.386-64.261-159.15-84.038c-52.141-19.173-114.966-33.324-170.303-38.146
		c-53.609-4.661-115.928-1.917-168.881,7.665c-51.248,9.275-108.74,27.687-155.741,50.112
		c-45.442,21.675-94.383,53.471-132.502,86.344c-36.811,31.74-74.31,73.799-101.452,114.119
		c-26.172,38.885-50.362,87.547-65.345,131.962c-14.429,42.765-24.517,94.124-27.133,139.188
		c-2.505,43.331,1.2,93.533,10.257,135.986c8.695,40.761,24.896,86.293,44.097,123.287c18.403,35.458,44.963,73.422,72.133,102.708
		c26.001,28.024,60.164,56.273,92.69,76.363c31.059,19.17,69.703,36.471,104.759,46.649c33.404,9.7,73.302,15.73,108.084,16.106
		c33.063,0.373,71.138-4.286,103.082-12.838c30.282-8.104,63.863-22.09,90.839-38.081c25.495-15.117,52.484-36.45,72.923-57.929
		c19.258-20.244,38.261-46.52,51.258-71.259c12.207-23.225,22.616-51.862,27.967-77.563c4.989-24.035,6.96-52.483,5.093-76.963
		c-1.748-22.81-7.364-48.776-15.433-70.185c-7.485-19.845-19.264-41.484-32.067-58.387c-11.802-15.585-27.928-31.617-43.721-43.138
		c-14.474-10.556-32.887-20.328-49.821-26.162c-15.409-5.312-34.064-8.851-50.359-9.271c-14.718-0.383-31.757,1.709-45.864,5.921
		c-12.629,3.77-26.548,10.372-37.287,18.023c-9.521,6.792-19.289,16.424-25.935,26.057c-5.854,8.481-10.968,19.47-13.347,29.509
		c-2.083,8.802-2.618,19.475-1.072,28.391c1.359,7.838,4.828,16.669,9.427,23.16c4.142,5.83,10.548,11.546,16.944,14.747
		c5.987,3.016,13.904,4.732,20.603,4.385C2968.772,3193.141,2976.69,3194.86,2982.681,3197.874z M1581.993,2328.158
		c-172.336-333.215-613.109-147.655-825.398-290.523c-139.105-93.484-133.591-253.221-17.507-315.918
		c112.786-60.922,284.993,66.546,186.92,153.544c30.123-117.359-231.49-122.862-171.793,51.787
		c74.49,217.918,454.946,80.689,344.068-166.708c-75.276-168.153-381.865-257.658-535.594-75.267
		c-94.353,112.104-54.77,240.438-15.029,310.543c67.2,118.623,183.769,179.148,375.222,188.052
		c272.255,12.358,543.103,49.312,660.208,150.118L1581.993,2328.158z M1859.224,3273.526
		c-185.742,325.931,209.827,594.711,205.516,850.559c-2.715,167.576-139.723,249.895-255.5,186.633
		c-112.495-61.461-99.283-275.303,27.076-240.381c-114.847,38.605,22.921,261.069,136.945,115.933
		c142.271-181.095-179.919-425.574-327.118-197.909c-100.095,154.67-8.317,460.586,228.363,490.285
		c145.4,18.137,231.515-84.918,268.698-156.41c62.939-120.941,50.272-251.674-46.458-417.129
		c-137.814-235.123-254.226-482.457-233.395-635.561L1859.224,3273.526z M2621.377,2569.574
		c374.275-25.433,379.532-503.646,595.103-641.51c141.137-90.39,285.477-21.739,296.776,109.709
		c10.984,127.715-174.506,234.94-215.268,110.342c95.664,74.354,204.862-163.442,20.884-178.208
		c-229.558-18.422-255.136,385.216,15.954,381.995c184.218-2.112,388.38-247.724,282.268-461.358
		c-65.273-131.182-198.76-145.96-278.889-137.416c-135.572,14.421-237.502,97.259-321.887,269.339
		c-119.721,244.83-261.449,478.579-400.542,545.872L2621.377,2569.574z M2671.533,4390.354
		c9.195-7.077-130.531-47.423-86.467-104.238c10.104-12.948,116.01,33.921,163.891,39.467
		c228.023,26.512,295.789-126.818,269.288-112.057c-87.136,48.465-140.259,46.75-227.122,27.169
		c-57.453-12.961-140.936-74.981-250.647-67.337c-67.765,4.725-120.43,56.434-109.542,131.997
		c12.255,84.918,105.932,100.047,105.932,100.047S2615.182,4433.871,2671.533,4390.354z M3096.551,1281.963
		c-10.727-4.427,24.199,136.755-47.041,127.001c-16.264-2.278-28.629-117.43-47.765-161.668
		c-91.05-210.729-257.723-192.751-231.687-177.18c85.541,51.229,110.614,98.091,137.091,183.109
		c17.5,56.237,5.53,159.544,67.008,250.735c37.973,56.324,109.088,76.078,169.082,28.868
		c67.413-53.072,33.678-141.765,33.678-141.765S3162.412,1309.006,3096.551,1281.963z M248.619,2455.278
		c1.53,11.504,106.333-89.332,133.507-22.764c6.16,15.227-87.383,83.509-116.127,122.202
		c-136.971,184.217-38.066,319.569-37.599,289.236c1.596-99.695,29.642-144.841,90.032-210.277
		c39.952-43.276,135.405-84.562,183.638-183.398c29.792-61.048,11.342-132.511-59.541-160.864
		c-79.669-31.847-139.611,41.717-139.611,41.717S239.108,2384.719,248.619,2455.278z M3722.232,2451.895
		c0,0-56.382-76.327-137.472-48.295c-72.151,24.955-93.971,95.464-67.107,157.855c43.491,101.016,136.874,146.782,174.726,191.907
		c57.217,68.23,83.091,114.656,79.952,214.313c-0.973,30.322,104.243-100.184-23.828-290.693
		c-26.877-40.012-117.072-112.658-110.195-127.572c30.299-65.207,130.197,40.492,132.272,29.073
		C3783.427,2508.455,3722.232,2451.895,3722.232,2451.895z M937.901,1345.688c0,0-37.909,86.991,26.911,143.2
		c57.688,50.007,129.66,33.649,170.261-20.809c65.737-88.172,58.681-191.926,78.834-247.27
		c30.481-83.667,57.75-129.287,145.625-176.398c26.748-14.317-138.884-40.187-239.834,165.983
		c-21.216,43.28-39.029,157.715-55.38,159.219c-71.623,6.361-30.035-133.004-40.961-129.092
		C956.285,1264.409,937.901,1345.688,937.901,1345.688z M1380.918,4327.798c0,0,94.291-10.665,110.559-94.904
		c14.464-74.962-35.689-129.114-103.154-137.045c-109.227-12.846-195.55,45.144-253.558,55.362
		c-87.699,15.436-140.839,14.63-225.577-37.915c-25.772-16.004,34.638,140.37,263.662,124.711
		c48.09-3.27,156.099-45.059,165.58-31.647c41.319,58.846-100.168,92.512-91.317,100.019
		C1301.337,4352.519,1380.918,4327.798,1380.918,4327.798z"/>
	<radialGradient id="SVGID_2_" cx="2007.8352" cy="2711.7354" r="1978.1963" gradientUnits="userSpaceOnUse">
		<stop  offset="0" style="stop-color:#E2007A"/>
		<stop  offset="0.5" style="stop-color:#FFED00"/>
		<stop  offset="1" style="stop-color:#009EE0"/>
	</radialGradient>
	<path fill="url(#SVGID_2_)" d="M2007.835,4689.932c-134.209,0-268.338-13.521-398.661-40.189
		c-127.018-25.991-251.957-64.774-371.346-115.272c-117.22-49.579-230.277-110.944-336.031-182.391
		c-104.746-70.765-203.245-152.033-292.758-241.547c-89.514-89.515-170.782-188.013-241.547-292.759
		c-71.447-105.754-132.812-218.812-182.391-336.03c-50.498-119.39-89.281-244.329-115.272-371.347
		c-26.668-130.322-40.189-264.452-40.189-398.661s13.521-268.338,40.189-398.661c25.991-127.018,64.775-251.957,115.272-371.346
		c49.58-117.219,110.944-230.276,182.391-336.031c70.765-104.746,152.033-203.244,241.547-292.758
		c89.514-89.514,188.012-170.783,292.758-241.547c105.754-71.447,218.811-132.812,336.031-182.391
		c119.389-50.498,244.328-89.281,371.346-115.272c130.323-26.668,264.452-40.189,398.661-40.189s268.339,13.521,398.661,40.189
		c127.018,25.991,251.957,64.775,371.347,115.272c117.219,49.58,230.276,110.944,336.03,182.391
		c104.746,70.765,203.244,152.033,292.759,241.547c89.514,89.514,170.782,188.012,241.547,292.758
		c71.446,105.754,132.812,218.812,182.391,336.031c50.498,119.389,89.281,244.328,115.272,371.346
		c26.668,130.323,40.189,264.452,40.189,398.661s-13.521,268.339-40.189,398.661c-25.991,127.018-64.774,251.957-115.272,371.347
		c-49.579,117.219-110.944,230.276-182.391,336.03c-70.765,104.746-152.033,203.244-241.547,292.759
		c-89.515,89.514-188.013,170.782-292.759,241.547c-105.754,71.446-218.812,132.812-336.03,182.391
		c-119.39,50.498-244.329,89.281-371.347,115.272C2276.174,4676.41,2142.044,4689.932,2007.835,4689.932L2007.835,4689.932z
		 M2007.835,760.932c-1075.676,0-1950.804,875.127-1950.804,1950.804s875.127,1950.804,1950.804,1950.804
		s1950.804-875.127,1950.804-1950.804S3083.512,760.932,2007.835,760.932L2007.835,760.932z"/>
</g>
</svg>
