<?xml version="1.0" encoding="utf-8"?>
<!-- Generator: Adobe Illustrator 26.0.1, SVG Export Plug-In . SVG Version: 6.00 Build 0)  -->
<svg version="1.1" id="Слой_1" xmlns="http://www.w3.org/2000/svg" xmlns:xlink="http://www.w3.org/1999/xlink" x="0px" y="0px"
	 viewBox="0 0 2002.51 2400" style="enable-background:new 0 0 2002.51 2400;" xml:space="preserve">
<style type="text/css">
	.st0{fill:#34827A;}
	.st1{fill:#B8CB44;}
	.st2{fill:#6BA299;}
	.st3{fill:#C8C6D1;}
	.st4{fill:#FAE8DB;}
	.st5{fill:#D37959;}
	.st6{fill:#BF5B3C;}
	.st7{fill:#AAAAB2;}
	.st8{fill:#FFD2EB;}
	.st9{fill:#FFFFFF;}
</style>
<g>
	<path class="st0" d="M595.69,1923.39c0-33.17-20.93-129.83-33.17-193.48c-5.63-29.3-27.64-116.09-27.64-116.09
		c-11.06,60.81-24.23,204.99-5.53,298.51c16.75,83.75,39.97,133.53,70.63,209.62C605,2053.45,595.69,1992.41,595.69,1923.39z"/>
	<path class="st1" d="M507.87,1680.84c12.2-30.84,28.31-128.42,40.34-192.11c5.54-29.32,17.01-118.12,17.01-118.12
		c-32.65,52.47-97.95,181.7-114.97,275.54c-15.24,84.04-11.97,138.87-11.45,220.91C468.67,1805.2,482.47,1745.02,507.87,1680.84z"/>
	<path class="st0" d="M451.96,1431.4c13.2-47.67,0-165.84-11.05-276.4c-16.58,38.69-49.75,187.95-55.28,243.23
		c-8.5,84.99-16.58,143.73-105.03,226.65C396.69,1580.65,433.54,1497.92,451.96,1431.4z"/>
	<path class="st1" d="M385.05,1178.73c10.45-26.42,25.59-109.49,36.68-163.74c5.11-24.97,16.34-100.49,16.34-100.49
		c-27.27,45.24-82.37,156.27-98.14,236.2c-14.13,71.57-12.8,117.96-14.31,187.46C350.87,1285.03,363.29,1233.71,385.05,1178.73z"/>
	<path class="st0" d="M649.06,1505.14c6.86-27.58,10.86-111.92,14.67-167.16c1.75-25.43,2.88-101.77,2.88-101.77
		c-21.04,48.45-60.94,165.81-65.99,247.11c-4.52,72.82,2.93,118.62,10.64,187.71C629.27,1615.03,634.77,1562.52,649.06,1505.14z"/>
	<path class="st2" d="M848.44,703.63c5.64-32.68,1.44-131.5,0.19-196.3c-0.57-29.83-7.51-119.1-7.51-119.1
		c-21.23,58.05-58.71,197.89-56.17,293.23c2.27,85.39,16.69,138.39,33.99,218.58C835.52,833.39,836.72,771.65,848.44,703.63z"/>
	<path class="st2" d="M803.11,449.69c17.27-28.32,49.72-121.74,72.4-182.46c10.44-27.95,36.83-113.51,36.83-113.51
		c-41.1,46.16-127.4,162.41-160.12,252c-29.3,80.23-35.39,134.82-48.82,215.75C743.35,565.58,767.18,508.62,803.11,449.69z"/>
	<path class="st1" d="M972.11,300.53c11.45-26.01,29.72-108.44,42.86-162.24c6.05-24.76,20.14-99.8,20.14-99.8
		c-28.96,44.17-88.23,153.04-107.03,232.31c-16.83,70.99-17.27,117.39-21.41,186.79C933.93,405.47,948.28,354.66,972.11,300.53z"/>
	<path class="st3" d="M1408.3,1497.73c-24.94-97.84-100.51-230.28-199.01-276.4l-447.77,60.81
		c-22.11,281.93,24.03,450.79,187.95,541.74c114.62,63.59,259.82,55.28,348.26,0C1436.46,1737.19,1427.75,1573.98,1408.3,1497.73z"
		/>
	<path class="st4" d="M1048.99,1315.31c-258.44,68.91-165.72,447.26,26.02,466.02c19.65,1.92,78.44,9.38,78.44,9.38
		C1486.52,1759.56,1297.75,1248.97,1048.99,1315.31z"/>
	<path class="st5" d="M1579.68,88.1c16.58,5.53-188.98,187.93-204.54,237.7c-27.64,88.45-119.55,325.57-121.61,348.26
		c-16.58,182.42-47.49,283.35-49.75,309.57c-9.41,108.99-30.95,319.66-48.17,420.13c-23.69,138.2-38.76,305.57-134.25,392.49
		c-40.51,36.87-154.78,99.5-171.37,121.62c-14.2,18.94-132.67,187.95-182.42,453.3c0,0,112.74,27.64,132.67,27.64
		c71.86,0,88.45,5.53,132.67-22.11c0,0,72.77-335.7,110.56-359.32c44.22-27.64,226.65-210.06,248.76-276.4
		c40.92-122.76,66.33-281.93,77.39-447.77c10.27-154.03,33.17-552.8,33.17-635.72c0-66.57,22.11-44.22,27.64-127.14
		c5.76-86.34,160.31-331.68,276.4-442.24H1579.68z"/>
	<path class="st5" d="M1845.02,121.27c0,0-81.01,271.3-136.81,359.62c-36.15,57.22-74.55,119.09-129.67,152.83
		c-65.78,40.27-152.38,65.5-225.51,90.09l-5.53,171.36c132.67-66.33,168.14-71.28,232.42-110.69
		c50.63-31.04,76.03-60.63,105.73-114.01c59.23-106.45,91.31-204.86,137.26-317.04c28.01-68.42,37.21-161.68,49.75-232.18
		C1856.78,114.9,1845.02,121.27,1845.02,121.27z"/>
	<g>
		<path class="st6" d="M852.88,2396.3c39.54-104.53,43.76-218.5,76.16-325.09c8.27-27.19,18.59-53.73,31.58-79.02
			c9.92-19.32,21.28-38.96,36.46-54.66c27.04-27.98,63.5-46.79,97.51-64.79c41.42-21.93,84.32-41.77,123.18-68.17
			c28.17-19.14,58.24-44.85,61.76-80.97c0.68-7.02-10.26-6.95-10.93,0c-3.17,32.55-33.23,55.83-58.22,72.81
			c-34.62,23.52-72.77,41.61-109.82,60.88c-35.02,18.21-70.7,36.94-100.82,62.78c-33.68,28.91-53.7,72.74-69.3,113.34
			c-44.57,116.02-44.16,243.86-88.09,359.99C839.84,2400,850.41,2402.83,852.88,2396.3L852.88,2396.3z"/>
	</g>
	<g>
		<path class="st6" d="M938.17,2378.14c14-84.26,25.98-168.9,44.79-252.28c8.83-39.15,18.85-77.78,38.29-113.15
			c25.42-46.23,63.78-81.67,107.16-110.82c31.44-21.12,64.71-39.42,97.07-59.07c6.02-3.65,0.53-13.11-5.52-9.44
			c-43.74,26.57-89.1,50.87-129.47,82.56c-39.6,31.09-71.4,71.07-91.63,117.26c-15.4,35.16-23.24,73.99-31.17,111.35
			c-9.89,46.62-17.95,93.63-25.64,140.67c-4.9,29.99-9.45,60.04-14.43,90.01C926.48,2382.12,937.02,2385.08,938.17,2378.14
			L938.17,2378.14z"/>
	</g>
	<g>
		<path class="st6" d="M1084.44,1735.35c85.41-66.69,137.48-169.08,159.96-273.57c11.9-55.32,15.41-112.99,19.09-169.33
			c3.85-58.92,5.87-117.95,8.13-176.95c0.27-7.05-10.67-7.03-10.93,0c-2.17,56.42-4.18,112.85-7.64,169.21
			c-3.5,56.88-7.19,114.79-18.48,170.74c-20.99,103.99-73.22,206.07-157.86,272.16C1071.16,1731.96,1078.95,1739.64,1084.44,1735.35
			L1084.44,1735.35z"/>
	</g>
	<g>
		<path class="st6" d="M1120.83,1639.48c21.75-48.88,44.06-97.6,60.41-148.63c14.54-45.42,22.03-91.08,22.31-138.68
			c0.25-43.68-2.25-87.36,0.73-130.99c2.82-41.18,11.19-84.91,38.11-117.6c4.44-5.4-3.25-13.18-7.73-7.73
			c-53.8,65.33-42.81,162.53-42.08,241.3c0.19,20.07-0.02,40.16-1.8,60.16c-2.39,26.84-9.05,53.46-16.59,79.26
			c-15.87,54.32-39.84,105.81-62.79,157.39C1108.55,1640.34,1117.97,1645.91,1120.83,1639.48L1120.83,1639.48z"/>
	</g>
	<g>
		<path class="st6" d="M1374.09,599.7c9.67-54.39,22.56-108.74,44.18-159.73c15.34-36.21,36.58-70.21,58.54-102.75
			c24.04-35.62,50.05-70.08,78.62-102.2c12.58-14.14,25.82-27.76,40.21-40.07c10.33-8.84,22.04-17.82,35.23-21.81
			c6.73-2.04,3.86-12.59-2.9-10.55c-29.9,9.05-54.47,36.58-74.89,58.75c-29.77,32.33-56.38,67.72-81.29,103.88
			c-23.1,33.53-45,68.63-61.52,105.91c-23.3,52.56-36.69,109.26-46.72,165.67C1362.32,603.69,1372.86,606.64,1374.09,599.7
			L1374.09,599.7z"/>
	</g>
	<g>
		<path class="st6" d="M1334.61,583.91c30.4-80.35,61.97-160.35,103.9-235.54c45.08-80.83,103.67-159.52,185.63-205.79
			c18.39-10.38,37.89-18.58,58.07-24.74c6.73-2.05,3.86-12.61-2.9-10.54c-87.66,26.76-154.91,92.29-206.6,165.65
			c-52.36,74.33-90.07,158.16-123.42,242.39c-8.63,21.8-16.92,43.73-25.22,65.66C1321.56,587.61,1332.14,590.44,1334.61,583.91
			L1334.61,583.91z"/>
	</g>
	<g>
		<path class="st6" d="M734.43,2384.45c19.19-114.13,51.88-228.37,99.79-333.82c10.98-24.17,22.51-48.84,38.1-70.42
			c15.76-21.8,36.66-39.67,58.32-55.35c42.47-30.74,89.81-53.99,131.18-86.38c24.79-19.41,43.49-42.87,57.04-71.26
			c13.79-28.9,22.49-59.88,37.51-88.26c-1.57,0.9-3.15,1.8-4.72,2.71c1.32,0,2.63,0,3.95,0c7.05,0,7.05-10.93,0-10.93
			c-1.32,0-2.63,0-3.95,0c-1.86,0-3.83,1.03-4.72,2.71c-13.44,25.4-22.18,52.71-33.39,79.09c-11.94,28.1-28.59,52.41-52,72.17
			c-41.04,34.65-90.09,58.13-133.87,88.91c-20.63,14.5-39.94,30.89-56.25,50.17c-16.76,19.82-28.38,43.05-39.59,66.28
			c-25.2,52.18-45.08,106.94-62.28,162.21c-19.29,61.96-34.9,125.26-45.66,189.27C722.72,2388.44,733.26,2391.4,734.43,2384.45
			L734.43,2384.45z"/>
	</g>
	<g>
		<path class="st6" d="M710.73,2376.56c20.98-121.94,49.04-245.14,107.61-355.14c12.52-23.53,25.98-47.68,43.79-67.67
			c13.72-15.39,30.05-28.26,46.92-40c34.62-24.09,72.42-43.18,107.42-66.67c43.09-28.92,89.31-72.79,89.31-129.1
			c0-7.05-10.93-7.05-10.93,0c0,0.56,0,1.11,0,1.67c0,7.05,10.93,7.05,10.93,0c0-0.56,0-1.11,0-1.67c0-7.05-10.93-7.05-10.93,0
			c0,40.35-28.38,75.84-57.72,100.3c-32.3,26.94-70.41,46.3-106.11,68.21c-33.99,20.86-67.33,44.38-90.75,77.22
			c-34.75,48.75-59.3,105.88-79.34,161.99c-28.67,80.27-46.33,164.11-60.75,247.96C699,2380.54,709.54,2383.5,710.73,2376.56
			L710.73,2376.56z"/>
	</g>
	<g>
		<path class="st6" d="M1266.24,1692.09c-28.8,28.68-63.66,60.68-106.69,61.57c1.76,1.34,3.52,2.68,5.27,4.02
			c-4.41-18.01,4.03-37.32,11.74-53.21c10.13-20.86,23.22-40.26,36.28-59.35c10.89-15.92,23.62-31.51,32.24-48.82
			c13.51-27.16,25.62-55.03,35.84-83.6c9.8-27.38,17.31-55.51,23.1-84c6.43-31.61,8.78-64.18,11.68-96.26
			c5.93-65.65,9.48-131.5,15.14-197.17c0.61-7.03-10.33-6.97-10.93,0c-5.66,65.68-9.31,131.51-15.14,197.17
			c-3,33.78-5.9,67.78-12.87,101c-6.21,29.59-14.86,58.61-25.39,86.95c-9.88,26.6-20.72,55.15-35.9,79.23
			c-11.17,17.72-23.7,34.58-35.34,51.99c-12.44,18.58-24.53,37.79-33.23,58.45c-6.67,15.84-11.98,33.35-7.77,50.54
			c0.57,2.32,2.9,4.06,5.27,4.02c46.17-0.96,83.43-33.91,114.42-64.78C1278.97,1694.84,1271.24,1687.11,1266.24,1692.09
			L1266.24,1692.09z"/>
	</g>
	<path class="st0" d="M1950.72,724.26c-7.96-32.2-51.46-121.02-78.6-179.88c-12.5-27.09-54.68-106.07-54.68-106.07
		c3.85,61.68,25.64,204.82,66.23,291.12c36.35,77.29,70.82,120.05,118.85,186.56C1990.95,848.3,1967.27,791.27,1950.72,724.26z"/>
	<path class="st1" d="M1807.28,509.86c4.45-32.87-3.32-131.46-6.91-196.18c-1.65-29.79-11.81-118.75-11.81-118.75
		c-19.12,58.77-51.52,199.88-45.53,295.07c5.36,85.25,21.69,137.69,41.87,217.2C1799.06,639.99,1798.02,578.26,1807.28,509.86z"/>
	<path class="st0" d="M1902.22,305.42c0.05-28.42-16.3-111.26-25.85-165.8c-4.4-25.11-21.61-99.49-21.61-99.49
		c-8.8,52.08-19.4,175.58-4.8,255.73c13.08,71.77,31.3,114.45,55.35,179.68C1909.35,416.86,1902.11,364.55,1902.22,305.42z"/>
	<path class="st0" d="M1663.26,530.78c-7.95-32.2-51.46-121.02-78.6-179.88c-12.49-27.09-54.67-106.07-54.67-106.07
		c3.85,61.68,25.64,204.82,66.22,291.13c36.35,77.29,70.83,120.05,118.85,186.56C1703.49,654.82,1679.82,597.8,1663.26,530.78z"/>
	<path class="st1" d="M1232.37,404.83c4.45-32.87-3.32-131.47-6.91-196.18c-1.65-29.79-11.81-118.75-11.81-118.75
		c-19.12,58.78-51.52,199.88-45.53,295.07c5.36,85.25,21.69,137.69,41.87,217.2C1224.15,534.96,1223.11,473.23,1232.37,404.83z"/>
	<path class="st0" d="M1398.45,251.97c14.64-24.35,43.19-103.82,63.02-155.52C1470.6,72.65,1494.06,0,1494.06,0
		c-34.31,40.15-106.87,140.66-135.53,216.91c-25.66,68.29-31.96,114.27-44.85,182.58C1347.31,351.24,1367.97,302.65,1398.45,251.97z
		"/>
	<path class="st3" d="M1513.05,1310.88c-22.77-34.91-98.66-71.48-137.92-67.44l-5.53,66.33c-38.69,22.11-121.61,55.28-121.61,105.03
		c0,52.15,105.03,44.22,143.73,27.64C1442.27,1420.79,1554.06,1373.76,1513.05,1310.88z"/>
	<path class="st3" d="M1159.64,1642.58c-21.18-21.44-63.45,0.47-73.18,20.29c-70.27-98.98-313.87-120.92-280.7,11.75
		c15.69,62.77,55.28,127.15,143.73,149.26c64.59,16.15,121.62-66.34,172.73-114.86C1139.84,1692.29,1185.8,1669.08,1159.64,1642.58z
		"/>
	<path class="st3" d="M1252.69,1684.85c-10.66-2.38-28.67-5.35-37.02,1.67c-45.06,37.86,142.85,82.93,165,54.44
		c38.7-49.75,33.17-132.67,33.17-132.67C1336.44,1508.79,1247.2,1594.91,1252.69,1684.85z"/>
	<path class="st3" d="M662.03,1308.99c-66.07,7.79-151.85-26.33-195.36,0.77c-97.62,60.82,206.42,160.33,361.2,127.16l-27.64-149.26
		C751.12,1302.73,717.87,1302.41,662.03,1308.99z"/>
	<g>
		<path d="M1135.77,1650.85c9.82-9.82,19.65-20.24,32.06-26.79c6.24-3.29,0.71-12.73-5.52-9.44c-13.22,6.97-23.82,18.04-34.27,28.49
			C1123.05,1648.11,1130.78,1655.84,1135.77,1650.85L1135.77,1650.85z"/>
	</g>
	<g>
		<path d="M1152.36,1667.44c10.77-10.76,21.67-21.04,36.29-26.23c6.6-2.35,3.75-12.91-2.91-10.55
			c-16.51,5.87-28.9,16.85-41.11,29.05C1139.63,1664.69,1147.36,1672.43,1152.36,1667.44L1152.36,1667.44z"/>
	</g>
	<g>
		<path d="M1181.66,1691.15c18.55,0.01,36.32,0.14,52.52,10.31c5.99,3.76,11.47-5.7,5.52-9.44c-17.85-11.21-37.54-11.79-58.04-11.8
			C1174.61,1680.21,1174.61,1691.15,1181.66,1691.15L1181.66,1691.15z"/>
	</g>
	<g>
		<path d="M1181.66,1713.26c16.42,0.01,32.48,0.43,48.3,5.33c6.75,2.1,9.62-8.46,2.9-10.54c-16.72-5.18-33.83-5.72-51.21-5.72
			C1174.61,1702.33,1174.61,1713.26,1181.66,1713.26L1181.66,1713.26z"/>
	</g>
	<g>
		<path d="M1240.8,1424.2c11.59-10.93,27.01-15.76,41.81-20.7c6.65-2.22,3.8-12.78-2.91-10.54c-16.66,5.56-33.62,11.23-46.64,23.51
			C1227.93,1421.32,1235.68,1429.04,1240.8,1424.2L1240.8,1424.2z"/>
	</g>
	<g>
		<path d="M1252.72,1445.21c12.07-17.45,29.71-24.56,50.56-24.93c7.04-0.12,7.06-11.06,0-10.93c-24.93,0.44-45.66,9.61-60,30.35
			C1239.25,1445.51,1248.73,1450.97,1252.72,1445.21L1252.72,1445.21z"/>
	</g>
	<g>
		<path d="M1279.5,1462.9c3.73-3.99,6.15-9.03,9.65-13.22c7.64-9.17,18.5-13.95,29.8-16.97c6.81-1.81,3.92-12.36-2.9-10.54
			c-11.72,3.12-22.53,8.03-31.44,16.39c-5.22,4.89-8.05,11.49-12.83,16.61C1266.96,1460.32,1274.68,1468.07,1279.5,1462.9
			L1279.5,1462.9z"/>
	</g>
	<g>
		<path d="M420.46,1330.23c15.78,14.48,38.49,17.88,59.15,18.19c7.05,0.1,7.05-10.83,0-10.93c-17.52-0.26-37.92-2.6-51.41-14.98
			C423.01,1317.74,415.25,1325.45,420.46,1330.23L420.46,1330.23z"/>
	</g>
	<g>
		<path d="M431.51,1302.59c14.44,13.73,33.51,22.61,52.16,29.05c6.68,2.3,9.53-8.26,2.91-10.55c-16.79-5.79-34.33-13.86-47.34-26.23
			C434.14,1290.01,426.4,1297.73,431.51,1302.59L431.51,1302.59z"/>
	</g>
	<g>
		<path d="M463.83,1279.37c7.81,14.96,21.4,25.84,35.13,35.13c5.86,3.96,11.32-5.51,5.52-9.44c-12.22-8.27-24.26-17.9-31.2-31.21
			C470.01,1267.6,460.57,1273.13,463.83,1279.37L463.83,1279.37z"/>
	</g>
	<path class="st3" d="M469.32,280.04c-195.77-120.56-441.7,21.6-342.06,58.88c-40.49-1.15-123.86,59.77-51.47,83.06
		c-143,107.85-61.3,303.03,61.01,370.82c192.49,106.69,311.91,43.29,397.26-49.63c35.28-38.41,65.77-111.45,65.77-111.45
		C664.49,435.73,552.52,331.28,469.32,280.04z"/>
	<path class="st4" d="M439.72,446.96c-115.24-70.97-260.01,12.72-201.36,34.66c-23.84-0.68-72.92,35.18-30.3,48.89
		c-84.71,62.98-32.16,176.78,33.28,214.31c93.97,53.9,188.06,27.64,235.98-29.1c10.38-12.3,17.96-36.01,17.96-36.01
		C562.07,562.83,488.7,477.12,439.72,446.96z"/>
	<path class="st3" d="M1169.3,687.65c-38.7-69.2-142.43-107.56-258.51-151.79c-74.04-28.21-165.25-29.61-230.62-7.86
		c-77.02,25.62-170.42,113.89-264.62,249.7c-134.32,193.65-31.17,376.18,219.54,479.16c144.5,59.36,413.38,105.2,554.6-50.53
		C1287.78,1098.16,1232.72,801.05,1169.3,687.65z"/>
	<path d="M927.37,580.09l11.06-5.53c29.15-23.74,99.55-30.74,109.96-65.52C1006.94,502.62,943.92,543.67,927.37,580.09z"/>
	<path d="M957.78,585.62h12.44c4.54-17.16,72.15-23.33,94.92-43.12C1028.82,538.55,982.45,557.61,957.78,585.62z"/>
	<path class="st7" d="M1017.4,1281.35c0,0,1.18-0.29,3.38-0.83c2.2-0.49,5.48-1.24,9.52-2.27c4.05-0.95,8.94-2.27,14.5-3.77
		c5.55-1.58,11.76-3.39,18.42-5.6c3.32-1.14,6.8-2.21,10.32-3.57c1.76-0.67,3.57-1.26,5.39-1.96c1.8-0.71,3.63-1.43,5.49-2.16
		c7.4-2.95,15.08-6.26,22.82-10.06c3.89-1.85,7.74-3.93,11.67-5.94c1.92-1.08,3.85-2.18,5.8-3.27c1.96-1.06,3.88-2.2,5.8-3.37
		c7.71-4.6,15.31-9.61,22.52-15.1c3.7-2.63,7.17-5.54,10.69-8.35c3.34-3.02,6.87-5.81,10.05-8.94c3.3-3,6.32-6.22,9.44-9.28
		c2.91-3.25,5.93-6.35,8.61-9.64c5.59-6.42,10.39-13.12,14.89-19.58c4.3-6.56,8.27-12.92,11.48-19.07c0.83-1.53,1.64-3.03,2.43-4.5
		c0.78-1.48,1.41-2.97,2.14-4.4c1.42-2.86,2.75-5.6,3.85-8.24c1.13-2.63,2.28-5.08,3.2-7.4c0.92-2.33,1.76-4.47,2.53-6.41
		c1.56-3.88,2.58-7.02,3.38-9.14c0.81-2.13,1.23-3.27,1.23-3.27s0,1.21,0,3.48c-0.02,1.14-0.04,2.54-0.06,4.19
		c-0.01,1.66-0.04,3.57-0.27,5.68c-0.2,2.13-0.42,4.48-0.66,7.05c-0.24,2.58-0.82,5.3-1.27,8.26c-0.42,2.98-1.2,6.06-1.97,9.34
		c-0.39,1.64-0.77,3.33-1.26,5.04c-0.52,1.7-1.05,3.43-1.59,5.2c-2.15,7.12-5.22,14.6-8.88,22.36c-3.88,7.63-8.28,15.62-13.81,23.23
		c-5.4,7.69-11.58,15.26-18.57,22.24c-3.41,3.59-7.09,6.93-10.81,10.27c-3.85,3.17-7.65,6.45-11.7,9.39
		c-3.98,3.04-8.19,5.74-12.32,8.52c-4.22,2.63-8.47,5.17-12.81,7.47c-8.6,4.71-17.4,8.69-26.1,11.93
		c-8.66,3.36-17.27,5.89-25.49,7.93c-8.22,2.03-16.1,3.41-23.39,4.37c-3.64,0.51-7.16,0.78-10.48,1.1c-3.33,0.25-6.5,0.39-9.47,0.51
		c-5.95,0.13-11.11,0.09-15.39-0.19c-4.27-0.15-7.55-0.63-9.81-0.84C1018.6,1281.5,1017.4,1281.35,1017.4,1281.35z"/>
	<path class="st7" d="M819.97,1613.03c0,0,0.8-0.9,2.29-2.59c0.76-0.83,1.69-1.85,2.79-3.06c0.55-0.6,1.14-1.24,1.77-1.93
		c0.69-0.64,1.42-1.32,2.2-2.04c1.59-1.43,3.36-3.02,5.28-4.75c1.99-1.64,4.23-3.25,6.61-5.07c4.84-3.49,10.59-7.1,17.22-10.44
		c0.82-0.43,1.65-0.88,2.5-1.3c0.87-0.38,1.74-0.76,2.63-1.14c1.78-0.77,3.59-1.55,5.43-2.35c1.84-0.84,3.8-1.39,5.75-2.1
		c1.97-0.65,3.95-1.42,6-2.01c4.12-1.12,8.36-2.39,12.78-3.19c2.21-0.44,4.44-0.94,6.71-1.29c2.28-0.3,4.57-0.61,6.89-0.91
		c9.29-1.05,19-1.49,28.78-0.85c4.91,0.17,9.81,0.76,14.74,1.32c4.88,0.82,9.82,1.48,14.66,2.6c4.87,0.99,9.65,2.36,14.41,3.66
		c2.37,0.68,4.71,1.48,7.04,2.26l3.49,1.17l3.42,1.31c2.27,0.89,4.56,1.71,6.78,2.65c2.2,0.99,4.39,1.98,6.57,2.96
		c2.19,0.94,4.28,2.09,6.39,3.12c2.1,1.06,4.19,2.1,6.18,3.29c8.13,4.45,15.54,9.52,22.32,14.57c6.67,5.23,12.73,10.46,17.84,15.79
		c1.27,1.33,2.52,2.63,3.74,3.9c1.15,1.33,2.28,2.63,3.38,3.9c2.21,2.51,4.12,5.06,5.89,7.45c1.81,2.35,3.32,4.71,4.7,6.87
		c0.69,1.08,1.35,2.12,1.97,3.11c0.57,1.03,1.11,2.01,1.63,2.95c1.01,1.87,1.95,3.5,2.63,5c0.67,1.5,1.24,2.78,1.7,3.81
		c0.88,2.07,1.35,3.18,1.35,3.18s-0.84-0.86-2.4-2.49c-0.76-0.81-1.7-1.81-2.81-2.99c-1.12-1.15-2.51-2.4-3.96-3.85
		c-0.73-0.72-1.5-1.47-2.31-2.26c-0.85-0.75-1.73-1.54-2.66-2.37c-1.87-1.61-3.75-3.46-6.01-5.19c-2.21-1.77-4.44-3.74-7.03-5.57
		c-1.25-0.95-2.54-1.92-3.85-2.92c-1.36-0.94-2.75-1.9-4.16-2.88c-5.6-3.98-11.97-7.82-18.73-11.72
		c-6.86-3.76-14.15-7.55-21.92-10.95c-1.9-0.92-3.93-1.64-5.9-2.5c-1.99-0.81-3.95-1.73-6.01-2.44c-4.08-1.52-8.2-3.06-12.42-4.43
		c-8.43-2.73-17.07-5.25-25.87-7.01c-4.36-1.08-8.79-1.72-13.18-2.53c-4.42-0.5-8.8-1.35-13.19-1.64
		c-4.38-0.48-8.73-0.67-13.05-0.92c-2.16-0.14-4.29-0.05-6.42-0.09c-2.13,0-4.25-0.11-6.34,0.03c-2.1,0.07-4.18,0.15-6.23,0.22
		c-2.05,0.16-4.09,0.32-6.1,0.48c-4.06,0.19-7.93,0.97-11.79,1.38c-3.81,0.62-7.51,1.32-11.09,2.06c-1.78,0.42-3.53,0.84-5.24,1.25
		c-0.86,0.2-1.72,0.41-2.56,0.61c-0.83,0.25-1.66,0.49-2.47,0.73c-3.25,0.99-6.47,1.8-9.37,2.94c-2.93,1.09-5.83,1.94-8.38,3.11
		c-2.61,1.1-5.05,2.12-7.31,3.07c-2.21,1.06-4.24,2.04-6.07,2.92c-1.87,0.84-3.52,1.73-4.95,2.52c-1.43,0.78-2.65,1.44-3.63,1.98
		C821.04,1612.47,819.97,1613.03,819.97,1613.03z"/>
	<path class="st8" d="M942.75,1122.72c5.82,27.53,35.83,44.49,67.03,37.89c31.19-6.6,51.76-34.27,45.93-61.79
		c-5.83-27.52-35.83-44.48-67.03-37.88C957.5,1067.54,936.92,1095.2,942.75,1122.72z"/>
	<path class="st8" d="M394.38,861.9c-18.69,12.83-21.67,39.38-6.66,59.29c15.01,19.91,42.33,25.64,61.03,12.81
		c18.69-12.84,21.67-39.38,6.66-59.29C440.39,854.8,413.07,849.06,394.38,861.9z"/>
	<path class="st3" d="M1386.63,569.23c226.06-41.89,404.23,179.34,297.86,178.21c38.18,13.52,94,100.4,18.08,96.02
		c94.51,152.14-52.04,304.76-190.56,323.91c-218.01,30.15-306.56-72.04-352.68-189.47c-19.06-48.54-21.18-127.66-21.18-127.66
		C1148.46,644.11,1290.55,587.04,1386.63,569.23z"/>
	<path class="st4" d="M1354.08,735.59c133.07-24.66,237.95,105.57,175.33,104.91c22.48,7.96,55.33,59.1,10.64,56.53
		c56.31,89.27-33.71,176.49-108.28,187.92c-107.08,16.41-185.37-42-209.63-112.19c-5.26-15.21-3.77-40.07-3.77-40.07
		C1198.19,799.58,1297.52,746.08,1354.08,735.59z"/>
	<path d="M770.98,924.45c-0.74-56.37-37.07-75.37-100.56-41.24c-53.55,28.78-130.7,122.68-123.93,199.08
		c4.97,56.12,131.55,85.1,154.23,39.54C735.77,1051.41,771.64,975.07,770.98,924.45z"/>
	<g>
		<path class="st9" d="M589.91,1051.42c6.36-46.07,32.8-86.64,64.93-119.2c4.96-5.02-2.77-12.76-7.73-7.73
			c-33.31,33.75-61.15,76.25-67.74,124.03C578.41,1055.4,588.95,1058.38,589.91,1051.42L589.91,1051.42z"/>
	</g>
	<g>
		<path class="st9" d="M673.02,955.99c0.27-4.91,6.27-9.54,9.45-12.72c4.99-4.99-2.74-12.73-7.73-7.73
			c-5.71,5.72-12.19,11.9-12.66,20.45C661.7,963.04,672.64,963,673.02,955.99L673.02,955.99z"/>
	</g>
	<path d="M568.88,858.09c-13.66,23.84-40.71,34.02-60.41,22.72c-19.7-11.29-24.61-39.77-10.95-63.61
		c13.66-23.84,40.71-34.01,60.41-22.72C577.64,805.77,582.54,834.25,568.88,858.09z"/>
	<path d="M968.24,1025.57c-13.66,23.84-40.71,34.02-60.41,22.73c-19.7-11.29-24.61-39.77-10.95-63.61
		c13.66-23.84,40.71-34.02,60.42-22.73C977,973.25,981.9,1001.73,968.24,1025.57z"/>
	<path class="st9" d="M500.96,858.08c1.16-7.54,8.21-12.72,15.75-11.57c7.54,1.16,12.72,8.21,11.57,15.76
		c-1.16,7.54-8.21,12.72-15.75,11.56C504.98,872.67,499.8,865.62,500.96,858.08z"/>
	<path class="st9" d="M901.57,1016.8c1.16-7.54,8.21-12.72,15.76-11.56c7.54,1.16,12.72,8.21,11.57,15.75
		c-1.16,7.54-8.21,12.72-15.76,11.57C905.59,1031.39,900.42,1024.34,901.57,1016.8z"/>
	<g>
		<path d="M697.97,1121.02c79.93,35.35,117.74-72.46,96.48-133.32c-2.31-6.61-12.88-3.77-10.54,2.91
			c10.32,29.54,7.21,63.72-6.79,91.55c-14.61,29.04-42.85,43.03-73.62,29.41C697.1,1108.76,691.53,1118.18,697.97,1121.02
			L697.97,1121.02z"/>
	</g>
	<g>
		<path d="M778.12,994.63c5.53,0,11.05,0,16.58,0c7.05,0,7.05-10.93,0-10.93c-5.53,0-11.05,0-16.58,0
			C771.06,983.69,771.06,994.63,778.12,994.63L778.12,994.63z"/>
	</g>
	<g>
		<path d="M358.05,668.54c0,3.13,0.03,6.26,2.29,8.7c2.21,2.38,5.73,2.29,8.7,2.29c2.98,0,5.47-2.49,5.47-5.47s-2.49-5.47-5.47-5.47
			c-0.97,0-1.95,0.01-2.93-0.06c-0.87-0.06,1.59,0.24,0.78,0.11c-0.14-0.02-0.28-0.06-0.42-0.1c-0.72-0.19,1.48,0.69,0.85,0.36
			c-0.62-0.32,1.25,1.06,0.75,0.59c-0.5-0.47,0.95,1.35,0.59,0.75c-0.36-0.61,0.59,1.55,0.36,0.85c-0.04-0.14-0.07-0.28-0.1-0.42
			c-0.16-0.8,0.19,1.64,0.11,0.78c-0.09-0.97-0.06-1.95-0.06-2.93c0-2.98-2.49-5.47-5.47-5.47
			C360.54,663.07,358.05,665.56,358.05,668.54L358.05,668.54z"/>
	</g>
	<g>
		<path d="M391.22,690.65c0.32,8.8,7.72,16.2,16.52,16.52c7.06,0.26,7.03-10.68,0-10.93c-2.5-0.09-5.5-3.09-5.59-5.59
			C401.9,683.62,390.96,683.59,391.22,690.65L391.22,690.65z"/>
	</g>
	<g>
		<path d="M396.75,663.01c0.15,4.08,1.9,7.04,5.09,9.47c2.5,1.91,5.29,3.24,7.57,5.45c5.07,4.89,12.82-2.83,7.73-7.73
			c-2.26-2.18-4.82-3.96-7.49-5.61c-0.49-0.3-0.97-0.61-1.44-0.93c-1.38-0.92,0.64,0.63-0.48-0.42c-1.02-0.96,0.41,0.8-0.25-0.42
			c0.2,0.37,0.26,1.41,0.21,0.19c-0.11-2.98-2.4-5.47-5.47-5.47C399.32,657.54,396.63,660.03,396.75,663.01L396.75,663.01z"/>
	</g>
	<g>
		<path d="M354.12,633.71c4.95,4.69,11.7,6.44,16.58,11.06c5.12,4.84,12.86-2.88,7.73-7.73c-4.95-4.69-11.7-6.43-16.58-11.05
			C356.74,621.13,348.99,628.85,354.12,633.71L354.12,633.71z"/>
	</g>
	<g>
		<path d="M392.82,611.59c4.62,4.88,6.37,11.63,11.05,16.58c4.86,5.13,12.58-2.61,7.73-7.73c-4.62-4.88-6.37-11.63-11.06-16.59
			C395.7,598.73,387.98,606.48,392.82,611.59L392.82,611.59z"/>
	</g>
	<g>
		<path d="M424.39,651.95c0.07,3.9,1.84,7.53,5.32,9.48c1.68,0.94,3.75,1.5,5.68,1.52c2.98,0.02,5.47-2.5,5.47-5.47
			c0-2.99-2.49-5.45-5.47-5.47c-0.06,0-0.13,0-0.19-0.01c-1.04-0.06,1.51,0.23,0.84,0.12c-0.69-0.1-2.53-0.9-0.5,0.01
			c-0.32-0.14-0.62-0.33-0.91-0.53c1.46,1.02,0.88,0.7,0.53,0.37c-0.32-0.3-0.75-0.99,0.34,0.5c-0.12-0.17-0.23-0.36-0.33-0.54
			c-0.45-0.82,0.51,1.38,0.21,0.45c-0.08-0.24-0.12-0.49-0.17-0.74c0.31,1.72,0.12,0.78,0.11,0.31c-0.06-2.98-2.45-5.47-5.47-5.47
			C426.91,646.48,424.33,648.97,424.39,651.95L424.39,651.95z"/>
	</g>
	<g>
		<path d="M442.57,622.65c4.62,4.88,6.37,11.63,11.06,16.58c4.85,5.13,12.57-2.61,7.73-7.73c-4.62-4.88-6.37-11.63-11.06-16.59
			C445.45,609.79,437.73,617.53,442.57,622.65L442.57,622.65z"/>
	</g>
	<g>
		<path d="M446.44,696.11c0.73,0.03,0.79,0.03,0.19,0c-0.96-0.21,0.36,0.46-0.46-0.29c-0.38-0.55-0.41-0.57-0.08-0.04
			c-0.59-1,0.03,0.19,0.12,0.49c0.08,0.34,0.15,0.68,0.2,1.02c-0.2-1.11,0.02,0.74,0.02,0.78c0.07,1.2,0.06,2.42,0.06,3.62
			c0,7.05,10.94,7.05,10.93,0c0-3.2,0.08-6.7-1.14-9.72c-1.75-4.32-5.19-6.63-9.85-6.8c-2.98-0.11-5.47,2.57-5.47,5.47
			C440.97,693.71,443.46,696,446.44,696.11L446.44,696.11z"/>
	</g>
	<g>
		<path d="M1248,922.76c9.47-0.42,19.28-6.26,25.98-12.66c5.11-4.88-2.64-12.6-7.73-7.73c-4.51,4.3-11.8,9.17-18.25,9.45
			C1240.97,912.14,1240.94,923.08,1248,922.76L1248,922.76z"/>
	</g>
	<g>
		<path d="M1275.63,933.82c7.9-0.01,14.56-1.56,20.45-7.13c5.13-4.85-2.61-12.57-7.73-7.73c-3.75,3.55-7.78,3.92-12.72,3.93
			C1268.58,922.89,1268.58,933.83,1275.63,933.82L1275.63,933.82z"/>
	</g>
	<g>
		<path d="M1259.05,961.46c9.13-0.01,18.91-0.69,25.98-7.13c5.22-4.76-2.53-12.47-7.73-7.73c-4.64,4.23-12.37,3.92-18.25,3.93
			C1252,950.53,1252,961.46,1259.05,961.46L1259.05,961.46z"/>
	</g>
	<g>
		<path d="M1285.03,987.5c5.83-5.19,16.58-3.92,23.77-3.93c7.05,0,7.05-10.94,0-10.93c-10.74,0.01-22.98-0.47-31.5,7.13
			C1272.02,984.46,1279.78,992.17,1285.03,987.5L1285.03,987.5z"/>
	</g>
	<g>
		<path d="M1314.33,950.4c5.53,0,11.06,0,16.58,0c7.05,0,7.05-10.93,0-10.93c-5.53,0-11.06,0-16.58,0
			C1307.28,939.47,1307.28,950.4,1314.33,950.4L1314.33,950.4z"/>
	</g>
	<g>
		<path d="M1308.8,917.23c7.37,0,14.74,0,22.11,0c7.05,0,7.05-10.93,0-10.93c-7.37,0-14.74,0-22.11,0
			C1301.75,906.3,1301.75,917.23,1308.8,917.23L1308.8,917.23z"/>
	</g>
	<g>
		<path d="M1353.03,939.35c3.68,0,7.37,0,11.05,0c7.05,0,7.05-10.93,0-10.93c-3.68,0-7.37,0-11.05,0
			C1345.98,928.41,1345.98,939.35,1353.03,939.35L1353.03,939.35z"/>
	</g>
	<g>
		<path d="M1347.44,978.1c0.03-0.72,0.03-0.79,0-0.19c-0.21,0.96,0.46-0.36-0.29,0.46c-0.56,0.38-0.57,0.41-0.04,0.08
			c-1,0.6,0.19-0.03,0.49-0.11c0.34-0.08,0.68-0.15,1.02-0.2c-1.11,0.2,0.73-0.02,0.78-0.02c1.21-0.07,2.42-0.06,3.63-0.06
			c7.05,0,7.05-10.94,0-10.93c-3.2,0-6.71-0.08-9.72,1.14c-4.32,1.75-6.63,5.19-6.8,9.85c-0.11,2.98,2.57,5.47,5.47,5.47
			C1345.04,983.57,1347.32,981.08,1347.44,978.1L1347.44,978.1z"/>
	</g>
</g>
</svg>
