<?xml version="1.0" encoding="UTF-8"?><svg id="a" xmlns="http://www.w3.org/2000/svg" width="2000" height="1999.9" viewBox="0 0 2000 1999.9"><path d="M1496.9,998.8c3.8,40.5-4.9,78.8-12.2,117.6-12.7,67.2-41.5,127.1-75.3,185.5-12.3,21.2-26,40.7-45.1,56.2-2.1,1.7-3.9,3.7-5.7,5.7-15.1,18.1-34,31.2-54,43.6-42.9,26.7-88.8,46.2-135.8,64.1-21.9,8.3-45.2,10.7-67.8,15.7-19.2,4.2-38.7,7.1-58.1,10.1-6.1,1-12.5,.7-18.8,.6-9.8,0-19.7-1.3-29.5-.5-34.4,2.8-67.7-4.4-101-11.2-10.5-2.2-21.1-3.6-31.5-5.9-19.3-4.2-37.6-11.5-56-18.5-44.6-16.9-87.8-37-126.6-64.4-33.5-23.7-62.6-52.9-84.8-88.5-25.7-41.3-46.1-84.9-63.1-130.3-6.9-18.5-12.1-37.2-15.4-56.8-4-23.8-9.9-47.2-13-71.2-1.4-10.7-2.5-21.2-2.1-32,.3-8.9,1.3-18,.4-26.8-3.3-34.5,5.8-67.5,11.1-101,8.4-53.7,29.6-103,53.1-151.3,11-22.5,24.4-43.8,37.8-65,6.2-9.7,14.9-17.8,22.7-26.5,3.6-4,8.3-7,11.7-11.1,29.5-35.5,70-55,109.7-75.7,7.1-3.7,14.6-6.8,21.9-10.3,47.1-22.9,97.4-35.2,148.6-44.5,21.2-3.8,42.4-6.5,64-5.3,16.1,.9,32.2-.4,48.3-.1,11.6,.2,23.4,.6,34.7,2.6,26.4,4.5,52.8,9.4,79,15.4,13.9,3.2,27.2,8.8,40.7,13.6,47.5,16.8,93,38.3,134.3,66.8,33.9,23.3,62.9,52.7,85.2,88.1,26.5,41.8,46.9,86.5,64.4,132.7,6.4,16.8,12.5,33.6,13.6,51.8,.2,3.5,1.3,7,2.2,10.5,10,38.3,16,77.1,12.3,116.2Zm-151.5-249.1c4.3-.6,9.7,1.2,10.8-5.6,2.6-.2,5.9,.5,7.8-.8,20.7-14.6,22.4-31.7,4.9-49-2.5-2.5-5.3-4.8-8.2-6.9-7.8-5.6-16.2-6.9-25.4-4-21.9,6.9-33.7,29.9-25.4,51.4,3.2,8.4,8.8,15.8,19.8,14.9,7.1,5.4,8.6,5.4,15.7,0Zm-96.2-96.2c-5.4,7.1-5.4,8.5,0,15.7-.4,3.7,.2,7,2.4,10.1,9.4,13.1,22.6,11.9,36.4,10.6,21.5-2,40.5-36,20.3-56-1.3-1.3-2.3-2.7-3.6-4-15.6-15.6-27.1-16-44.2-1.4-4.3,3.7-7,8.1-5.7,14.1-6.7,1.1-5,6.5-5.6,10.8Zm75.3,597.2c-7.1-.1-10.6,3.5-11.1,10.5-9.2,6.7-5.3,16.2-4.3,24.5,2.2,17.3,15.2,28.1,32.8,29.3,17.9,1.2,27.6-10.1,36-23.2,5.8-8.9,4.7-12.5-5.6-24.8-1-2.9-1.5-6-2.9-8.6-1.6-2.8-3.4-5.2-2.6-8.6,8.9-.4,17.9,0,26.7-1.3,7.9-1.2,15.5-3.8,20.5-11.3,8.5-12.8,7.2-36.4-3.1-47.7-4.4-4.8-9.6-8.2-16.2-8.5-7.2-.3-14.3-.4-21.5-.3-13.8,.3-24,6.5-29.4,19.5-5.6,13.3-2.5,25.8,8.1,36.9,4.9,5.1,12.9,6.3,15.8,13.6-5.6,.1-11.1,.2-16.7,.3-9.8-7-17.3-7-26.4-.2ZM748.2,674.3c6.8-9.1,6.7-16.7-.2-26.4,.1-5.6,.3-11.1,.4-16.6,7.7,3.6,9.5,12.4,15.5,17.6,16.5,14.4,41.1,11,50.3-8,7-14.3,5.6-29.7,1.4-44.5-1.7-6-6.9-10.4-12.8-13.1-5.8-2.7-11.8-3.9-18.2-4-22.5-.5-33,8.6-35,31.3-.6,7.1-.3,14.2-.5,21.4-3.4,.8-5.8-1.1-8.6-2.7-2.6-1.5-5.7-2-8.6-2.9-2.3-7.3-8.9-8.7-14.8-8.7-13.7,0-32.1,19.4-33.1,33.8-1.4,21,10.9,36.5,31.9,38.5,7.4,.7,16.1,4,21.9-4.6,6.9-.5,10.6-4,10.5-11.1Zm-214.7,361.2c-1.4,1-3.8,1.8-3.9,2.9-.8,7-1.5,14.1-1.4,21.1,.1,8.7,4.6,15.6,11.9,19.7,13.8,7.7,28.3,10.5,43.1,2.3,12.2-6.7,23.2-16.4,22.5-30.7-.8-15.7-5.4-31.8-24-37.5-7.4-8.5-16.4-9.7-25.8-4.4-10.6,6-22.7,11.2-22.4,26.5Zm429.7,429.7c15.4,.3,20.5-11.8,26.5-22.4,5.3-9.4,4.1-18.4-4.4-25.8-2.7-13.5-14.1-16.9-24.6-21.6-12.1-5.5-22.5-2.8-31.9,5.7-6,5.4-10.7,11.5-13.6,19.4-10.3,28.1,5.1,50.6,34.6,49.9,3.5,0,7.1-.3,10.5-1.2,1.2-.3,2-2.6,2.9-3.9Zm64.1-870.4c5.8,6.2,13.3,8.6,21.5,9.3,6.3,.5,12.4-.5,17.9-4.1,19.7-12.9,26.1-37.8,15.4-58.9-4-7.8-10.5-13.2-18.3-14.2-10.3-1.3-21.3-2-31,3.4-10.2,5.7-19.5,12.6-20.6,25.7-4.4,2.4-5.6,6.7-4.7,10.9,2.6,12,7.1,22.9,19.9,27.8Zm376.6,376.6c4.9,12.8,15.8,17.3,27.8,19.9,4.2,.9,8.5-.3,10.9-4.7,13.2-1.1,20-10.5,25.7-20.6,5.4-9.6,4.3-20.6,3.5-31-.5-6-4.7-11.5-9.7-15.5-13.7-10.9-37.6-10.4-52.5,1-15.9,12.2-18.8,24.6-10.4,44.7,1,2.3,3.1,4.2,4.7,6.3Zm44,42.2c-2.8-7.2-9.8-6.3-16.5-8.6-5.5,2.7-12.4,5-18.1,8.9-13.9,9.8-22.1,30.3-17.5,44.4,5.1,15.9,17.9,24.3,33.3,27.3,13.4,2.6,26.5-.7,36.4-11.2,5-5.2,9.1-11.9,7.2-19.2-2.2-8.6,3.7-20.2-8.7-25.2-.4-10.3-6.8-14.7-16-16.3Zm-479.1-478.8c-.8-1.5-1.2-3.5-2.3-4.3-8.7-5.6-18.7-4.8-28.1-4.1-9.1,.6-16.3,6.7-20.6,15.1-9.2,17.8-6.3,36.9,7.4,51.4,11.4,12,23,14.3,38.6,8.1,16.2-6.3,25.9-17.9,29.9-36.3-4-3.2-.8-11.4-8.5-13.9-1.6-9.2-6-15.6-16.3-16Zm-393.2,452.4c17-2.2,22.4-15.3,28.3-28.8,4.1-9.5,2.4-17.7-2.2-25.7-12-20.7-40.7-27.5-61.2-14.9-5.6,3.5-9.4,8.5-11.3,14.6-7.7,24.8,7.8,52.1,33.4,58.6,5.2,1.3,10.8,1,14.1-4.7l-1.1,.9Zm533.7-415.4c-.8,.4-1.9,.7-2.3,1.4-8,16.5-4,31.3,7.3,44.4,15.1,17.6,35.5,16.8,50.8-.6,5.2-5.9,6.2-15.1,14.5-18.5,.3,3.5,.9,7,1,10.6,.2,6.2-.5,12.5,.5,18.6,2.4,16,12.3,26.6,26.8,29.4,14.9,2.9,25.8-3.8,34.2-15.4,9-12.5,8.5-26.5,6.4-40.9-1.7-11.1-8.8-18-18.8-20.1-16-3.3-32.1-3-43.5,12-2.1,2.8-3.3,6.3-7.4,6.9-.5-7.9-1.1-15.7-1.6-23.6-.7-11.7-6.2-19.9-17.3-24-4.1-1.5-8.2-3-11.4-4.2-5.4,1.1-9.6,2.3-13.9,2.9-13.6,1.7-22.2,9.2-26.1,22.2l.9-1Zm316.6,318.6c21.3-6.1,22.7-23.9,24.6-41.5-.6-1.6-1.3-3.2-1.7-4.9-4.4-15.8-14.6-23.1-31.1-22.6-6.1,.2-12.2-.9-18.3-1.5,1.5-2,2.7-4.6,4.6-5.9,16.3-10.3,16.6-26.3,14.8-42.5-1.2-10.9-10-18.8-21-21.2-9.7-2-19.5-2-29,.5-22.9,6.1-34.1,30.6-23.4,50.1,6.2,11.2,16.5,15.8,28.5,17.1,8.8,1,17.7,.7,26.5,1-3.9,8.8-13.9,9.9-20.2,15.9-11.9,11.4-15.1,24.3-8.3,38,9.5,19.1,32,27,53.7,18.7,.6-.2,.9-1.5,1.3-2.2l-1.1,.9Zm-413.4,531.7c-1.6,2-4.3,4-4.5,6.1-.3,4.3-.2,9.1,1.4,13,9.5,22.7,30.3,33.6,54.3,28.9,7.4-1.4,13.2-5.5,17.1-11.9,12.7-20.4,5.8-49.2-14.9-61.2-4.5-2.6-10.2-4.8-15.2-4.4-9.9,.7-19.2,4.4-27.1,10.6-6.4,5-12.3,10.7-12.1,19.8l.9-1.1Zm-264.2-69.8c6.6-4.2,4.8-11,4.8-16.9,0-13.8-7.5-24.7-19.9-28.1-13.9-3.8-26.9,0-37.5,8.7-11.3,9.2-15.1,22.9-10.3,36.4,4.9,13.8,15.2,24.1,30.6,26.7,4.2,.7,9.1,.5,10.5-5.3,13.9-.4,20-8.7,21.8-21.4Zm-123.2-80c-4.3,.9-5.5,4.2-5.3,7.8,.6,15.5,16.8,32.9,31.8,34.5,20.4,2.1,35.2-9.4,40.1-30.6,3.1-13.4,.1-24.6-10.8-33.5-8.6-7-19.4-7-34.3,0-12.7,1.8-21.1,7.9-21.4,21.8Zm629.5,85.9l-.9-1c4,13.8,14.4,20,27.5,21.7,12.1,1.6,19.4-7.2,26.9-14.8,1.2-1.3,2.2-2.8,3.2-4.2,10.3-15.2,3.9-40.2-12.5-48.5-16.9-8.6-34.1-7.1-44.6,3.9-9.7,10.2-13.3,24.2-1.8,41.4,.5,.7,1.4,1,2.2,1.5ZM641.3,745.1l-1-.9c3.6,6.1,10.3,7,16,8.5,14.8,3.8,32.1-6.1,35.1-21.3,4.8-24.8-7.3-47.1-35-49.3-15.4-1.2-36.2,17.8-36.8,32.9,0,2.6-.2,5.6,.8,7.9,4.2,10,8.9,19.7,20.9,22.3Zm359.3-113.5c-19.7,0-39.4-.2-59.2,0-7.1,.1-14.7,0-21.2,2.3-15.2,5.3-30.4,10.3-44.5,18.7-19.2,11.4-39,22.5-59.6,31-17.5,7.2-34,15.4-50,25.4-12.5,7.8-20.9,19.6-31.8,28-19.5,15-27.5,37-40.9,55.7-10.6,31.6-27.6,60.1-43.4,89.2-12.1,22.2-19.6,45.7-18.4,71.9,1.2,28.6,1.2,57.4,0,86-1.3,29.8,7.3,56.4,21.7,81.8,14.5,25.7,28.4,51.7,39,79.5,7.6,20,19.9,38.1,35.1,53.5,5.6,5.7,11.8,10.5,16.8,16.9,3.8,4.8,9,8.8,14.3,12.1,18.2,11.3,35.5,24.2,56.7,30,6.8,1.8,13.1,5.6,19.5,9,15.8,8.4,31.3,17.4,47.2,25.6,22.4,11.6,45.6,19.9,71.7,19.1,33.2-1.1,66.3-.2,99.5-.3,8,0,16.2,.7,23.9-2.2,15.9-5.9,32.1-10.8,47-19.6,19.3-11.3,39.1-22.1,59.6-30.8,17.3-7.4,33.6-16,50-25.5,19.2-11.1,30.8-29.4,47.4-42.7,2-1.6,3.3-4.3,4.6-6.6,11-18.4,23.9-35.7,29.4-57,1.8-6.8,5.9-13,9.3-19.3,8.5-15.8,17.7-31.2,25.7-47.2,10.6-20.9,18.4-42.3,17.5-66.7-1.1-32.2-1.2-64.6,0-96.8,1.1-28.1-7.6-52.6-20.8-76.5-11.2-20.4-22.7-40.8-32-62.1-7.1-16.5-14.2-32.5-24.1-47.7-8.5-13-19.9-22.7-29.6-34-16.3-19.1-36.9-31.7-58.8-40.8-27.4-11.4-53.5-25-79.4-39.3-23.9-13.2-48.5-22.6-76.5-20.8-15.2,1-30.5,.2-45.7,.2Zm219.3,785.2s4.5,.6,8.9-.1c7.3-1.2,13.4-5.2,17-11.8,7.8-14.4,4.3-40.6-6.7-53-17.5-19.6-46.5-14.3-56,10.2-2.7,6.9-2.7,13.8-2.6,21,.4,22.5,14,36.2,39.5,33.6ZM614.3,749c-24.4,.5-33.1,9.8-32.6,34.9,0,2.7,0,5.4,.3,8,.8,10.8,6.5,18.6,16.2,22.6,14.6,6.1,29.4,5.9,44-1,13.9-6.6,22-28,12.8-43.7-9.2-15.7-23.6-20.6-40.6-20.8Zm832,374.4c-2.9-3.4-5.1-6.2-7.7-8.7-15-14.5-30.6-17.1-48.7-8-20.2,10.2-33.5,39-6.1,58.5,2.9,2.1,5.9,4.1,9.1,5.7,12.7,6.6,26.3,5.1,39.4,2.6,10.9-2.1,14.1-12.7,17.3-22.1,.6-1.7,.8-3.4,1.1-4.5-1.4-7.7-2.7-14.7-4.3-23.6ZM850.7,548c-3.4,1.3-5.8,2.4-8.4,3.2-14.1,4.5-19.6,14.4-18.6,28.7,.2,2.7,.1,5.4,0,8-.5,15.8,7.8,27.1,19.2,36.6,7.4,6.2,16.2,7.3,25.3,4.7,15.6-4.4,27.2-19.9,28.9-38.3,1.4-15.5-8.5-31.6-23.7-38.7-7-1.3-14-2.6-22.8-4.2Zm-32.5,832.1h0c0-3.6,.4-7.2,0-10.7-1.7-13.4-8-22.9-21.5-27.6-13.6-4.8-24.7-.7-34.1,8.5-10,9.8-14,22.5-13,36.6,1.5,21.2,11.2,30.1,32.5,30.2,2.7,0,5.3,0,8,0,18-1.2,27.2-10.6,28.2-28.9,.2-2.7,0-5.3,0-8Zm-196.7-199.7c-21.1,0-25.9,1.6-32.8,9.3-9.1,10.2-10.3,36.5-2.1,47.7,1.5,2.1,3.3,4.3,5.4,5.8,19.6,13,51.6,4.7,63.1-16,9.6-17.3-.3-41.7-21.2-46-5.2-1.1-10.6-.8-12.5-.9Zm-41.5-5.8c5.4,0,10.8,.6,16-.1,17.3-2.3,33.5-17.7,34.6-32.5,1.1-14.8-5-26.5-17.7-33.5-13.7-7.6-28.7-11.4-43-1.7-12.4,8.4-19.8,19.9-20,35.8-.3,20.2,10.1,31.9,30.1,32.1Zm243.4,236.6c.4,8.4-.1,13,1.1,17.2,1.2,4.1,3.3,8.5,6.4,11.3,12.8,11.6,36,11.9,49.5,1.2,21.6-17.1,22.5-46.6,1.9-64.8-13.5-12-33.7-11.2-45.6,2.3-9.1,10.3-15.2,22.1-13.3,32.7Zm-239-589.6c-13.1-.1-20,2-25.2,7.5-10.6,11.3-12.3,34.4-3.5,47.4,15.2,22.6,45.1,25.7,64.8,6.7,14.8-14.3,14-36-2.1-49.3-10-8.2-21.1-13.3-33.9-12.4Zm592.7,593.1c1.4-13.9-4.9-26.5-14.9-37.3-10.5-11.4-29.2-12.7-41.6-3.7-14.2,10.3-21.2,30.9-16.2,47.9,3.9,13.4,20.3,25.3,36.6,26.8,22.6,2,35.9-9.8,36.1-33.6Z" fill="#d4c7bf" fill-rule="evenodd"/><path d="M316.3,985.6c-22.8-2.2-43.2-11.6-63.8-20.1-30.6-12.6-61.6-24.2-89.6-42.4-13.6-8.8-26.5-18.2-38-29.7-34.8-34.8-70-69.3-103-105.8-7.6-8.4-15.7-16.5-21.8-28.4,11,0,19.8-.3,28.5,0,24.2,1,48.1-.6,72.2-4.2,42.6-6.4,84-17.8,125.3-29.4,34.4-9.6,67.2-6.4,99.4,7.7,9.2,4.1,16.9,9.8,22.1,17.8-1.6,5-5.2,5.2-8.6,6-14.8,3.5-29.6,6.8-44.3,10.8-6.2,1.7-11.8,1.7-18.2,.4-19.5-3.9-39.1-3.9-58.4,2.2-8.5,2.7-17.2,4.9-25.8,7.3-31.4,8.8-63.8,7.8-95.9,9.7-9.4,.6-18.9-.8-28.4,1.4,.6,2.2,.7,3.7,1.2,3.9,22.1,8.9,38.8,24.7,55.8,40.8,33.1,31.4,68.1,60.6,106.8,85.1,3.7,2.4,8.3,4.2,11,7.5,19,23.7,44.3,38.6,70.4,52.7,1.6,.9,3,2,4.3,3.2,.6,.5,1.3,1.7,1,2.1-.4,.7-1.4,1-2.1,1.3Z" fill="#d4c7bf" fill-rule="evenodd"/><path d="M1015.2,1679.2c7.1,11.8,13.8,23.3,20.9,34.5,4.8,7.5,9,16.2,15.6,21.7,21.7,18.2,34.3,43.3,51.3,64.9,22.7,28.8,45.3,57.6,71.5,83.4,12.2,12,23,25,28.7,41.6,.8,2.4,1.9,5.2,5.8,4.9,3.2-3.2,2-7.7,2.1-11.8,.9-22.4,1.6-44.7,2.6-67.1,.9-18.9,4.7-37.2,10.5-55.2,8-25,12-50.4,5.6-76.6-.8-3.3-1.1-7.1-.3-10.4,4.5-19.1,9.3-38,13.9-56.4,6.7-2.1,9.2,2.3,11.8,5.3,12.7,14.7,18.5,32.9,21.3,51.4,3.3,22.1,2.5,44-4.2,66.3-13.5,44.5-24.6,89.7-30.9,135.9-2.6,18.7-2.8,37.5-2,56.3,.4,9.6,.6,19.2,.9,32-12.6-7.8-21-15.5-29.4-23.1-35.2-31.9-68.1-66.1-102.1-99.2-22.2-21.7-38.3-47.4-51.4-74.9-13.1-27.4-23.8-56-35.2-84.2-2.7-6.6-4.5-13.6-5.6-20.6-.9-5.9-6.1-11.5-1.5-18.7Z" fill="#d4c7bf" fill-rule="evenodd"/><path d="M905.2,212.5c-.2-6.9-5.2-11.3-9-16.1-21.5-27.5-42.8-55.2-67.9-79.6-13.6-13.2-25.6-27.6-32.6-45.6-.4-1.2-2.5-1.8-3.9-2.7-5.4,2.3-4,7.5-4.2,11.5-.6,17.9-1.3,35.9-1,53.8,.4,22.7-4,44.4-10.3,66-3.3,11.1-6.8,22.4-8.4,33.8-1.5,10.5-3.3,22.1-.4,31.9,4.4,14.8,1.9,28.2-1.7,42.1-3.1,12.1-6,24.2-8.8,35.8-5.8,3.7-9.1,0-11.9-3.2-15-17.8-21.1-39.3-23.4-61.8-2-19.6,.3-38.8,6.2-58.2,12.5-41.9,24.4-84.3,29.3-128,2.3-20.4,1.7-41.1,2.3-61.7,.3-9.8,0-19.5,0-28.8,5-2.3,7.6,.2,10.1,2.5,25.6,23.7,51.4,47.3,76.8,71.3,15.6,14.8,30.1,30.7,45.7,45.6,22.4,21.4,38.1,47.5,51,75.2,12.1,26,22.5,52.7,33.2,79.2,4.9,12.2,9.6,24.6,8.3,42.3-7.5-12.4-12.7-21.4-18.4-30.2-10.2-15.8-20.4-31.7-35.8-43.3-6-4.5-8.5-11.4-12.7-17.2-4-5.6-5.6-13.5-13.6-15.7l1,1Z" fill="#d4c7bf" fill-rule="evenodd"/><path d="M1787.6,1094.8c-.2-.9-.2-2.2-.8-2.5-20.7-12.6-36.7-30.9-55.5-45.7-14.7-11.4-31-20.7-46.7-30.9,3.9-4,8.5-2,12.6-1.2,17.7,3.4,34,11.1,50.5,17.9,29.7,12.3,60,23.5,87.4,41,14.4,9.2,28.1,19,40.3,31.1,34.9,34.8,69.9,69.4,103.1,105.9,7.6,8.3,16,16.2,21.4,29.1-20.8,0-39.5,.7-58.1-.2-26.3-1.2-51.8,4.3-77.1,9.4-31.5,6.4-62.6,15.2-93.5,24.3-21.3,6.3-42.5,5.9-63.7,2.1-11.3-2-22.3-6.7-33-11-9-3.7-17.5-8.6-21-18.5,1.4-1.8,2.2-4,3.5-4.3,15.6-4,31.3-7.6,46.9-11.5,6.2-1.6,12.4-3,18.5-.9,22.5,7.7,44.8,3.6,66-3.3,31.1-10.2,62.6-14.5,95.1-13.8,12.5,.3,25.1-.3,37.6-.9,3.2-.1,7.3,.6,9-3.8-.7-1.4-1.1-3.6-2.2-4-18-6.9-32.4-18.9-45.6-32.4-24.5-25.1-52.1-46.4-79.6-67.9-4.8-3.8-9.2-8.8-16.1-8.9l1.1,.9Z" fill="#d4c7bf" fill-rule="evenodd"/><path d="M909.6,1778.1c5.1-.9,6.6-5.6,9.2-9,3.7-5,6.5-11,11.2-14.9,19.8-16.4,32.6-38,45.7-59.4,2.2-3.7,3.1-8.4,8.3-10.7,3.8,11.4-1.6,21.8-5.2,31.2-11.6,31-23.5,62.1-38.1,91.8-13.1,26.4-29.4,51-51.1,72-33.4,32.5-66,65.8-100.1,97.5-8.5,7.9-17.7,14.6-26.9,21.8-5.2-8.6-3.6-15.9-3.2-22.7,3.3-55.3-6.6-108.8-21.4-161.6-4.8-17.2-10.9-34.2-14.4-51.7-7-35.6-1.6-69.5,17.9-100.6,2.6-4.1,5.5-9.5,11.9-9.4,3,.8,4.6,2.6,5.2,5.5,2.5,11.4,4.5,22.8,7.7,34,3.6,13.1,5.1,25.6,1.4,39.5-4.9,18.6-.5,37.7,5.5,55.5,10.5,31,14.6,62.6,13.9,95.1-.3,16,.7,32.1,1,47.4,4.6,1.8,6.9,.6,7.8-2.1,5.8-17.6,17.4-31.2,30.2-43.9,28.6-28.5,53.3-60.3,78.1-92.1,3.3-4.2,6.8-8.4,6.5-14.3l-.9,1.1Z" fill="#d4c7bf" fill-rule="evenodd"/><path d="M221.9,1088.2c-15.8,3.2-25.9,15.5-37.6,24.7-26.1,20.4-51.5,41.6-74.6,65.5-11.8,12.2-26.3,20.7-41.5,26.7-.2,5,2.8,5.5,5.3,5.5,20.6,.7,41.2,1.7,61.8,1.4,22.7-.3,44.4,4.3,66,10.5,10.3,3,20.9,5.2,31.2,7.9,11.5,3.1,23.6,3.8,34.6,.7,13.8-3.9,26.3-2.5,39.5,1.3,11.2,3.2,22.7,5.2,34.1,7.6,2.8,.6,4.9,2,5.9,6.4-2.6,6.8-8.9,11.6-16,15.1-33.3,16.5-67.6,21.5-104.1,10.7-44.6-13.3-89.6-25.6-135.9-31.1-19.5-2.3-39.4-1.5-59.1-1.8-9.7-.1-19.4,.9-30.5-.9,5.1-12.1,13.3-20.4,21-28.8,32.8-35.6,67.5-69.4,101.3-103.9,20.4-20.9,44.8-36,70.5-48.5,28.1-13.7,57.6-24.7,86.8-36.2,9.1-3.6,19-5,28.5-7.1,1.5-.3,3.3,1,6.2,2-11.7,7.4-23,14.2-33.8,21.6-8.8,6.1-17.9,12.2-25.4,19.7-10.1,10.2-20,20.4-32.7,27.5-1.3,.7-1.7,2.9-2.5,4.4l1-.8Z" fill="#d4c7bf" fill-rule="evenodd"/><path d="M1017,308.3c-1.5-10.1,1-19.5,4.8-28.8,11.7-28.1,22.3-56.7,35.3-84.2,13.1-27.5,28.9-53.5,51.4-74.9,18.2-17.3,34.6-36.3,52.8-53.6,22.7-21.6,46.4-42.2,69.7-63.1,1.9-1.7,4.5-2.6,6.5-3.7,4.9,2.4,2.6,6.2,2.6,9.3-.2,17-1.6,34.1-.6,51,2.4,41.2,11.1,81.5,21.7,121.3,4.4,16.4,10,32.5,13.8,49.1,7.9,34.4,3.9,67.7-12.5,99.1-3.7,7-8.3,13.8-18.7,15.7-4.8-19-9.5-38-14.4-56.9-1.2-4.7,.2-8.7,1-13.1,3.8-19.6,3.6-39.2-2.2-58.5-2.6-8.6-4.7-17.3-7.2-25.9-9-31.4-8-63.8-9.9-96-.5-9.7-.5-19.4-.7-29.2-4.5,.5-6.2,2.7-7,5.3-5,15.9-15.1,28.5-26.6,39.9-28.7,28.4-53.6,60-78.2,91.9-3.8,4.9-7.5,10-10.9,15.3-8.1,12.8-16.7,25.1-28.2,35.5-8.5,7.7-14.7,17.9-21.6,27.3-6.8,9.2-13.2,18.8-19.7,28.2l-1.2-1.1Z" fill="#d4c7bf" fill-rule="evenodd"/><path d="M1689.5,980.6c6.2-8.1,15.9-11,23.9-16.6,14.6-10.3,29.6-20.2,41.2-34.3,3.3-4,8-7.1,12.4-9.9,41.6-26.7,79.3-58.2,114.8-92.4,14.3-13.8,28.9-26.8,48.1-33.5,1.3-.4,1.9-2.8,2.8-4.3-4.9-3.2-10.4-1.8-15.7-2-22.4-1-44.7-1.5-67.1-2.8-18.9-1-37.1-5.5-55.1-11.2-24.2-7.7-48.9-11-74.1-4.8-3.3,.8-7.1,1-10.4,.2-19-4.5-38-9.4-57.5-14.3,3-11.1,10.6-16.1,18.5-19.9,31.8-15.4,65-19.2,99.3-10.4,24.3,6.2,48.3,13.3,72.6,19.3,48,11.9,96.5,19.2,146.2,14.8,2.6-.2,5.2,0,7.8,0,2.7,4,0,6.7-2.2,9.2-23.6,25.6-47.2,51.4-71.2,76.8-14.2,15-29.6,28.7-43.7,43.7-23.1,24.7-51.3,41.8-81.7,55.5-25.3,11.5-51.1,21.6-76.7,32.2-10,4.2-20.2,7.5-31.3,5.7l-1-1.2Z" fill="#d4c7bf" fill-rule="evenodd"/><path d="M527.4,464.9c5.3,15.1,10.6,30.2,15.8,45.3,1.4,4.1,2.3,8.5,3.4,12.5-4.3,3.1-7.4,.7-9.8-1.6-14.9-14.3-28.2-29.6-37.9-48.3-19.8-38-29.7-79-34.8-120.7-3.4-27.7-9.6-54.6-14.3-81.8-4.1-23.6-7-47.6-16.8-70.6,26.3,1.3,76.8,10.6,101.1,19.8,36.8,13.8,74,27.1,106.4,50.6,13.2,9.5,26,18.9,34.5,33.3,5.4,9.1,15.1,15.2,18.8,24.5-1.6,4.7-4.1,4.1-6.6,3.2-18.4-6.8-36.5-13.8-52.4-26.3-10.5-8.2-22.9-14-36.2-17.3-24.6-6-46.9-17.5-68.6-30-17.1-9.8-34.8-18.5-53.3-25.4-3.6-1.3-6.9-1.5-10.4,3.7,1.9,6,6,11,12.9,13.8l-.4-.8c5.9,21.2,13.8,42,13.3,64.6,0,4.2,2.2,8.5,3.1,12.8,2.2,10.4,4.7,20.7,6.2,31.2,4,26.1,6.2,52.6,13.3,78.2,1.8,6.5,1.3,14.4,8,19l-.8-1.3c.2,5,.1,10,6.1,12l-.7-.4Z" fill="#d4c7bf" fill-rule="evenodd"/><path d="M1749.2,1519.6c1.4,2.2,2.5,4.6,4.3,6.4,2.5,2.5,5.4,4.5,7.9,6.5,6.4-1.8,7.4-5.7,5.3-10.4-6.6-14.7-12.5-29.7-20.3-43.8-14.6-26.8-28.8-53.4-36.8-83.2-3.4-12.7-10.1-25.4-18.6-35.5-13.2-15.7-16.8-34.8-24.9-52.6,3-.7,5.2-1.9,6.1-1.2,12.2,9.1,24.6,17.9,36.1,27.8,6.7,5.8,12.3,13,17.3,20.4,35.2,51.9,57.5,109,68.1,170.8,2.1,12.3,4.8,24.6,7.2,36.7-1.7,1.1-3.4,2.9-4.3,2.6-32.5-10.4-66.5-13.9-99.6-21.3-16.6-3.7-33.5-5.5-50.3-7.8-43.5-6.1-86.4-15.9-125.4-37.5-18.9-10.5-35.3-23.9-48.2-42.6,14.6,.2,28.3,3.5,43.4,10.6,5.6,2.6,10.6,6.9,17.4,6l-.4-.7c2,6,7,5.9,12,6.1l-1.3-.8c1.2,1.2,2.3,3.1,3.8,3.5,20.4,5.5,40.7,11,62,13.6,21.8,2.6,44.2,3.2,65.2,11.3,3.3,1.2,6.9,2.4,10.3,2.3,22.6-.6,43.4,7.4,64.6,13.2l-.8-.3Z" fill="#d4c7bf" fill-rule="evenodd"/><path d="M489.3,1757c7.5,.6,14-2.2,20.3-5.8,8.5-4.9,17.2-9.6,25.8-14.2,18.9-10.1,38-19.9,58.9-25.3,14.8-3.9,29.2-9.7,41.1-19.2,16.5-13.1,35.5-20,55.1-26.4,4.6,2.7,2.2,6.1,.4,8.6-8,10.7-16.1,21.4-24.6,31.7-6.3,7.6-14.2,13.4-22.5,19-53.6,36-112.6,57.7-176,68.6-5.3,.9-10.7,1.4-15.9,2.6-5.1,1.1-10,4.2-15.5,1.8-2-1-2.4-2.4-1.6-4.5,8.9-23.6,11.8-48.6,16.3-73.1,4.6-25.4,10-50.6,13.1-76.4,5-41.6,15.2-82.5,35.1-120.3,9.4-17.7,22.4-32.2,36-46.4,2.3-2.4,5.6-4.3,11-3-2.5,9.2-4.7,18.5-7.6,27.5-1.9,5.9-4.5,11.7-7.5,17.1-15.5,27.9-20.3,58.7-25.1,89.6-3.3,21.1-3.9,42.8-11,63.2-2.1,6-3,12.1-3.3,18.3-1,24.6-6.9,47.7-22.8,67.3-.9,1.1-.3,3.3-.5,6.3,9.4,3.5,16.3,.2,21.9-7.8l-1,.8Z" fill="#d4c7bf" fill-rule="evenodd"/><path d="M242.5,1508.5c-7.9,5.6-11.4,12.4-7.4,22.7,3.6-1.1,6.6-1.2,8.4-2.7,18.1-15.2,39.9-19.3,62.5-21.4,6.2-.6,12.7-.6,18.4-2.7,19.6-7.4,40.4-8.7,60.7-10.9,19.8-2.1,38.5-7.5,57.8-11.2,9.8-1.8,19.1-5.1,27.6-10.2,16.4-9.8,34.5-14.8,52.7-19.7,4.3,5.2,.2,9.1-2.5,11.7-14.3,13.5-28.7,26.8-46.7,35.8-41.5,20.8-85.7,30.4-131.3,36.1-23.9,3-47.5,8.4-71.2,13-23.4,4.5-47.3,7.2-69.4,16.3-1.4-3.8-2.8-5.5-2.5-7,3.5-19.4,6.4-38.9,11.2-58,13.2-52.4,32.6-102.3,63.7-147.1,6.2-8.9,13.1-17,21.5-23.9,8.3-6.8,16.7-13.4,25.3-19.8,2.7-2,6.1-3,9.8-4.8-3.9,23-7.8,33.3-17.4,46.9-10.4,14.7-20.1,29.9-24.8,47.4-7.4,27-20,51.6-33.5,75.9-5.9,10.7-14.6,20.9-13.6,34.5l.7-1Z" fill="#d4c7bf" fill-rule="evenodd"/><path d="M295.8,609.5c-.4,10.7,5.6,19,11.7,26.4,13.4,16.3,18.6,35.9,25.9,54-2.9,4.9-5.7,2.4-7.4,1.1-11.4-8.5-22.8-17.1-33.8-26.2-7.6-6.3-13.4-14.2-19-22.5-36.1-53.5-57.6-112.6-68.5-175.8-1.7-9.6-3.3-19.3-4.8-29,0-.7,.7-1.5,1.2-2.4,5.4-3.4,9.8,1.3,14.8,2,4.4,.7,8.5,2.8,12.9,3.6,22.8,4.4,45.8,7.8,68.4,13,39.2,8.9,79.7,10.1,118.3,21.3,36.3,10.6,71,24.5,98.6,51.7,2.6,2.5,5.2,5,7.3,7.8,1.6,2.1,2.5,4.6,3.8,7.1-11.5,1.1-17.1,.3-32.4-5.7-9.9-3.9-19.6-8.4-29.4-12.6l.4,.7c-2.1-1.6-4-4.1-6.3-4.6-26-6-51.3-15.5-78.5-16.3-6.2-.2-12.4-1.6-18.7-2.2-21.3-1.9-41.6-8.9-63.1-10.8-20-1.8-40.5-8-56.2-23-1-1-3.3-.6-5-.9-4.1,11.3-2.7,15.5,12.2,36.6l-.8-1.2c-1.2,7.7,3.8,13.5,7.2,19.4,14.4,25.3,27.2,51.1,35,79.3,1.1,4,1.8,8.8,7.1,10.1l-1-1.1Z" fill="#d4c7bf" fill-rule="evenodd"/><path d="M1475.3,1535.4c-7.2-18.2-16.5-35.6-20.5-55-.3-1.6,.2-3.4,.4-5.2,3.9-3,6.8,.2,8.9,2.3,14.7,14.4,28.3,29.6,37.5,48.4,19.2,39,29.3,80.2,34.4,123.1,2.4,20.3,6,40.6,10.4,60.6,6.4,28.7,8.6,58.4,19.2,85.4-3.7,5.7-8.2,4.1-12.4,3.3-10.5-2-20.9-4.8-31.5-6.3-42.1-6-80.7-22.6-119.2-39.1-19.8-8.5-37.2-21.3-54.9-33.4-2.9-2-5.8-4.4-8-7.1-11.8-14.4-23.4-29-34.8-43.1,3-4,5.4-3.6,8.1-2.6,18.2,7.1,36.7,13.4,52.2,26.1,6.8,5.5,14.5,10.7,24.1,10.3l-1.1-.9c1.4,5.2,6.2,5.9,10.2,7.1,28.2,7.8,54,20.6,79.3,35,5.8,3.3,11.7,8.3,19.4,7.1l-1.2-.8c8.3,8.6,19.1,12.3,30.1,15.4,3.5,1,6.8-1.3,6.7-6.5-17.8-21.1-24.6-46.5-25.6-74-.2-4.4-.8-9-2.2-13.1-6.1-17.9-8-36.7-9.5-55.3-2.1-27-10-52.5-17.2-78.2-.4-1.5-2.3-2.6-3.6-3.8l.7,.4Z" fill="#d4c7bf" fill-rule="evenodd"/><path d="M1668.3,690.4c4.3-18.2,9.8-35.6,21.8-50.8,10-12.5,17.4-27,21.3-42.9,6.1-24.5,17.5-46.7,29.9-68.3,9.8-17,18.2-34.7,25.3-53,1.5-3.8,.7-6.8-2.7-9.1-1.7,.1-4-.4-5,.5-19.7,17.7-44,22-69,24.7-5.8,.6-12.9-1.9-16.3,5.7l1-.8c-37.8,4.2-75.7,7.5-112.5,17.3-8.2,2.2-17.8,1.8-23.2,10.4l.6-.9c-7.6-.2-13.6,3.8-19.9,7.2-13.4,7.1-27.6,11.3-42.5,12.9-2.2-6.1,1.3-9.5,4.3-12.3,15.2-13.9,30.6-27.1,49.7-36.1,37.7-17.8,77.4-27.1,118.5-32.4,23.9-3.1,47.6-7.6,71.2-12.4,26-5.3,52.6-7.9,78.3-18.5-2,31.8-10.9,77.4-20.9,104-13.8,36.9-27.7,73.7-51.1,106.1-8.5,11.7-17.3,22.7-29.5,30.8-6,3.9-11.1,8.9-16.6,13.5-3.5,2.9-7.1,5.5-12,4.9l-.6-.6Z" fill="#d4c7bf" fill-rule="evenodd"/><path d="M1501.4,325.1c5.2-2,5.3-6.5,5.6-10.9,.6-8.8,.4-17.5,2.8-26.4,4.8-18.3,9.8-36.1,23.3-48.9-1.3-7.2-4.9-8.9-9.8-6.7-15.4,6.9-31.3,13.1-46,21.4-25.7,14.5-51.8,27.6-80.5,35.3-13.8,3.7-26.8,10.7-37.8,19.7-15,12.3-32.5,17.6-50.7,21.9l-.6-.6c0-.9-.5-2.1,0-2.6,13.3-18.9,24.8-39,44.7-52.5,52.6-35.7,110.3-58.7,172.9-69.6,12.3-2.1,24.6-4.6,37-6.8,.6-.1,1.3,1,2.6,1.9-3.4,15.1-7.2,30.6-10.3,46.1-6.3,31.5-14.1,62.9-17.7,94.8-2.8,25.1-7.2,49.6-13.6,73.7-9.7,36.6-24.4,71.2-51.9,98.7-4.1,4.1-7.5,10.2-16.1,8.3,1.6-15.1,5.9-29.3,12.9-42.7,3.3-6.3,7.4-12.3,7.1-20l-.9,.6c1.4-1,3.7-1.7,4-2.9,5.5-20.5,12.1-40.8,15.7-61.6,4.1-23.5,5.5-47.4,8.1-71.2l-.8,1Z" fill="#d4c7bf" fill-rule="evenodd"/><path d="M241.8,1509.6c.8-.3,2.1-.4,2.4-1,13.1-24,26.8-47.8,39-72.3,5.5-11,8.4-23.3,12-35.2,4.2-13.6,10.7-25.8,21.3-38.4,4.9,14.5,9,27,12.8,38.2-1.8,11.3-11.9,17.3-11.9,27.8l.9-1.2c-6.3,1.8-5.5,7.3-6.3,11.9l.8-1.3c-9,12.7-8.4,28-12.9,42.5,9.7,1.4,13.8-4.7,18.5-9.6l-1.1,.5c6.2-.8,12.8-.6,17.3-6.1l-1.1,.6c18,1.4,34.9-5.2,52.3-8.2,4.3-.7,8.4-3,12.9-1.2,19.3,7.5,39.5,9.7,60.5,9.5-2.6,7.2-7.5,8.8-12.7,10.1-31.9,7.9-64.6,11-96.9,16.5-34.7,5.9-70.4,7.9-102.7,23.4-1.7-3.1-3-5.4-4.3-7.7l-.7,1Z" fill="#d4c7bf" fill-rule="evenodd"/><path d="M490.3,1756.2c-2.3-1.2-4.6-2.5-7.5-4.1,9.2-23,15.6-46.6,17.3-71.7,.8-12.1,5.5-24,7-36.4,1.8-14.1,4.2-28.1,4.6-42.4,.1-4.4,1.5-8.7,2.5-13,2.6-11.2,5.4-22.4,7.8-33.7,1.1-5.2,.9-5.2,10.6-16.5-.2,22.2,3.3,42.1,8.9,61.9,2.4,8.5,.2,19.8-3.5,28.3-5.3,12.1-3.9,24.4-5.4,36.7l.7-1.1c-5.4,4.6-5.2,11.1-6,17.3l.5-1.1c-4.9,4.7-11.1,8.8-9.6,18.4,11.6-2.6,22.6-5.2,33.7-7.6,3.6-.8,6.8-2.1,8.9-5.3l-1.3,.8c4.6-.8,10.2,0,11.9-6.3l-1.2,.9c10.5,0,16.5-10.1,27.8-11.9,11.2,3.8,23.7,8,37.7,12.7-10.2,10.4-21.2,16.7-32.8,19.7-34,8.7-64.4,24.9-94.2,42.6-6.6,3.9-15.7,4.2-19.4,12.5l1-.8Z" fill="#d4c7bf" fill-rule="evenodd"/><path d="M1533.9,1471.4c4.2-3.2,8.6-5.9,14.2-5.6,18.6,.8,36.3-3,53.6-9.3,3.9-1.4,8.5-.8,12.9-1.2l-.4-.8c1.5,3.4,4.4,4.7,7.9,4.9,5,.3,10,.8,15,1.2l-1.4-.7c2.5,4.1,6.5,5.1,10.8,5.3,7.6,.4,15.2,.4,22.8,.6l-1.2-.6c4.2,6.5,10.9,5.9,17.4,6.1l-1.2-.5q6.7,8.1,16.2,10.8c-3.1-13.2-5.8-25.9-9.2-38.4-1.1-4-2.3-8.6-6.9-10.6l.9,1.2c0-12.7-11.4-19.8-15-31.8,2-5.9,4.4-12.6,6.3-19.5,1.9-6.5,3.2-13.2,5.2-21.6,12,11.5,18.5,24.4,22.1,37.9,8.2,30.5,22.4,58,37.8,85.1,5.2,9.2,11.4,18.1,12.1,29.3-1.6,2.1-3.2,4.2-4.8,6.3l.8,.3c-2.6-8.1-10.1-8.9-16.7-11.4-23.5-9.2-48.8-9.4-73.1-14.8-32-7.1-65.4-6.7-97.3-15.8-5.9-1.7-12.4-1.3-18.6-1.9l1.3,.8c-2.4-5.2-6.6-6.7-12-6.1l.4,.7Z" fill="#d4c7bf" fill-rule="evenodd"/><path d="M543.5,384.2c-.1,3.4,.5,7.2-.6,10.3-6.5,19.1-10.7,38.4-10.4,58.8,0,3.8-3.4,7.7-5.2,11.6l.7,.4c.5-5.3-.9-9.6-6.1-12l.8,1.3c-.2-14.4-3-28.3-7.1-42.1-1.8-5.9-3.7-12.1-3.8-18.2-.6-34.9-11-68.4-15.1-102.8-1.2-10.5-4.9-20.8-8.1-31-1.5-5-3.7-10.2-9.8-11.6l.4,.8c2.1-1.6,4.2-3.2,6.2-4.8,9.3,.8,17.1,5,24.8,9.5,9.2,5.4,18.4,10.9,27.9,15.7,18.3,9.1,36.7,17.8,56.7,23,15.4,4,29.8,11,43.2,23.8-8.7,2-15.3,3.4-21.9,5.3-6.8,2-13.5,4.4-19.5,6.3-12-3.6-19.2-15-31.8-15l1.2,.9c-12.7-13.3-31.3-8.8-46.3-15.4-.7-.3-2.4,1.6-3.7,2.5,1.7,6.4,5.5,10.8,11.8,12.9l-.5-1.2c.1,6.5-.4,13.2,6.1,17.4l-.6-1.2c.2,7.6,.3,15.2,.6,22.8,.2,4.3,1.3,8.3,5.3,10.8l-.7-1.3c.4,5,.9,10,1.2,15,.2,3.6,1.5,6.4,4.9,7.9l-.8-.4Z" fill="#d4c7bf" fill-rule="evenodd"/><path d="M1389.3,1703c-.4-4.1-3.6-5.8-6.5-7.7-5.9-3.7-12.9-5.9-18.3-13.1,12.7-4.4,24.9-8.6,37.1-12.8,6.9,2.3,13.5,4.4,20.1,6.6l-1.1-.9c4.8,11.6,16.5,12.3,26.1,15.8,9.9,3.6,20.4,5.4,30.7,7.9,2.6,.6,5.1,.4,6.9-4.3-4.6-6-9.8-12.8-14.9-19.6l.8,1.3c-1.3-20.3-4.2-40.4-10.1-59.8-2.4-8-2.7-15.4,0-23.3,4.8-14.3,7.7-29,8.2-44.1,.2-5.8,3.4-9.8,7.2-13.6l-.7-.4c.8,6.2,1.2,12.4,2.5,18.5,3,13.9,7.2,27.6,9.5,41.6,4.7,28.9,3.4,58.8,14.6,86.6,.3,.8,.4,1.8,.3,2.7-.8,23.6,6.5,45.4,16.1,68.3-8.2-.8-15-1.3-21.8-2l1.2,.8c-.8-1.5-1.2-3.7-2.4-4.4-20.1-11.1-39.7-23.3-60.6-32.6-14.3-6.4-29.4-12.5-45.8-12.2l1.1,.9Z" fill="#d4c7bf" fill-rule="evenodd"/><path d="M463.4,523.5c-3.8,3.8-7.9,6.7-13.6,7.3-10.5,1.1-21.5,1.3-31.3,4.8-16.6,5.9-32.7,5.9-49,.3-15.3-5.2-31.3-5.1-47-7.1l1.3,.8c-6.2-4.7-12.4-9.6-18.8-14.1-.8-.6-3,.7-5.5,1.3,3.3,13.5,5.8,27.2,10.1,40.4,2.6,7.9,4,17.6,14.1,21l-1-1.1c2,5.8,4,11.6,6.5,18.8-1.7,5.5-3.3,12.4-5.9,18.8-2.5,6.2-2.1,13.8-7.8,18.8-9.5-5.9-8.5-19.9-19.7-24.1l1,1.1c-1.1-6.9-1.7-14-3.6-20.7-6.3-23.2-16.5-44.7-29.3-65-5-7.9-6.4-18.6-16.4-23l.8,1.2c-.6-6.8-1.2-13.5-2.1-22.8,32.9,18.6,69.1,14.8,101.9,25.7,1.6,.5,3.6,.2,5.3,.3,30.9,3.4,61.8,7.2,92,15.4,5.9,1.6,12.3,1.8,18.5,2.6l-.4-.7Z" fill="#d4c7bf" fill-rule="evenodd"/><path d="M1475.4,459.3c-3.6-1.3-6.3-3.6-6.6-7.5-1.4-17.8-4.5-35.2-10.3-52.2-2.4-7.1,.3-14.1,.7-21.2l-.9,.8c6.2-9.1,8.1-20.1,8.8-30.2,1.1-17.6,6.2-33,18.6-47.6-11.8-4.6-20.2,2.9-29.3,3.3-9.9,.4-19,4.7-27.7,9.4-8.6,4.6-16.8,9.9-24.7,14.7-13.8-3.8-25.9-9.8-40.5-10.5,2.3-3.4,3.2-6.2,5.1-7.6,11.2-7.5,22.9-14.2,35.9-17.5,26.2-6.8,49.9-18.7,73.1-32.3,8.4-4.9,17.4-9,26.3-13.2,3.1-1.4,6.6-2.1,8.8-2.8,3.5,1.3,3.9,2.7,3,4.8-10.7,24-15.5,49.2-14.3,75.5l.8-1c-8.8,5.5-8.5,14.7-9.4,23.3-2.9,28.1-5.6,56.3-12.6,83.8-2.4,9.4-3.9,19.1-5.8,28.6l.9-.6Z" fill="#d4c7bf" fill-rule="evenodd"/><path d="M1620.4,539.6c-9.7,1.4-19.1,1.8-28.9-1.5-13.4-4.6-27.5-7.1-41.8-7.6-4.7-.2-8.6-2.2-10.2-7.1l-.6,.9c6.1-1.1,12.2-2.2,18.3-3.2,19.1-3.3,37.5-9.5,57.3-10.7,13-.8,26.3-3.2,39.5-4.6,7.8-.8,15.9-1.3,20.7-9.2l-1,.8c27.1,.9,53.2-3.5,78.1-15.7,4.3,8.5-.8,14.7-3.7,20.6-7.4,15.2-15.6,30.1-24,44.8-8,14.1-13.4,29.2-17.6,44.7-3.5,13.1-9.9,24.8-16.7,36.3-1.8,3.1-4.2,5.6-9.3,6-.6-13.4-6.6-25.4-10.1-38q23.3-45.5,28.3-79.3c-1.5-.3-3.7-1.4-4.5-.8-12.4,9.5-26,14.7-41.9,15.4-11.3,.5-22.7,3.1-32.8,9.2l.8-.9Z" fill="#d4c7bf" fill-rule="evenodd"/><path d="M209.9,851.9c3.1,4.2,6.2,8.4,10.3,13.9-.3,11.8,3.3,24.5,6.5,36.5-5,4.4-8,1.3-10.4-.5-12.7-9.8-25.7-19.4-37.6-30-26-23.1-51.5-46.8-77.2-70.3-1.1-1-1.1-3.2-2.2-6.3,11.1-3.8,22.5-2.2,33.5-1.9,24.4,.7,48-3.3,71.1-10.6,5.1-1.6,10.2-3.3,15.4-4.5,14.8-3.4,29.7-4.3,44.8-1.6,0,9.1-7.9,9.8-11.5,14.3-3.9,4.8-8.8,8.8-13,13-23.9,10.6-50,13.1-74,22.8-.5,.2-.7,1.3-1,1.9,1.1,1.4,2.1,3.7,3.4,3.9,16.2,2.9,26.4,18.1,42.9,20.4l-1.1-.9Z" fill="#d4c7bf" fill-rule="evenodd"/><path d="M1146.1,1787.8c0,.9-.2,1.8,0,2.7,1.3,9.4,8.5,15.4,13.2,22.9,4.2,6.7,2.7,16.3,11.9,21.2,9.1-10.8,6.9-25.1,11.3-37.2,4.5-12.6,8-25.5,12.1-38.7,8.2-7.7,17-15.2,22.8-24.5,6.5,.4,5.9,4.6,6,7.8,.7,14.3,.4,28.6-4.3,42.4-10.5,30.8-15.2,62.3-13.4,94.9,.4,6.2,0,12.4,0,17.5-5.4,3.6-8,1.2-10.3-1.3-23.5-25.7-47.1-51.3-70.2-77.3-11.8-13.2-23.2-26.9-31.9-41.8,3-5,6.6-4.4,9.7-3,9.2,4.1,19,4.5,29.2,5,4.8,3.5,9.8,7,14.7,10.5l-.9-1.1Z" fill="#d4c7bf" fill-rule="evenodd"/><path d="M857,212.7c-5.2-18.1-21.2-29.9-24.1-49.6-4.7,3-7,3.6-7.3,4.8-6.5,23.1-12.7,46.3-19.1,69.6-9.3,9.5-19.8,17.7-29.2,34.2-2.5-19.3-3.2-32.2,.3-45.2,3.8-13.7,8.1-27.4,10.9-41.3,3.9-19.2,7.6-38.5,6.6-58.3-.4-8.8,.5-17.6,.8-25.6,5.7-2.3,7.9,.4,10.3,3,31.4,32.9,62.6,66,90.5,102,2,2.6,5.5,4.1,8.4,6.1l-1-1c1.1,4.2,2.2,8.4,3.3,12.6-1.3,.7-3.1,2.4-3.9,2-15.1-6.9-33.1-4.3-47.3-14.3l.7,.9Z" fill="#d4c7bf" fill-rule="evenodd"/><path d="M1786.9,1142.3c-1.9-2.9-5.2-5.8-5.4-8.9-1-14-6-27.2-9.5-40.2,6.7-4.1,10.5,3,15.6,1.6l-1.1-.9c1.3,5.7,6,8.6,10.2,11.8,36,27.9,68.9,59.3,101.5,90.9,.5,.5,.2,1.7,.3,2.9-2.2,5-7.1,4.2-11,4.1-35.1-1.3-69.1,4.2-102.6,14.6-16.6,5.2-34,8.8-50.9,3.5,8.8-9.3,17.3-18.2,26.6-28,22.9-8.7,48-14.6,72.6-20.9-.2-2.7,.3-5.3-.5-5.8-12.9-7.8-26-15.3-39.1-22.7-2.3-1.3-5.1-1.7-7.6-2.5l.9,.6Z" fill="#d4c7bf" fill-rule="evenodd"/><path d="M1163.2,184.2c-5.9,1.3-8.2,6.5-11.2,10.7-5.2,7.2-10.1,14.7-15.4,22.6-14.2,.4-27.6,5.2-40.7,8.9-4.8-6-.2-9.2,2.1-12.4,20.9-29,45.1-55.3,69.2-81.6,10.2-11.2,20.6-22.2,31.1-33.1,1.1-1.1,3.2-1.2,5.5-2,4,8.4,2.4,17.4,2,26-1.3,29.8,3.7,58.6,12.4,87,7.1,22.8,7,30,2.3,54.4-13-14.3-27.8-24.6-32.1-44.8-3-14.7-8.6-29-11.2-44-.8-4.6-2.3-8.6-6.7-11.4-8.8,4.4-7.5,13-8.3,20.7l.9-.9Z" fill="#d4c7bf" fill-rule="evenodd"/><path d="M205.5,1147.5c-13.5,6.5-27,13-40,19.3-.2,4.1,1.3,6.4,4.1,7,23.7,4.7,46.7,12,71.2,19.9,6.3,8.9,16.2,16.6,25.9,25.1-12.9,5-21,6.1-33.2,3.7-7.9-1.5-15.8-3.2-23.5-5.7-29.2-9.4-58.9-14.3-89.7-13.3-6.7,.2-14.2,2.2-20.1-3.4,.2-1,0-2.2,.6-2.7,14.1-13.7,27.8-27.9,42.6-40.8,23.6-20.6,47.9-40.2,71.9-60.4,2.6-2.2,4.5-5.4,6.7-8.1l-1,.8c1.7,.5,3.4,1,5.5,1.6,3.8,8.3-3.7,14.7-4.4,22.3-.7,7-1.6,14-2.2,19.2-3.9,8.3-13.2,8.7-15.4,16.3l1-.9Z" fill="#d4c7bf" fill-rule="evenodd"/><path d="M910.5,1777c-5.6,1.8-8.1,6.8-11.3,11-25.3,32.5-52.2,63.5-81.4,92.6-6.2,6.2-12,12.7-18.1,19.2-6.6-7.1-4.6-14.6-4.4-21.3,1-30.7-4.1-60.4-13.3-89.7-5.6-17.9-9.4-36.3-4.7-56.9,11.4,6.9,16.6,19.2,26.9,24.9,10.2,25.1,15.3,51.3,22.6,76.7,3-.9,5.5-.9,6-1.9,6.3-12.7,12.4-25.5,18.5-38.2l-.9,1c7.6-2.2,8-11.5,16.8-15.6,11.8-1,25.9-1.8,39-9.8,1.7,4.5,2.6,6.8,3.5,9.2l.9-1.1Z" fill="#d4c7bf" fill-rule="evenodd"/><path d="M1813.7,836.5c7.7-.8,16.3,.5,20.7-8.3-2.8-4.4-6.9-5.9-11.4-6.7-14.9-2.6-29.3-8.4-43.9-11.1-20.7-3.9-29.7-20.2-47.4-32.6,20.6-4.3,36.3-3.3,51.9,1.2,6.9,2,13.6,4.6,20.5,6.2,20.9,4.9,41.9,9,63.6,7.8,9.8-.5,19.6,.1,29.5,.4,1.5,0,2.9,1.5,5.9,3.1-40.8,38.9-80.2,78.3-126.6,110.1-1.7-2.8-3.5-4.4-3.2-5.4,3.7-12.8,7.8-25.5,8.2-37.6,10.2-12,26.6-14.2,33.3-28.1l-.9,.9Z" fill="#d4c7bf" fill-rule="evenodd"/><path d="M1588.9,867.8c-18.4,3.3-36.9,6.3-55.2,10-6.4,1.3-12.2,2.3-18.2-2-4.4-6-3-13.3-3.2-20,2-5,6.6-6.8,10.7-7.7,11.3-2.5,22.7-4.7,34.2-5.9,15.2-1.6,29.8-5.6,44.4-9.8,3.4-1,6.9-1.9,10.4-2.5,16.7-2.8,22.2,2.7,22.9,23.5-9.3,7.7-22,4.8-32.6,9.2-4.7,2-10.8,.5-14.4,5.7l.9-.6Z" fill="#d4c7bf" fill-rule="evenodd"/><path d="M1130.1,411.2c7.4-7.7,5.7-18.4,8.9-27.5,2-5.7,1.1-12.4,4.7-17.9,18.6-4.8,28.5,3,25,20.5-3.8,19.3-10.8,37.8-12.7,57.5-.8,8-3.1,15.8-3.8,23.8-.6,6.5-2.6,12.1-6.5,17.4-6.9,3.4-13.8,.9-20.6-.2-6.2-4.4-6.3-10.6-5-16.9,4.2-19.2,9.2-38.1,10.6-57.7l-.7,1Z" fill="#d4c7bf" fill-rule="evenodd"/><path d="M1598.5,1131.7c3.5,5.2,9.2,5.4,14.4,5.4,8.5,0,15.4,3.2,21.5,6.4,3.7,10.5-.6,17-6.7,22.7-3.5,3.3-8.1,3.8-12.6,2.6-12.1-3.1-24-7-36.2-9.5-17.4-3.7-35-6.4-52.5-9.6-4.3-.8-8.9-1-13.4-5.6-.2-2.2-.8-5.6-.6-9,.2-4.4,0-9,4.8-13.7,11.1-2.8,23-.7,35.2,2.1,15.6,3.7,31,8.5,47.2,9.1l-1.1-.8Z" fill="#d4c7bf" fill-rule="evenodd"/><path d="M866.3,399.1c.5,16.2,5.4,31.6,9,47.2,2.8,12.2,4.9,24.2,1.9,36.2-8.2,4.6-15.7,5.3-23.3,2.5-6.8-8.6-6.1-19.1-7.6-28.4-3.6-23-8.9-45.5-14.7-67.9-4.6-18,1.1-24.3,22.3-24.8,5.8,6.1,7.2,13.7,7.7,21.9,.3,5.2,.2,10.9,5.4,14.4l-.8-1.1Z" fill="#d4c7bf" fill-rule="evenodd"/><path d="M409.5,868.8c-1.6-3.7-4.9-4.6-8.5-5.4-11.2-2.4-22.4-5-32.3-7.2-5.7-6.9-4.3-12.8-1.4-18.5,2.5-5.1,6.8-8.5,12.6-8.2,5.3,.2,10.7,.8,15.8,2.3,24.7,7.5,50,12.1,75.6,15.3,5.9,.7,11.4,3.9,17.8,6.3-1.5,8.2-2.8,15-3.8,20.5-4,5.3-8.9,6.5-12.8,5.3-12.1-3.6-24.3-4.9-36.8-5.8l1.1,.7c-8.2-7.7-18.7-4.2-28.1-5.9l.8,.7Z" fill="#d4c7bf" fill-rule="evenodd"/><path d="M446,1121.7c12.3-.1,24.6-3.2,34.8-1.2,5.3,3.9,5.3,7.6,5.9,11,.8,4.3,1.3,8.6,1.9,12.9-10,7.1-21.4,6.8-31.5,8.2-22.1,3.2-43.6,8.8-65.3,14-19.8,4.7-23.7,2-26.8-20.1,4.3-6.5,11-8.2,18.2-9,21.3-2.4,41.6-8.8,62.1-14.5,.7-.2,1.1-1.3,1.7-2l-1.1,.8Z" fill="#d4c7bf" fill-rule="evenodd"/><path d="M1125.5,1563.1c-1.3-11.5-1.4-23-5.2-34.2-1.3-3.8,.2-8.5,.4-12.1,8-5.9,15.9-5.6,23.5-6.2,4.9,4.7,7.2,10.4,7.8,16.7,2.6,25.7,7.5,50.9,15.2,75.6,.8,2.5,1.2,5.2,1.6,7.9,1.1,6.2,1.9,12.5-3.3,17.5-5.6,5.3-12.1,7.3-20.7,4-7.4-8.8-4-21.6-8.8-32-1.8-3.8-1.1-8.8-5.9-11.1l.7,.8c-1.7-9.4,1.8-19.9-5.9-28.1l.6,1.2Z" fill="#d4c7bf" fill-rule="evenodd"/><path d="M877.9,1551.6c-3.3,2.1-4.1,5.5-4.7,9.1-3.2,20.2-11.4,39.3-12.8,60-.3,4.1-3.2,8-4.4,10.8-7.8,4.1-13.5,2.5-19.1-.9-6-3.7-8.2-9.1-7.2-16,.3-1.7,1.1-3.4,1.6-5.1,8.3-27.3,12.9-55.4,17.7-83.5,.9-5.3,1.1-10.7,5.3-15.1,7.9-.8,15.4,.7,23.5,5,2.5,12.2-.7,24.5-.8,36.8l.8-1.1Z" fill="#d4c7bf" fill-rule="evenodd"/><path d="M1583.6,905.5c-19.2,0-38.1,3.3-55.6,5.8-5.8-3.8-6.5-8.3-7.7-12.5-.9-3.3-1-6.8-1.5-10.2,9-8.2,20.4-6.8,30.2-9.7,11.7-3.6,24-5.2,36-7.9,1.5-.4,2.6-2.2,3.9-3.3l-.9,.6c14.8-1.6,29.6-3.2,43.9-4.7,6.8,7.8,5.3,15.6,3,23.3-1.4,4.6-5.1,7.1-9.7,8.1-10.4,2.1-20.8,4.1-31.2,6.1-4.3,.8-8.9,.8-11.7,5.1l1.2-.8Z" fill="#d4c7bf" fill-rule="evenodd"/><path d="M1092.5,416.5c3.3-2.1,4-5.6,4.6-9.1,2.5-13,5-26,7.3-38.4,3.1-2.2,5-4.2,7.4-5.2,6.9-2.8,13.8-2,19.4-.3,4.8,4.7,4.2,8.9,3.6,13.4-1.7,11.4-3.1,22.8-4.6,34.2l.7-1c-7.1,11.7-7.8,25.1-10.8,37.9-2.4,10.3-2.8,21.1-7.5,29.9-10,4.4-16.3-2.1-24.7-3.5,1.9-20.6,3.7-39.9,5.4-59.2l-.8,1.2Z" fill="#d4c7bf" fill-rule="evenodd"/><path d="M435.7,873.3c2.1,3.2,5.4,4.3,8.9,5,11.1,2.2,22.2,4.5,31.7,6.4,5.8,7.5,3.8,13.6,2,19.4-1.6,5.5-6.8,8.6-12.3,7.6-29.5-5.3-59-10.6-88.5-16-3.4-.6-6.6-2.1-9.5-3.1-5.4-14.9-5.3-14.9,.3-29.2,13.5,1.7,27.3,3.5,41.2,5.2l-.8-.7c8.2,7.4,18.6,4.4,28.1,5.9l-1.1-.7Z" fill="#d4c7bf" fill-rule="evenodd"/><path d="M1130,1589.3c1.8,13.1,3.5,26.2,5.4,40.4-8.9,8.8-18.7,5.6-29.1,2.4-6.7-22.8-10.7-45.3-13.9-68-1.3-9.6-1.5-19.3-4.6-28.8-2.8-8.6,.8-13.8,9.3-15.6,4.2-.9,8.7-.7,13.8-1,5.8,10.5,7.7,21.6,9.3,32.9,.6,4.4,1.2,8.8,5.3,11.6l-.6-1.2c1.5,9.5-1.5,19.9,5.9,28.1l-.7-.8Z" fill="#d4c7bf" fill-rule="evenodd"/><path d="M447.2,1120.9c-15.4-.3-29.9,4.6-44.5,8.2-11.5,2.9-22.6,3.3-33.6,4.1q-5.4-11.5-2.7-25.6c4.6-4.5,10.6-6.4,16.7-7.6,61.2-12.1,67-12.7,91.9-10.6,3.9,3.1,4.7,7.5,5.1,12,.9,8.7-2.6,13.5-11.3,14.7-7.8,1.1-16.1-.4-22.7,5.7l1.1-.8Z" fill="#d4c7bf" fill-rule="evenodd"/><path d="M479.8,685.8c-1.4-6.1-7.3-7.2-11.5-9.8-8.9-5.5-18-10.6-27.8-16.2,1.7-10.2,6.6-16.8,15.4-22.5,14.5,7.7,29.3,15.4,43.9,23.4,3.9,2.1,7.7,4.2,12.4,3.8l-1.1-1c2,5.9,6.7,6.5,12,6.1l-1.2-.8c2,5.9,6.7,6.5,12,6.1l-1.2-.7c2,5.9,6.7,6.5,12,6.1l-1.2-.8c2,5.9,6.8,6.5,12,6.1l-1-.8q-.3,12.7-9.5,26.1c-3.8,.2-8,.4-12.2,.7l1.1,.9c-2-5.9-6.8-6.5-12-6.1l1.2,.8c-12.3-12.4-28.3-17.1-44.2-22.3l1,.8Z" fill="#d4c7bf" fill-rule="evenodd"/><path d="M867.1,400.3c.3-11.5-2.9-23-.3-34.2,8-5.7,15.6-4.5,22.6-1.7,6.4,4.3,7.7,10.8,9,16.7,12,54.4,13,63.3,10.9,93.4-2.6,1.2-5.7,3-8.9,3.9-10.3,3.1-16.9-.1-17.5-9.7-1.2-20.7-8.1-40.2-11.8-60.3-.7-3.7-2-6.8-4.9-9.1l.8,1.1Z" fill="#d4c7bf" fill-rule="evenodd"/><path d="M468.9,1357.5c-4.4,.4-8.8,.8-13.5,1.2-9.4-3.1-11.7-11.8-16.1-18.9,10.7-11.5,27.3-12.2,35-25.3l-1,.8c2.6-.3,5.5,0,7.7-1,12.7-5.9,25.3-12.1,37.9-18.4,3.7-1.9,8.3-3.3,9.4-8.3l-1.2,.8c5.2,.3,10-.2,12-6.2l-.9,1q10.4,7,16.4,21.4c-1.9,3.5-3.8,7.2-5.7,10.8l1-.9c-5.2-.3-10,.2-11.9,6.1l1.2-.8c-5.2-.4-9.9,.2-11.9,6.1l1.2-.7c-5.2-.4-9.9,.2-12,6.1l1.2-.8c-18.3,5-36.1,15-49.6,27.7l.9-1Z" fill="#d4c7bf" fill-rule="evenodd"/><path d="M1599.6,1132.5c-3.6-5.1-9.3-4.3-14.4-5.6-17.3-4.6-34.5-9.1-52.4-10.7-13.1-1.2-15.6-6.1-11.5-20.4,.5-1.7,1.4-3.3,2.6-6,11.6-3.6,23.8-2,36,.3,12.2,2.3,24.5,4.6,36.7,7.1,12.1,2.5,25.2,1.5,36,9.5,5.2,7,4.8,14.7,2.1,23.3-2.1,1-4.5,3-6.8,3-9.8,0-19.6-.8-29.5-1.2l1.1,.8Z" fill="#d4c7bf" fill-rule="evenodd"/><path d="M877.1,1552.7c6-6.5,4.6-14.9,5.7-22.7,1.2-8.7,5.9-12.2,14.7-11.3,2.6,.3,5.3,.9,7.8,1.8,1.6,.6,2.8,2.1,5.8,4.6-.2,35.3-9.2,70.4-16.3,104.7-14.3,5.5-14.3,5.5-27.7,2.3-3-11.2-.7-22.3,1.9-33.5,3.6-15.6,8.6-30.9,8.9-47.1l-.8,1.1Z" fill="#d4c7bf" fill-rule="evenodd"/><path d="M1334.4,1486.7c1.1,12.9,10.2,22.2,15.2,33.3,3.6,8,9.4,14.9,11,23.9-3.8,7.7-10.8,11.1-17.9,13.9-5.4-.9-7.1-5.1-9.5-8.8-6.6-10.1-9.5-22.7-20.2-30l.8,1c-4.6-15.4-10.5-30.1-20-43.3-.4-.6-1.5-.7-2.3-.9l.8,1.2c.4-5.2-.3-9.9-6.1-12l.9,1.1c.2-4.2,.5-8.5,.7-12.1,7.6-8,15.8-11.6,26.1-9.6l-.8-1c-.4,5.3,.2,10,6.1,12l-.8-1.2c-.4,5.2,.3,9.9,6.1,12l-.8-1.2c-.3,5.2,.3,9.9,6.1,12l-.8-1.2c-.3,5.2,.3,9.9,6.2,12l-1-1.1Z" fill="#d4c7bf" fill-rule="evenodd"/><path d="M684.3,1524.4c-6.1,1.4-7.5,7.1-10.2,11.5-4.7,7.5-8.8,15.3-13.1,22.8-9.6-1.2-15.1-6.6-20.7-13.5,.3-4.8,.7-10,1-15.3l-1,.9c12.8-13.5,22.7-31.2,27.7-49.6l-.8,1.2c5.9-2,6.5-6.7,6.1-12l-.8,1.2c5.9-2,6.5-6.8,6.1-12l-.7,1.2c5.9-2,6.4-6.8,6.1-12l-.9,1c3.6-1.9,7.3-3.9,10.9-5.8,9.9,2.1,17.7,6.6,21.3,16.5l1-.9c-5.9,2-6.5,6.7-6.1,12l.8-1.2c-5.1,1.1-6.5,5.6-8.3,9.4-6.3,12.5-12.5,25.1-18.4,37.9-1,2.3-.7,5.1-1,7.7l.8-1Z" fill="#d4c7bf" fill-rule="evenodd"/><path d="M652.1,486.7c.6-6.6-3.2-11.4-6-16.7-2.8-5.3-6.8-10.2-5.5-17.6,1.1-1.4,2.4-3.8,4.3-5.3,4.1-3.1,8.5-5.7,12.4-8.3,3.9,1.6,7,2.9,10.1,4.2l-.6-.9c-.4,8.7,4.8,15.2,8.8,22.1,14.4,24.8,26,50.9,38,75.9-4.6,9.7-12.7,11.2-19.3,14.3-2.3-1.7-4.2-2.4-4.9-3.8-7.5-14.3-14.7-28.7-22.2-43-2.4-4.6-4.5-9.9-10.6-11.1l.8,1c.4-5.2-.2-10-6.1-12l.9,1.1Z" fill="#d4c7bf" fill-rule="evenodd"/><path d="M1555.8,1331.5c1.3,3.2,2.7,6.4,3.9,9.4-2.8,7.1-6.7,13-13.2,17.4-2.3-.2-5,.1-7.5-.6-9.4-2.7-16.2-11.5-26.9-11.1l1.1,1c-2-5.9-6.7-6.5-12-6.1l1,.9c-1.6-7.2-8.1-8.9-13.5-11.8-14.3-7.4-28.6-14.7-43.2-22.2-.9-9.4,3.6-15.7,9.8-22,2.2,.2,5.1-.2,7.2,.9,24.1,11.9,48,24,72,36.1,7.1,3.6,13.5,9.1,22.2,8.8l-.9-.6Z" fill="#d4c7bf" fill-rule="evenodd"/><path d="M1329.4,448.9c6.1-.5,5.8-9.2,15.2-8.7,4.7,1.7,11.1,5.9,15.7,12.8-.3,8.5-5.5,14.8-9.3,21.8-2.9,5.5-6.6,10.7-5.8,17.3l.9-1.1c-8.6,4.4-11.3,13.3-15.5,20.9-6,11-11.2,22.4-16.9,33.5-1.6,3-4,5.7-6.1,8.6-9.3-.7-15.2-5.7-22-12.3,9.5-19.4,19.1-38.4,28-57.8,5.5-12,15.4-22.1,16.6-36.1l-.9,1.1Z" fill="#d4c7bf" fill-rule="evenodd"/><path d="M1506.5,653.7c6.7,.7,11.9-3,17.4-5.9,7-3.6,14.1-7,21.5-10.6,3.2,3.4,5.9,5.8,7.9,8.5,2.6,3.4,4.6,7.2,6.8,10.6-3.9,5-7.1,9-10.2,13.1l1-.9c-5.7-.5-10.1,2.4-14.9,4.9-21.4,11.1-42.8,22-64.3,32.8-4.7,2.4-9.8,4.1-15.1,6.3-2.7-3.2-5.4-5.6-7.1-8.6-2.2-3.6-3.6-7.7-4.8-10.4,2.8-6.2,7-7.8,11-9.8,10.4-5.1,20.9-10.1,31.1-15.7,7.6-4.2,16.5-6.9,20.9-15.4l-1.1,.9Z" fill="#d4c7bf" fill-rule="evenodd"/><path d="M1313.1,1519c-.8,6.7,2.7,11.9,5.6,17.4,3.6,7,7.1,14,10.2,20-3.3,6.7-8.1,6.2-12.2,5.5-6.1-1-12-3-18.6-4.7-15.2-27.9-32.8-54.4-45-82.7,1.8-6.3,5.7-8.3,9.9-10,4.1-1.6,8.2-3.1,12.1-4.7,4.4,2.3,8.2,4.3,12,6.3l-.9-1.1c-.3,5.2,.2,10,6.1,12l-.8-1.2c2.4,17.3,7.9,33,22.3,44.2l-.8-1Z" fill="#d4c7bf" fill-rule="evenodd"/><path d="M532.6,711.7c1.7,3,3.5,6,5.7,9.9-.3,8.4-3.9,16.1-9,22.2-5.8,3-9.6,.6-13.5-1.5-24.1-13.3-48.2-26.6-71.8-39.6-7.7-16.7-7.4-16.7-5.4-30.6,4.5-3.4,8.3,0,12.1,1.6,9.6,4.3,17.5,12.6,29,12.1l-1-.8c11.2,14.4,26.9,19.9,44.2,22.3l-1.2-.8c2,5.9,6.7,6.5,12,6.1l-1.1-.9Z" fill="#d4c7bf" fill-rule="evenodd"/><path d="M474.4,1314.6c-6.8-.9-11.9,3-17.4,6-5.4,3-10.4,7.3-18.3,6.4-5.6-10.6,1.2-20.1,3.2-30.6,27.5-15.3,54.8-30.4,82.8-45.9,11.9,8.4,14.3,19.9,13.6,32.8l.9-1c-5.1,0-10,.2-12,6.2l1.2-.8c-20.7,4.6-40,11.9-54.9,27.7l1-.8Z" fill="#d4c7bf" fill-rule="evenodd"/><path d="M715.5,1460.6q16.5,1.1,32.1,12c-11.5,28.8-30,54.2-44.1,83.1-9.3,3.4-18.7,8.6-29.6,5.8-4.4-4.8-1.4-8.9,.3-12.7,3.7-8,10.8-14.6,10-24.4l-.8,1c15.8-15,23.2-34.3,27.7-55l-.8,1.2c5.9-2,6.2-6.9,6.1-12l-1,.9Z" fill="#d4c7bf" fill-rule="evenodd"/><path d="M1549.9,669.4c3.4,.6,6.7,1.2,10.7,1.9,3.6,10.2,1,19.5-1.8,29.2-17.8,10.2-35.6,20.2-53.3,30.5-3.7,2.1-8.5,3.3-9.4,8.5l1.1-.9c-8.6-1.4-14.4,7-24.1,6.8-8-5.6-9.6-15.1-11.8-24.5,7.8-7.4,17-10.9,26.1-14.6,20-8,38.1-19.8,56.9-30,3.1-1.7,6.2-3.6,6.8-7.7l-1,.9Z" fill="#d4c7bf" fill-rule="evenodd"/><path d="M667.3,443c4-3.7,7.9-7.5,14-6.7,6.2,.8,12.3,1.8,19.6,2.8,16.5,28.2,33.5,56.2,47.1,86-7.2,7.7-15.6,10.3-25.2,12.4-8.3-5.9-11.1-15.7-14.7-24.5-9-21.6-21.4-41.3-32.6-61.7-2.1-3.8-3.7-8.3-8.9-9.2l.6,.9Z" fill="#d4c7bf" fill-rule="evenodd"/><path d="M1556.7,1332.2c-.9-5.2-5.4-6.8-9.2-8.9-20.4-11.2-40.1-23.7-61.7-32.5-8.2-3.3-15.9-7.9-24.6-12.2,.9-11,4.8-19.4,11.7-27.9,30,12.8,56.7,30.8,85.6,46,3.3,12.1,8.4,23.9-2.7,34.9l.9,.6Z" fill="#d4c7bf" fill-rule="evenodd"/><path d="M1330.3,447.8c-5.1,.9-7.1,5.2-9.1,9-9.8,19-21.9,36.8-29.6,57-3.1,8.2-6.5,16.6-13.1,23.2-9.3-.3-17.3-3.5-23.7-9.3-2.7-5.2-.4-9,1.7-12.9,13.8-24.9,27.5-49.9,41.2-74.7,10.2-3,19.5-5.6,29.7-2,.7,4,1.3,7.3,2,10.7l.9-1.1Z" fill="#d4c7bf" fill-rule="evenodd"/><path d="M656.4,1428.3c11.3-4.1,20.2-.4,27.9,8.5-.3,4.5-.6,8.8-.9,13l.9-1c-5.9,2-6.5,6.7-6.1,12l.7-1.2c-5.9,2-6.5,6.7-6.1,12l.8-1.2c-5.9,2-6.5,6.7-6.1,12l.8-1.2c-13.8,15.6-22.3,30.7-27.7,49.6l1-.9c-3.2,.7-6.5,1.3-9.8,2-8.2-12.7-9.5-26.5-8.2-40.2,3-9.9,13.4-15.4,12.6-26.4l-1,1c12-10.3,19.5-23.2,22.3-38.8l-.9,.9Z" fill="#d4c7bf" fill-rule="evenodd"/><path d="M571.6,1341.4c-5.7-.6-10.4,1.8-15,4.6-16.1,9.6-32.2,19.2-49.1,29.4-13.5,1.5-27.4,0-40.5-8,.7-3.4,1.3-6.6,2-9.9l-.9,1c18.8-5.4,34-13.9,49.6-27.7l-1.2,.8c5.2,.3,9.9-.2,12-6.1l-1.2,.7c5.2,.4,9.9-.2,11.9-6.1l-1.2,.8c5.2,.4,9.9-.3,11.9-6.1l-1,.9c4.3-.3,8.5-.6,12.2-.9,10.7,7.3,12.6,16.7,9.5,27.7l1.1-.9Z" fill="#d4c7bf" fill-rule="evenodd"/><path d="M1313.9,1444.5c0-9.4,6.8-13,14-16.5,8.2-4,12.3,3.7,18.4,5.8l-.9-1c5.8,18.5,8.9,23.9,22.4,38.8l-.8-.4c.7,2.5,.6,5.7,2.2,7.4,15.5,17,8.2,33.7-.5,50.5-.3,.5-1.6,.5-3.7,1.1-7.1-7-10.9-16.7-16.2-25.5-3.9-6.6-6-14.7-14.2-17.9l1,1.1c.3-5.2-.3-9.9-6.2-12l.8,1.2c.3-5.2-.2-10-6.1-12l.8,1.2c.3-5.2-.2-10-6.1-12l.8,1.2c.6-5.3-.8-9.7-6.1-12l.8,1Z" fill="#d4c7bf" fill-rule="evenodd"/><path d="M512.1,664.4c-3.2-8.2-11.3-10.3-17.9-14.2-8.8-5.3-18.5-9.1-25.6-16.3,2.5-8.8,9.6-8.1,15.1-10,13.2-4.7,25.6-5.1,36.5,5.9,1.6,1.6,4.9,1.5,7.4,2.2l-.5-.8c15,13.4,20.4,16.6,38.8,22.4l-1-.9c2.1,6.1,9.9,10.2,5.8,18.4-3.5,7.2-7.1,14-16.5,14l1,.8c-2.4-5.3-6.7-6.7-12-6.1l1.2,.8c-2-5.9-6.7-6.5-12-6.1l1.2,.7c-2-5.9-6.7-6.5-12-6.1l1.2,.8c-2-5.9-6.8-6.5-12-6.1l1.1,1Z" fill="#d4c7bf" fill-rule="evenodd"/><path d="M1340.4,572.2c-10.1-.3-18.8-3.7-26-13.6,8.8-17.3,17.8-35.2,27.1-52.9,2.5-4.7,5.5-9,4.7-14.7l-.9,1.1c10.5-5,11-17.7,19.1-24.6,4.3-1,6.7,1.4,7.8,5,3.1,11.1,7.6,22,5.4,33.7-13.7,21.9-29,42.6-37.8,67l.8-1Z" fill="#d4c7bf" fill-rule="evenodd"/><path d="M1507.6,652.8c-4.6-.7-8.5,1.2-12.4,3.3-17.8,9.4-35.7,18.7-54.3,28.3-10.6-5.7-13.5-15.2-14.3-26l-1,.8c23.6-8.5,43.9-22.9,64.9-36.9,21.8-1.3,27.1,0,41.3,10.2-5.7,10.4-20.4,10.1-25.3,21.2l1.1-.9Z" fill="#d4c7bf" fill-rule="evenodd"/><path d="M1512.1,1346.7c.7,5.2,5.2,6.9,8.8,9.3,4.4,2.9,9.8,4.6,11.7,10.8-12.2,9.2-26.3,9.6-41,8.6-14.5-8.2-26.7-20.9-44.2-23.4l1,.9c-3.1-9.6-14.3-9.7-19.6-16.8q1.4-12.4,11.8-22.4c15.3,7.6,31.1,15.3,46.9,23.2,4.7,2.4,8.9,5.9,14.7,5.4l-1-.9c2,5.9,6.7,6.5,12,6.1l-1.1-1Z" fill="#d4c7bf" fill-rule="evenodd"/><path d="M656.5,496.6c-.5,8.7,5.8,14.6,9.1,21.8,6.2,13.6,13.2,26.8,19.4,39.3-4.4,9.8-11.9,12.1-19.6,13.7-10-4-8.9-17.8-19.4-20.9l.9,1.1c-2.5-16.6-13.8-28.6-22.9-43.2-2.3-14.3-.8-28.9,7.7-42.3,11.2,3.5,9.9,17.9,20.6,20.7l-.9-1.1c-.3,5.2,.2,10,6.1,12l-.8-1Z" fill="#d4c7bf" fill-rule="evenodd"/><path d="M1093.3,415.3c-4.7,3.9-4.4,9.6-5,14.8-.6,5.3,.3,10.8-.6,16-1.6,8.7-4.1,17.2-6.1,25.5-4.3,4-8.7,.8-12.8,.5-4.3-.3-9-.2-13.8-6-1.8-19.5,7.2-40,5.8-61.8,9.9-11.1,19.1-23,33.2-30.2,5.6,7.8-.1,14.4,0,21.1,.2,7.1-.9,14.2-1.4,21.3l.8-1.2Z" fill="#d4c7bf" fill-rule="evenodd"/><path d="M488.2,1154.9c6.5,6.1,9,13.3,8.2,21.7-1.6,1.1-2.9,3-4.4,3.1-21.5,.6-42.3,5.6-63,11-17.2,4.5-31.6,.9-43.2-12.8,3.1-5.6,9-6,13.8-7.5,26.4-8.1,53.8-11.7,80.9-16.7,2.4-.5,5.2,.8,7.6,1.2Z" fill="#d4c7bf" fill-rule="evenodd"/><path d="M844.4,1511c2.5,15.8-4,30.9-6.5,46.5-3.1,19.1-6,38.4-15.9,56.2-14.9-12.4-18.2-26.9-13.9-44.1,5.4-21.5,12.2-42.8,9.8-65q13.6-1.5,26.5,6.4Z" fill="#d4c7bf" fill-rule="evenodd"/><path d="M1582.4,906.3c13.2-1.2,26.4-2.3,39.7-3.5,3.7,3.5,1,6.7-1.1,9.1-7.7,8.6-15.9,16.9-24.2,25.6-22.3-.5-43.6,7.9-65.2,6.2-6.2-8.2-4.5-16.6-6.8-25.6,12-2.8,23.6-6.8,36-7.3,7.9-.3,16.1,.6,22.7-5.3l-1.2,.8Z" fill="#d4c7bf" fill-rule="evenodd"/><path d="M844.4,488.5c-8.6,4.1-14.5,8.3-22.1,6.6-1.1-1.5-2.9-2.9-3-4.3-.9-22.3-6.4-43.8-11.6-65.3-3.9-16.2,0-29.7,13.6-40.4,9.1,11,10.7,24.6,13,37.3,3.9,21.5,11,42.8,9.9,66.2Z" fill="#d4c7bf" fill-rule="evenodd"/><path d="M1503.6,1180.1c-.7-12,2.6-18.1,6.3-23.8,4.2-2.9,8.8-3.5,13-2.5,29.9,7.3,61.4,8.6,90.2,21.8-11.2,14.3-17.2,17.7-30.2,16.8-4.4-.3-8.8-1.1-13.2-2.1-21.5-5.1-42.7-11.3-66.1-10.2Z" fill="#d4c7bf" fill-rule="evenodd"/><path d="M467.9,1053.2c8.5,7.7,6.2,17.5,5.7,27.8-16,6.3-33.2,4.3-49.4,7.3-15,2.7-30.5,10-47.2,4.6,3.4-15,17.6-20.1,23.5-30.9,12.9-2,24.2-3.9,35.6-5.4,10.4-1.4,20.9-2.3,31.9-3.4Z" fill="#d4c7bf" fill-rule="evenodd"/><path d="M1509.1,840.8c-3.3-6.9-6.5-12.2-5.4-19.5,28.2-5.8,55.9-11.6,84.3-17.5,9.7,3.2,19.2,7.2,26,16.6-28.8,13.7-77.2,23.2-104.9,20.4Z" fill="#d4c7bf" fill-rule="evenodd"/><path d="M404.3,939c-11.2-13.3-22.8-21.6-29.9-34.3,3.3-1.6,4.9-3.1,6.3-2.9,30.4,4.8,60.7,9.7,91,14.7,4.8,9.3,2,17.4-.8,26.1-23.2,5.5-44.1-7.8-66.6-3.6Z" fill="#d4c7bf" fill-rule="evenodd"/><path d="M916.8,1525.1c11.5-.3,21.3-2.8,29.2,6.2-2.9,22-5.8,43.8-8.7,65.8-10.6,8.1-17,20.8-31.4,24.8-5.4-17,2.2-32.3,4.5-47.6,2.3-15.6,2.4-31.5,6.3-49.2Z" fill="#d4c7bf" fill-rule="evenodd"/><path d="M1177.3,495.3c-8.1,.3-13.7-2-18.6-5.8-3.7-4.8-3.2-10.3-2.5-15.6,4-29.9,9.4-59.5,19.9-89.1,11.7,5,14.5,15.5,18.9,25.4-5.9,28.4-11.9,56.9-17.7,85.1Z" fill="#d4c7bf" fill-rule="evenodd"/><path d="M1098.7,1625.2c-18.6-7.5-26.5-20.6-36.8-29.8-2.7-22.1-5.3-43-7.8-63.3,7.8-9.4,16.8-7.1,26.8-7.3,8.9,31.3,9,64.1,17.8,100.3Z" fill="#d4c7bf" fill-rule="evenodd"/><path d="M384,823.1c8-12.6,18.4-15.3,26.9-19.5,29,6.1,56.7,12,83.7,17.6,2.8,9.3-1,14.9-6.5,21.5-35,.2-67.9-10.3-104.1-19.6Z" fill="#d4c7bf" fill-rule="evenodd"/><path d="M918.3,474.5c-1.7-4.3-3.7-6.8-3.6-9.1,1.6-30.3-11.4-59.2-10.1-91.1,15,5.7,21.9,17.8,32.3,26.4,1.8,11.5,3.8,22.8,5.3,34.3,1.4,10.6,2.3,21.2,3.5,32.1-8.2,7.4-18.4,4.1-27.4,7.5Z" fill="#d4c7bf" fill-rule="evenodd"/><path d="M1624.3,1092.5c-3.5,.9-6.1,2.4-8.4,2.1-29.9-3.8-59.2-10.6-90.4-11.9,.2-11.3,.5-20.7,5.8-30.1,21.7,2.9,42.8,5.7,65.1,8.6,9.9,8.9,21.2,17.5,28,31.3Z" fill="#d4c7bf" fill-rule="evenodd"/><path d="M1157.5,1509.5c6.2-5.1,11.7-7.5,19.9-5.6,5.7,26.9,11.6,54.6,17.5,82.3-2.6,10.5-7.6,19.5-16,26.9-12.3-20.8-23.1-73-21.4-103.7Z" fill="#d4c7bf" fill-rule="evenodd"/><path d="M564.9,313.5c3.9,8.6,15.1,9.6,19.4,19.6-6.6,8.5-17.3,14.2-22.9,24.4-5.2,9.4-9.9,19.1-17.8,26.7l.8,.4c-.5-8.1-.2-16.3-6.1-22.9l.7,1.3c-.3-7.5-.6-15-1-22.5-.3-4.2-1.5-8.2-4.9-11.1l.6,1.2c-1.3-6.1,.9-13.3-6.1-17.4l.5,1.2c3.5-4.3,7.8-6.1,13.4-5,8.2,1.7,16.5,3.3,24.8,4.9l-1.2-.9Z" fill="#d4c7bf" fill-rule="evenodd"/><path d="M317.4,1428.6c7.2-1.6,8.5-11.3,17.6-12.2,6.4,5.9,13,12.8,20.5,18.6,7.5,5.8,15.9,10.4,26.4,17.1-13.7,5.9-25.1,8.3-37.1,8.7-4.4,.2-8.8,.9-11.3,5.3l1.1-.6c-6.1,.9-13.6-1.7-17.3,6.1l1.1-.5c-4.9-3.8-8.2-8.3-7.1-15.2,.9-5.8,1.1-11.8,1.5-17.7l-.8,1.3c6.3-1.8,5.4-7.3,6.3-11.9l-.9,1.2Z" fill="#d4c7bf" fill-rule="evenodd"/><path d="M1614.6,1455.3c5-3.7,9.6-8.2,15.1-11,13.8-7,25.3-16.8,34.8-29.8,11.1,2.6,11.9,15.6,20.8,19.5l-.9-1.2c1.6,8.3,3.2,16.5,4.9,24.8,1.1,5.5-.6,9.9-5,13.4l1.2,.5c-4.1-6.9-11.3-4.8-17.4-6.1l1.2,.6c-2.9-3.5-6.8-4.6-11.1-4.9-7.5-.5-15-.7-22.5-1l1.4,.7c-6.6-5.9-14.8-5.6-22.9-6.1l.4,.8Z" fill="#d4c7bf" fill-rule="evenodd"/><path d="M532.7,1665.3c4.5-2.5,4.7-6.9,5.4-11.2,1.8-11.2,3.7-22.3,6-35.4,11.9,5.9,13,17.6,19.6,24.7,6.5,6.9,12.8,14,18.7,20.4-.9,9.2-10.6,10.4-12.2,17.6l1.2-.9c-4.6,.9-10.2,0-11.9,6.3l1.3-.8c-5.9,.5-11.9,.6-17.7,1.5-6.9,1.1-11.3-2.2-15.2-7.1l-.5,1.1c7.7-3.8,5.1-11.2,6-17.3l-.7,1.1Z" fill="#d4c7bf" fill-rule="evenodd"/><path d="M1619.6,540.5c22.4-1,44.3-4.5,65.1-10.4,5.9,3.3,5,7.8,4.1,12.1-4.3,19.2-6.1,22.5-21,39.7-7.5,.2-8.9-7.4-13.5-11-5.6-4.4-11.1-9-16.9-13.1-5.1-3.5-10.7-6.4-15.2-9-.8-4-1.2-6.6-1.7-9.2l-.8,.9Z" fill="#d4c7bf" fill-rule="evenodd"/><path d="M1421.6,1676c-1.6-3-3.1-6.1-5.4-10.7,12.7-13.2,26.2-26.8,32.8-44,7.4-1.1,9.7,2.5,10,7.2,1,13.2,2.3,26.2,5.9,39,1,3.5,2,6.7,5.2,8.8l-.8-1.3c-.9,4,.7,8.9-5.1,12.2-7.8,.6-16.2-.3-24.3-4.3-6.2-3-12.8-5.2-19.3-7.7l1.1,.9Z" fill="#d4c7bf" fill-rule="evenodd"/><path d="M1459.2,378.4c-2.6-.5-5.2-1-9.3-1.7-8.4-15.7-18.4-31.5-34.8-43.2,13.6-18,31.9-21.8,53.4-25.1-1,14.3-5.2,25-6.8,36.2-1.7,11.5-2.3,23.1-3.4,34.7l.9-.8Z" fill="#d4c7bf" fill-rule="evenodd"/><path d="M322.6,528.8c8.5,7.3,19.1,7.7,29.4,9.2,6.9,1,14,1.3,20.9,2.6,2.1,.4,3.7,3.1,6.6,5.7-6.8,8-16.8,10-23.8,16.2-7.1,6.4-14,12.9-21.3,19.7-4-1.7-7.8-3.3-11.7-4.9l1,1.1c-2.9-7.2-6-14.4-8.7-21.7-3-8.2-5.7-16.4-1.5-25.8,3.7-.4,7-.8,10.4-1.2l-1.3-.8Z" fill="#d4c7bf" fill-rule="evenodd"/><path d="M756.2,1474.5c6.3,2.4,9.6,3.4,12.8,4.8,3.1,1.4,5.9,3.2,9.9,5.5-8.7,10.4-15.7,20.7-22.5,31.1-9.2,14-19.2,28.2-36.9,33.4-.6-1.8-2.1-3.9-1.6-4.9,12.3-22.7,24.8-45.2,38.4-69.9Z" fill="#d4c7bf" fill-rule="evenodd"/><path d="M447.3,1285.3c13.3-36.9,45.3-44.4,66.1-64.8,5.2,6.3,8.7,12.2,9,19.4-.9,1.7-1.3,4-2.6,4.7-22.4,12.7-44.9,25.3-72.5,40.8Z" fill="#d4c7bf" fill-rule="evenodd"/><path d="M1496.1,739.5c13.9-.4,24-9.5,35.6-15.4,5.9-3,11.2-9.2,19.2-5.6l-.6-.6c-4.5,17.8-18.9,27.2-32.3,36.9-9.8,7.2-21.5,11.7-28.6,21.3-9.2-4.4-10.2-11.7-12.6-18.1,3.6-10,17.5-9,20.4-19.5l-1.1,.9Z" fill="#d4c7bf" fill-rule="evenodd"/><path d="M522.1,754.6c.7,9.7-3.5,14.5-6.6,19.8-1.6,0-3.6,.6-4.7,0-8.9-5.8-17.9-11.6-26.5-18-14.2-10.5-29.4-20.2-35.2-38.4,1.3-1,2.2-2.2,2.5-2,23.5,12.6,47.8,23.6,70.5,38.7Z" fill="#d4c7bf" fill-rule="evenodd"/><path d="M755.2,521.5c-12.6-23-25.4-46.3-38.3-69.9,8.5-4.1,13.8,.9,17.6,4.8,8.8,8.9,17.4,18.3,24,28.7,5.8,9,11.4,17.9,21.1,27.3-3.3,1.9-5.5,3.4-7.9,4.6-4.7,2.4-9.4,5-16.5,4.4Z" fill="#d4c7bf" fill-rule="evenodd"/><path d="M1280.4,448.1c.2,2.6,1.3,5.7,.3,7.6-11.4,21.1-23.1,42-34.9,62.9-.8,1.4-2.8,2.1-4.3,3.3-6.8-1.5-13.6-3.2-18.5-11.2,9-9.1,14.7-21.1,22.4-31.6,9.3-12.8,18.5-26.4,35.7-30.3l-.6-.6Z" fill="#d4c7bf" fill-rule="evenodd"/><path d="M1282.7,1548c-32.1-9.5-40.4-40.6-60.1-62,5.8-6,11.5-9.4,20.3-9.6,17.6,20.6,25.4,47.8,39.8,71.6Z" fill="#d4c7bf" fill-rule="evenodd"/><path d="M1546.9,1282.4c-22.9-15.2-48.2-24.6-69.8-40,.5-8.4,3-14.8,8.5-19.8,1.7,.2,4-.2,4.9,.7,6.3,6.5,13.5,11.7,21.5,15.8,12.1,6.2,21.4,16,30.9,25.5,3.4,3.4,4,7.2,3.9,17.8Z" fill="#d4c7bf" fill-rule="evenodd"/><path d="M645.9,550.4c-1.2,10.2,8.1,15.5,11.2,24.9-2.5,8.8-9.8,13.2-19.3,16.7-12.8-19.2-6-41.7-13.6-63.3,13.2,4.5,11.3,20,22.6,22.7l-.9-1.1Z" fill="#d4c7bf" fill-rule="evenodd"/><path d="M1447.4,1352c3.4,10.8,16.5,9.9,22.6,19.7-7,3.6-13.3-1.1-19.6-1.2-8-.2-16.1-1-24.1-1.9-7.1-.8-14-2.3-19-8.2,2-8.5,7.4-14.1,14.4-18.3,10.5,.2,15.7,12.6,26.7,10.8l-1-.9Z" fill="#d4c7bf" fill-rule="evenodd"/><path d="M527.6,631.9c2.9-2,5.7-5.5,8.6-5.6,18.8-1,36.6,4.1,54.8,8,2.1,11-6,15.1-10.7,20.9-5.8,2.7-10-3.2-15.4-2.6l1,.9c-10.1-12.4-23.2-19.7-38.8-22.4l.5,.8Z" fill="#d4c7bf" fill-rule="evenodd"/><path d="M1346.3,1433.8c-1.2-4.3-2.3-8.5-3.6-13.2,4.3-6.6,9.8-11.8,17.8-13.8,1.7,1.2,4,1.9,4.4,3.2,4.2,15.5,6.9,31.2,8.1,47.2,.5,5.9-1.6,10.4-6.1,14l.8,.4c-2.7-15.7-10-28.7-22.4-38.8l.9,1Z" fill="#d4c7bf" fill-rule="evenodd"/><path d="M636,1465.3c-3.1,.8-6.1,1.5-10.5,2.6,2.5-18.2,4.7-35.5,7.4-52.7,.5-3.2,2.1-6.7,6.3-8.3,7.2,.6,11.8,6.1,16.5,11.3,2.7,3,1.1,6.7,.8,10.1l.9-.9c-11.3,10.7-19.6,23.2-22.3,38.8l1-1Z" fill="#d4c7bf" fill-rule="evenodd"/><path d="M1426.6,658.4c-10.1-3.2-15.1-11.3-19.6-19.8,11.7-8.3,34.3-12.5,59.2-11.1-3.6,6.8-10.5,8.7-15.9,12.4-8.7,5.8-19.3,9.3-24.6,19.4l1-.8Z" fill="#d4c7bf" fill-rule="evenodd"/><path d="M1339.6,573.2c7.9-3.5,11.1-11.1,15.4-17.7,4.8-7.3,9-15.1,13.8-23.4,5.2,15.1,3.3,33.3-6.1,59.2-11.4-1.8-18.2-8.8-22.4-19.1l-.8,1Z" fill="#d4c7bf" fill-rule="evenodd"/><path d="M570.5,1342.3c3.5-.2,7.2-1.7,10.3,1,2.6,2.4,5,5.1,7.3,7.7,2.4,2.7,4.1,5.8,3.5,10.7-18.3,12.5-40.5,4.5-60.5,10.9,11.5-14.1,29.9-17.2,40.4-31.2l-1.1,.9Z" fill="#d4c7bf" fill-rule="evenodd"/><path d="M204.5,1148.5c4.3-.6,8.6-1.2,14.2-2,4.1,10.1,8.4,20.5,12.5,30.5-3.2,3.7-6.6,4.1-10.1,3.1-11.6-3.5-23.2-7.2-35-10.8,4.7-10.2,17.1-11.3,19.5-21.7l-1,.9Z" fill="#d4c7bf" fill-rule="evenodd"/><path d="M851.3,1793.3c-10.4,2.4-11.4,14.9-21.6,19.5-5.2-13.9-9.4-27.8-11.3-40.2,1.8-4.5,3.2-4.8,5.3-3.9,9.6,3.9,19.3,7.7,28.6,11.4-.8,5.7-1.4,10-2,14.3l.9-1Z" fill="#d4c7bf" fill-rule="evenodd"/><path d="M856.4,211.9c-9.5,10.3-22.6,13.3-34.9,17.9-1.3-1.8-3.3-3.5-3.1-4.4,3.9-13.2,4.1-27.6,12.5-39.5,11.7,7,14,21.7,26.1,26.9l-.7-.9Z" fill="#d4c7bf" fill-rule="evenodd"/><path d="M1162.2,185.1c2.6,.3,5.2,.7,9,1.2,3.8,13.4,7.8,27.4,11.8,41.4-2.7,.8-4.5,2-5.7,1.6-9.7-3.7-19.4-7.7-28.5-11.4-1.5-15,15.3-20.3,14.4-33.6l-.9,.9Z" fill="#d4c7bf" fill-rule="evenodd"/><path d="M945.3,413.9c16.1,13,21.7,24.9,26.9,52.4-5.4,4.8-11.1,4.3-16.9,1.1-11.6-15.9-6-33.8-10-53.6Z" fill="#d4c7bf" fill-rule="evenodd"/><path d="M1582.7,1049.3c-17.8,2.4-35.3,4.1-50.7-4.6-3.8-7-4.4-12.8,1.3-19,17.8,3.9,34.6,10.8,49.4,23.6Z" fill="#d4c7bf" fill-rule="evenodd"/><path d="M1786,1141.7c.5,3.9,3.4,6,6.2,8.1,6.9,5.4,13.9,10.9,22.1,17.3-14.2,8.8-28.7,10.7-43.4,13.9,2.9-20.4,3.6-22.1,15.9-38.8l-.9-.6Z" fill="#d4c7bf" fill-rule="evenodd"/><path d="M1814.6,835.6c-4.7-.4-8.5,1.7-12.1,4.4-5.6,4.2-10.7,9.2-18.9,11.3-8.7-8.8-9.6-21.5-15.4-30.6,3.4-5.9,6.6-4.3,9.9-3.3,10.9,3.3,21.8,6.4,33.8,10,.5,2.7,1.1,5.9,1.6,9.2l.9-.9Z" fill="#d4c7bf" fill-rule="evenodd"/><path d="M1051.4,413.6c1.4,2,3.2,3.4,3,4.6-1.3,13.2-2.7,26.4-4.6,39.6-1.5,10.2-4.6,11.6-19.4,9.9-3.3-2.7-3.4-6.6-2.1-9.7,6.7-15.2,9.1-32.7,23-44.4Z" fill="#d4c7bf" fill-rule="evenodd"/><path d="M211,852.8c-8.3-7.7-16.5-15.5-25.6-24,7.5-5.3,15.8-4.2,23-6.6,6.6-2.3,12.9-6,20.2-5.2,.7,1.6,2.3,3.5,1.8,4.6-3.7,9.9-7.7,19.8-11.5,29.3-3.6,.4-6.3,.7-8.9,1.1l1.1,.9Z" fill="#d4c7bf" fill-rule="evenodd"/><path d="M1532.7,970.4c-5.3-6.7-4.4-12.3-.5-17.4,4.7-4.7,28.9-7.9,51.8-7.1-.5,7.5-7,10.4-12.1,12-13.2,4.2-24.6,14.7-39.2,12.5Z" fill="#d4c7bf" fill-rule="evenodd"/><path d="M1147,1788.9c.3-2.6,.6-5.3,1-8.9,10.3-4.1,20.9-8.4,30.9-12.4,4.8,3.5,3.1,6.9,2.2,10.2-3.2,11.1-6.3,22.2-9.6,33.6-5.3,1.7-6.9-2.9-9.6-6-5.2-6-8.6-13.6-15.9-17.7l.9,1.1Z" fill="#d4c7bf" fill-rule="evenodd"/><path d="M413.2,1052.7c19.6-16.8,32-22.2,53.5-25.3,.9,1.5,2.3,2.9,2.4,4.5,.4,3.4,.1,6.9,.1,10.9-15.4,12.4-33.3,7.6-56.1,9.9Z" fill="#d4c7bf" fill-rule="evenodd"/><path d="M946,1585.4c2.2-22-1.5-38.9,8.3-54,6-3.4,11.7-3.7,17.2,.7-3.4,22.2-8.8,34.2-25.4,53.3Z" fill="#d4c7bf" fill-rule="evenodd"/><path d="M466.1,972c-19.3-6.1-37.4-10.4-51.2-23.8,1.2-5.6,5.2-4.6,8.2-4.2,14,1.8,27.9,4,41.6,6.1q4.9,9.4,1.4,21.9Z" fill="#d4c7bf" fill-rule="evenodd"/><path d="M1029.4,1531.7c2-.8,4.3-2.4,6.8-2.5,3.4,0,6.8,1,10.8,1.6,6.5,17.2,3.6,35.1,8.4,52.6-3.2-.4-5.1-.1-6-.9-11.1-10.1-12.9-25-19.4-37.5-2-3.9-2.8-8.3-.5-13.3Z" fill="#d4c7bf" fill-rule="evenodd"/><path d="M1199.2,1547.3c-2.9-1.8-5.1-2.4-5.7-3.7-5.8-11.9-6.7-25.1-9.1-37.8-.9-4.6,1.8-8.4,6.9-9.4,1.2,1.1,3.3,2.1,3.4,3.2,1.6,15.5,3,31.1,4.5,47.7Z" fill="#d4c7bf" fill-rule="evenodd"/><path d="M452.9,801c1.6-.4,3.3-1.5,4.9-1.3,14.8,1.6,29.5,3.4,43.9,5.1,1.2,4.9-.5,8.5-4.1,8.7-15.8,.7-31-2-44.6-10.5-.3-.2,0-1.3,0-2Z" fill="#d4c7bf" fill-rule="evenodd"/><path d="M807,1496.2c5.8,.3,7.2,4.4,7.4,9.1,.5,14.5-4.1,27.8-8.5,42.8-6-6.4-4.3-12.5-3.9-18.3,.3-5.3,.6-10.8,2.2-15.9,1.8-5.8-2.6-12.5,2.8-17.7Z" fill="#d4c7bf" fill-rule="evenodd"/><path d="M446.9,1193.3c21.3-4.2,36.5-13.6,53.9-6.1,1,.4,1.2,3,1.7,4.6-1.4,.8-2.8,2.3-4.3,2.4-13.3,1.1-26.7,2-40,2.7-1.6,.1-3.3-1-11.3-3.6Z" fill="#d4c7bf" fill-rule="evenodd"/><path d="M1199.3,450.8c-1.9,18.1-3.4,33.4-5,48.6-8.6,2.9-10.6-2.9-9.8-7.7,2-12.7,3.3-25.8,8.8-37.7,.3-.6,1.4-.8,5.9-3.3Z" fill="#d4c7bf" fill-rule="evenodd"/><path d="M1546,801.5c-.6,1.5-.9,4.1-1.9,4.4-12.6,4.3-25.4,7.5-38.7,8.4-3.3,.2-4.8-2.2-6.7-9.7,15.1-1.5,30.1-3.1,45.2-4.6,.7,0,1.5,1,2.2,1.5Z" fill="#d4c7bf" fill-rule="evenodd"/><path d="M804.5,450.8c7.7,14.9,10.6,29.2,9.4,44.4-.3,3.8-2.3,6.6-8.3,4.9-1.3-13.2-2.7-27-3.8-40.8-.2-2.3,1.4-4.7,2.7-8.5Z" fill="#d4c7bf" fill-rule="evenodd"/><path d="M1548.4,1194.6c-18.5,6.6-34-3.2-49.6-.6-1.6-7,1.2-8.9,5-9.2,15.2-1.1,29.6,1.6,44.7,9.7Z" fill="#d4c7bf" fill-rule="evenodd"/><path d="M1554.4,998.8c0,4.8-4.7,9.6-9.8,10.1-5.2,.5-10-3.7-10.2-9.2-.3-6.6,5.2-12.6,10.7-11.7,4.8,.8,9.4,6.1,9.4,10.8Z" fill="#d4c7bf" fill-rule="evenodd"/><path d="M1400.1,1389.5c-.7,5.6-5.4,10.1-10.5,10.1s-10.4-5.6-9.8-10.5c.8-6.3,7.3-10.9,13.5-9.6,4.2,.9,7.3,5.6,6.8,10Z" fill="#d4c7bf" fill-rule="evenodd"/><path d="M619.8,607.2c.2,4.8-4.5,10.8-9.2,11.8-4.8,1-10.7-3.6-11.4-9-.8-5.7,5.6-12,11.8-11.5,3.9,.3,8.6,4.9,8.7,8.7Z" fill="#d4c7bf" fill-rule="evenodd"/><path d="M598.9,1387.6c7.2-9.2,9.4-10.2,14.5-7.4,4.3,2.3,6.6,5.8,6.1,10.8-.4,3.9-5.3,9-8.7,8.7-7.2-.6-11-5-11.9-12.1Z" fill="#d4c7bf" fill-rule="evenodd"/><path d="M998.9,464.5c-5.4-.4-9.6-5.3-9-10.4,.6-5.2,5.4-9.7,10.2-9.6,5.9,0,11.9,6.8,10.7,12.1-1,4.5-6.8,8.3-12,8Z" fill="#d4c7bf" fill-rule="evenodd"/><path d="M785.7,482c3.9-.2,8.7,4,9.2,8,.5,4-3.4,8.9-7.5,9.6-5.3,.8-11.2-4.3-10.6-9.3,.5-4.2,4.7-8.1,9-8.3Z" fill="#d4c7bf" fill-rule="evenodd"/><path d="M897.4,307.7c-.3,4.7-3.3,7.5-7.8,8.6-5.1,1.3-10.8-3.4-10.6-8.4,.1-5,3.4-7.8,7.8-9,4.9-1.3,10.5,3.4,10.7,8.8Z" fill="#d4c7bf" fill-rule="evenodd"/><path d="M457.4,988.1c4.9,.8,8.2,5.9,7.9,11.9-.3,5.5-5.7,10-10.8,8.9-5.3-1.1-8.9-6.4-8-11.8,.9-5.5,6.1-9.8,10.9-9.1Z" fill="#d4c7bf" fill-rule="evenodd"/><path d="M1010.8,1542.7c-.3,5.1-5,9.5-10.5,9.7-5.6,.3-10.1-3.7-10.5-9.4-.4-5.5,3.9-9.5,10.1-9.4,6.2,.1,11.1,4.2,10.9,9.1Z" fill="#d4c7bf" fill-rule="evenodd"/><path d="M1700,1110.7c-.1,5.3-5.4,10.1-10.2,9.1-4.7-1.1-7.3-4.2-7.4-9.1,0-5.1,5.5-10.2,10.2-9.4,3.5,.6,7.5,5.6,7.4,9.4Z" fill="#d4c7bf" fill-rule="evenodd"/><path d="M1224.6,373.8c-.4,4.6-4.2,8.2-8.5,8.1-5.3-.1-9.9-5.7-8.7-10.5,.9-3.7,6.2-7.3,9.9-6.7,4.3,.7,7.7,5,7.4,9.2Z" fill="#d4c7bf" fill-rule="evenodd"/><path d="M1626.2,774.2c4.6,.4,8.2,4.2,8.1,8.5-.1,5.3-5.7,9.9-10.5,8.7-3.7-.9-7.3-6.2-6.7-9.9,.7-4.3,4.9-7.7,9.2-7.4Z" fill="#d4c7bf" fill-rule="evenodd"/><path d="M1508.9,1203.9c4,.5,8.2,5.3,7.9,9.2-.3,5.4-6.2,10.1-11,8.7-3.8-1.1-7.2-6.6-6.6-10.5,.7-4.2,5.7-8,9.6-7.5Z" fill="#d4c7bf" fill-rule="evenodd"/><path d="M1400.1,609.2c-.1,5.5-5.5,10.5-10.2,9.5-5.2-1-9.8-6.1-10.1-10.9-.2-4.7,5.5-9.6,10.8-9.2,5.5,.4,9.7,5.1,9.5,10.6Z" fill="#d4c7bf" fill-rule="evenodd"/><path d="M1204.4,1664.1c.4,4-3.7,8.7-8,9.2-4.3,.5-8.4-3.2-8.9-8.1-.4-4.4,3.3-8.8,7.8-9.1,4.2-.3,8.6,3.6,9,8Z" fill="#d4c7bf" fill-rule="evenodd"/><path d="M342.7,804.1c-.8,4.5-5.3,7.8-9.7,7.1-4.5-.7-8.2-5.6-7.4-9.6,.8-4,6.2-7.9,10-7.3,4.1,.7,7.9,5.9,7.2,9.8Z" fill="#d4c7bf" fill-rule="evenodd"/><path d="M1445.9,595.9c-.7,3.9-5.7,7.9-9.3,7.1-4.6-1.1-7.3-4.1-7.4-8.9,0-4,4.5-7.2,9.2-6.8,4.5,.4,8.2,4.7,7.5,8.6Z" fill="#d4c7bf" fill-rule="evenodd"/><path d="M1548.6,775.5c0,4.2-4.3,8-8.9,7.9-4.4,0-8.8-4.4-8.5-8.4,.2-4,5-8.3,9-8.1,4.2,.2,8.5,4.5,8.5,8.6Z" fill="#d4c7bf" fill-rule="evenodd"/><path d="M1223.2,467.6c-4.3-.1-8.1-4.5-7.8-9,.2-4.5,4.6-8.8,8.6-8.4,3.9,.3,8.1,5.2,7.9,9.2-.1,4.2-4.5,8.3-8.7,8.2Z" fill="#d4c7bf" fill-rule="evenodd"/><path d="M589.7,1526.5c-.4,4-5.2,8-8.8,7.5-4.2-.6-7.6-4.6-7.5-8.8,.1-4.1,4.4-7.7,8.8-7.4,4.3,.3,8,4.6,7.6,8.6Z" fill="#d4c7bf" fill-rule="evenodd"/><path d="M1214,499.7c-3.9,0-8.1-4.3-8.4-8.4-.3-5.5,4.6-10,9.8-9.1,4.3,.8,7.4,4.9,7.1,9.4-.3,4-4.8,8.2-8.6,8.2Z" fill="#d4c7bf" fill-rule="evenodd"/><path d="M1269.7,426c-.4,4.3-4.4,7.6-8.9,7.5-4.6,0-8.2-3.6-8.4-8.1-.2-5.3,5.2-10,10.2-8.9,4,.8,7.5,5.5,7.1,9.5Z" fill="#d4c7bf" fill-rule="evenodd"/><path d="M738.1,416.6c4.3-.2,7.7,1.8,9.3,6.5,1.7,5.2-2.3,10.3-8,10.5-4.6,.2-8.4-3.1-8.8-7.6-.4-4.5,2.8-8.6,7.5-9.4Z" fill="#d4c7bf" fill-rule="evenodd"/><path d="M1612,622c-1.1,4-6.1,6.7-10.3,5.4-4.3-1.2-7-6-5.7-10.1,1.4-4.2,6.5-7.1,10.2-5.8,3.8,1.4,6.8,6.8,5.8,10.4Z" fill="#d4c7bf" fill-rule="evenodd"/><path d="M1703.1,1154.5c.5,4.6-3.1,8.8-7.6,8.8-5.2,0-8-3.3-9.6-7.5-1.4-3.8,2.3-9.3,6.3-10.1,5.1-1,10.3,3.2,10.9,8.8Z" fill="#d4c7bf" fill-rule="evenodd"/><path d="M313.4,1153.6c.2,5.7-4.3,10.2-9.5,9.6-4.4-.5-7.7-4.6-7.2-9,.6-5.1,4-7.5,8.4-8.5,3.8-.8,8.2,3.7,8.3,7.9Z" fill="#d4c7bf" fill-rule="evenodd"/><path d="M700,393.6c4.5,0,8.6,3.6,8.6,7.7,0,3.9-4.2,8-8.2,8.2-3.8,.2-8.4-4-8.6-7.9-.2-3.9,4-8,8.3-8Z" fill="#d4c7bf" fill-rule="evenodd"/><path d="M1380.1,403.3c-3.9,.5-8.4-3.4-8.9-7.6-.5-4.5,3.1-9.1,7.2-9,4.9,.1,8,2.7,9.1,7.5,.8,3.7-3.3,8.7-7.4,9.2Z" fill="#d4c7bf" fill-rule="evenodd"/><path d="M739.4,1580.9c-4.7,.2-8.4-3.2-8.9-7.9-.5-4.6,2.6-8.8,7.1-9.6,5.2-.9,10.4,3.6,10.4,9.2,0,4.3-4,8.2-8.5,8.3Z" fill="#d4c7bf" fill-rule="evenodd"/><path d="M1605.1,1298.3c.2,4.6-3.2,8.6-7.5,8.7-4.1,0-8.2-3.8-8.4-7.9-.1-3.8,3.9-8.6,7.7-8.9,3.8-.4,8,3.8,8.2,8.2Z" fill="#d4c7bf" fill-rule="evenodd"/><path d="M307.8,1101.8c4-.4,8.7,3.1,9.7,7.1,1.1,4.7-3.7,10.9-8.5,11.1-3.9,.1-7.9-4.1-8.2-8.7-.3-4.8,2.9-9.1,7-9.5Z" fill="#d4c7bf" fill-rule="evenodd"/><path d="M1269.8,1571.9c.4,4.1-3.6,8.7-7.9,9.1-4.4,.4-8.8-2.9-9.6-7.4-.8-4.2,2.4-9.3,6.4-10.3,5.1-1.3,10.6,3,11.1,8.6Z" fill="#d4c7bf" fill-rule="evenodd"/><path d="M843.7,295.6c5.5,.2,10.3,5.4,9.7,10.4-.5,3.9-6,8-9.8,6.9-4.5-1.2-7.7-4-8.1-9.1-.4-4.2,3.9-8.5,8.2-8.3Z" fill="#d4c7bf" fill-rule="evenodd"/><path d="M1163.6,304.7c-.6,5.7-5.6,9.4-10.7,8-4.4-1.2-7.3-5.7-6-9.8,1.4-4.6,4.7-6.9,9.5-6.8,4.4,0,7.7,4.1,7.2,8.7Z" fill="#d4c7bf" fill-rule="evenodd"/><path d="M1112.9,316.3c-4.2,.5-8.6-2.7-9.6-6.9-1.2-5.2,3.3-10.7,8.6-10.6,4.2,0,8.2,4,8.4,8.4,.3,4.5-3.1,8.7-7.5,9.2Z" fill="#d4c7bf" fill-rule="evenodd"/><path d="M1508.5,793.2c-4.3,.3-8.6-3.2-9.1-7.4-.5-4.1,2.8-8.6,7-9.5,5.1-1,10.8,3.6,10.6,8.6-.1,3.8-4.5,8.1-8.5,8.3Z" fill="#d4c7bf" fill-rule="evenodd"/><path d="M382.6,783.1c0,4.2-4.4,8.8-8.3,8.7-3.9,0-8.1-4.7-8.1-8.9,0-4.2,4.3-8.7,8.3-8.6,4,0,8.2,4.6,8.1,8.8Z" fill="#d4c7bf" fill-rule="evenodd"/><path d="M1699.8,888.4c-.7,4.4-4.7,7.6-9.2,7.2-5.5-.5-9.3-6.1-7.6-11.1,1.4-4.2,6.1-7,10.2-6,4.1,1,7.3,5.7,6.6,9.9Z" fill="#d4c7bf" fill-rule="evenodd"/><path d="M1582.3,737.8c-.5,5.3-4.6,8.8-8.9,8.6-4.5-.2-8-3.8-8.1-8.4,0-5.7,4.9-10.1,10-8.7,4.7,1.3,7,4.6,7,8.5Z" fill="#d4c7bf" fill-rule="evenodd"/><path d="M427,746.6c-4.6,.2-8.5-3.2-9-7.9-.5-4.6,2.7-8.9,7.1-9.6,5.3-.9,10.5,3.7,10.5,9.2,0,4.4-3.9,8.1-8.6,8.3Z" fill="#d4c7bf" fill-rule="evenodd"/><path d="M1573.2,1250.9c4,0,8.4,3.6,9,7.7,.8,5.2-4,10.1-9.4,9.6-4.5-.4-7.8-4.2-7.6-8.8,.2-4.6,3.7-8.4,8-8.5Z" fill="#d4c7bf" fill-rule="evenodd"/><path d="M1695,852c-4.3,.5-8.5-2.8-9.1-7.1-.7-5.2,3.6-9.7,9.2-9.7,3.9,0,6.5,2,7.4,5.7,1.4,5.2-2.4,10.6-7.6,11.1Z" fill="#d4c7bf" fill-rule="evenodd"/><path d="M1224.4,1624.8c-.3,4.3-4.6,8.1-9,7.8-4.3-.3-8.5-4.6-8.3-8.6,.2-4,4.8-7.9,9.1-7.8,4.3,0,8.4,4.4,8.2,8.5Z" fill="#d4c7bf" fill-rule="evenodd"/><path d="M888.6,1681.3c3.8,.2,8.5,4.6,8.7,8.3,.4,4.8-5.6,9.3-11,8.4-4.3-.8-7.9-5.5-7.1-9.3,.9-4.4,5.1-7.7,9.4-7.4Z" fill="#d4c7bf" fill-rule="evenodd"/><path d="M1404.2,569.7c-4.5-.5-7.7-2.9-8.5-7.7-.6-3.6,3.5-8.6,7.3-9.2,3.9-.6,8,3.3,8.4,7.9,.3,4.7-3,9-7.2,9.1Z" fill="#d4c7bf" fill-rule="evenodd"/><path d="M1624.9,1223.1c-4.3-.4-8.1-4.8-7.7-9,.4-4.3,4.7-7.9,9.2-7.5,4.3,.3,8.2,4.9,7.8,8.9-.5,4.2-5.1,8-9.3,7.6Z" fill="#d4c7bf" fill-rule="evenodd"/><path d="M852.9,1692.1c.6,5.3-3.7,10-9.2,10.1-4,0-8.7-4.3-8.3-8.2,.5-4.7,3.2-7.8,8.1-8.6,4.7-.7,8.9,2.3,9.4,6.7Z" fill="#d4c7bf" fill-rule="evenodd"/><path d="M792.2,372.1c.6,4.4-2.9,8.9-7.2,9.4-4.4,.5-8.6-2.8-9.2-7.3-.6-4.4,2.8-8.8,7.2-9.4,4.2-.6,8.6,2.9,9.2,7.4Z" fill="#d4c7bf" fill-rule="evenodd"/><path d="M480.9,1418c-.4,4.3-4.7,8.2-8.6,7.6-3.8-.5-7.9-5.4-7.5-9,.5-4.2,4.5-7.6,8.8-7.4,4.2,.2,7.7,4.4,7.3,8.8Z" fill="#d4c7bf" fill-rule="evenodd"/><path d="M1018.4,400.6c4-.5,8.7,3.5,8.8,7.5,0,3.9-4.3,8.4-8.4,8.1-3.7-.3-6.4-2.2-7-6.3-.6-4.7,2.3-8.7,6.6-9.3Z" fill="#d4c7bf" fill-rule="evenodd"/><path d="M601.7,422.4c.5,4-3,8.4-7.3,9.1-4.4,.8-8.7-2.5-9.3-6.9-.5-4.4,2.8-8.5,7.2-9,4.6-.5,8.9,2.6,9.4,6.8Z" fill="#d4c7bf" fill-rule="evenodd"/><path d="M1405.8,431.3c-4.5-.6-7.6-5-6.7-9.5,.8-4.1,3.9-5.7,7.5-6,4.2-.3,8.7,4.3,8.5,8.2-.2,4.1-5,7.8-9.4,7.3Z" fill="#d4c7bf" fill-rule="evenodd"/><path d="M768.8,459.1c0-4.6,3.8-9,7.9-9s8.3,4.2,8.6,8.5c.3,4-4.1,9-8,9.1-3.8,.1-8.4-4.5-8.5-8.6Z" fill="#d4c7bf" fill-rule="evenodd"/><path d="M1417.6,464.4c4.2-.5,8.9,3.5,9,7.7,0,4-4.6,8.9-8.5,8.2-3.6-.5-6.5-2.5-7.3-6.5-.9-4.6,2.2-8.9,6.8-9.4Z" fill="#d4c7bf" fill-rule="evenodd"/><path d="M417.8,1016.4c.6,4.2-3.2,8.5-7.8,8.7-4,.2-6.7-1.8-8-5.4-1.4-3.8,2-9.2,6.1-10.2,4-.9,9.1,2.6,9.7,6.9Z" fill="#d4c7bf" fill-rule="evenodd"/><path d="M468.1,777.5c-1.2,4.2-5.6,6.5-10.1,5.3-4.5-1.2-6.8-5.3-5.5-9.8,1.3-4.5,5.6-6.9,9.9-5.6,4.4,1.4,6.9,5.9,5.7,10Z" fill="#d4c7bf" fill-rule="evenodd"/><path d="M1598.2,980.5c-.6,4.4-4.7,7.2-9.4,6.5-4-.6-5.9-3.3-6.2-7.1-.3-4.1,4.2-8.4,8.2-8.3,4,0,8,4.8,7.4,8.9Z" fill="#d4c7bf" fill-rule="evenodd"/><path d="M597,1444.1c-4.7,.7-8.7-2.5-9.2-7.2-.4-4.3,3.7-9.2,7.8-8.8,3.7,.4,6.6,2.3,7.5,6.2,1.2,4.5-1.7,9.1-6.2,9.8Z" fill="#d4c7bf" fill-rule="evenodd"/><path d="M409.5,971.7c4.3,.2,8.3,4.3,8.3,8.5,0,4.3-4.9,8-9.4,7.1-3.7-.8-6.3-3.1-6.8-7.1-.6-4.3,3.6-8.7,7.9-8.5Z" fill="#d4c7bf" fill-rule="evenodd"/><path d="M394.2,668.1c-4,.8-8.8-2.8-9.5-7-.6-4.1,3.2-8.4,7.6-8.6,4-.1,6.5,2,7.6,5.6,1.3,4.2-1.6,9.2-5.7,9.9Z" fill="#d4c7bf" fill-rule="evenodd"/><path d="M1480.9,1421.2c-4,.2-8.2-4-8.3-8.2,0-4.3,3.9-8,8.4-8,4.5,0,8.6,4,8.4,7.9-.2,3.9-4.5,8.1-8.5,8.2Z" fill="#d4c7bf" fill-rule="evenodd"/><path d="M527.5,1412.1c0,4-3.9,8.6-7.7,9-4,.4-8.3-3.5-8.7-7.9-.4-4.4,3.1-8.4,7.7-8.7,4.5-.3,8.7,3.3,8.7,7.6Z" fill="#d4c7bf" fill-rule="evenodd"/><path d="M1576.5,1397.2c4.1,.5,7.2,5,6.7,9.5-.5,4.4-4.8,7.6-9.1,7-4.4-.6-7.6-5-6.8-9.4,.8-4.2,5.3-7.6,9.2-7.1Z" fill="#d4c7bf" fill-rule="evenodd"/><path d="M570.7,1403.8c-.3,4.3-5,7.7-9.5,7-4.1-.6-6.1-3.5-6.7-7.1-.7-3.9,4-8.7,8-8.6,4.1,0,8.5,4.8,8.1,8.8Z" fill="#d4c7bf" fill-rule="evenodd"/><path d="M425.5,1397.2c4,.6,6.9,5,6.4,9.6-.5,4.3-4.9,7.5-9.1,6.7-4.3-.9-7.6-5.5-6.8-9.5,.8-3.8,5.8-7.4,9.5-6.8Z" fill="#d4c7bf" fill-rule="evenodd"/><path d="M317.4,888c-.7,4.5-4.8,7.7-9.4,7.3-4.3-.3-7.5-4.6-6.9-9.4,.5-4.7,4.7-8,9.1-7.3,4.5,.8,7.9,5.2,7.3,9.3Z" fill="#d4c7bf" fill-rule="evenodd"/><path d="M409.9,698.3c.3,4.3-3.7,8.8-7.7,8.8-4.1,0-8.5-4.7-7.9-8.7,.6-3.7,2.8-6.3,6.6-7.2,4.2-1,8.7,2.6,9,7.1Z" fill="#d4c7bf" fill-rule="evenodd"/><path d="M1605,699.3c-.1,4.3-4.7,8.5-8.7,7.5-3.6-.8-6.3-3-6.9-6.9-.7-4.1,3.3-8.7,7.5-9,3.9-.3,8.2,4.1,8.1,8.4Z" fill="#d4c7bf" fill-rule="evenodd"/><path d="M1666.2,1186.1c4.2,0,8.2,4.8,7.7,9.1-.5,4.6-4.8,7.7-9.5,6.9-4.2-.7-6.1-3.6-6.5-7.4-.5-4.1,4.2-8.8,8.3-8.7Z" fill="#d4c7bf" fill-rule="evenodd"/><path d="M794.6,1505.3c.7,3.9-2.7,8.6-6.9,9.5-4.1,.9-8.9-1.8-10.3-5.8-1.6-4.7,2.5-10.4,7.8-11,4.1-.4,8.7,3.1,9.3,7.2Z" fill="#d4c7bf" fill-rule="evenodd"/><path d="M492.4,1203.9c3.6,0,8.1,4.7,8.3,8.5,.2,5.4-4.6,10-9.8,9.3-4.1-.5-7.3-4.9-6.9-9.4,.3-4,4.8-8.4,8.4-8.4Z" fill="#d4c7bf" fill-rule="evenodd"/><path d="M366.2,1215c0-3.9,4.3-8.3,8.2-8.3,3.9,0,8.2,4.4,8.1,8.3,0,3.8-4.4,8.3-8.1,8.3s-8.1-4.5-8.2-8.3Z" fill="#d4c7bf" fill-rule="evenodd"/><path d="M461.3,1213.7c4.5,.7,7.5,4.7,7,9.2-.5,4.2-4.6,7.3-9.2,6.8-4.4-.4-7.7-4.7-6.9-8.9,.8-4.5,5-7.8,9.1-7.1Z" fill="#d4c7bf" fill-rule="evenodd"/><path d="M1540.6,1213.5c4.4,.6,8.2,4.7,8,8.9-.1,4.2-4.6,7.8-9.2,7.5-4.2-.3-8.4-4.9-8.1-8.8,.3-4,5.3-8.1,9.3-7.6Z" fill="#d4c7bf" fill-rule="evenodd"/><path d="M313.2,842.6c.6,4.6-2.8,9.1-6.9,9.1-5.1,0-8-2.9-9.3-7.5-1.2-4.1,2.5-8.5,7.1-8.9,4.4-.4,8.5,2.8,9.1,7.3Z" fill="#d4c7bf" fill-rule="evenodd"/><path d="M435.5,1259.1c.3,3.8-3.7,8.4-7.7,8.9-4.2,.5-8.7-2.7-9.5-6.9-1-5.5,3.2-10.6,8.6-10.2,5,.4,7.4,3.7,8.6,8.2Z" fill="#d4c7bf" fill-rule="evenodd"/><path d="M1665.9,794.3c3.6,.1,8,4.8,8.1,8.8,.2,4.1-4.2,8.4-8.2,8.3-4.1,0-8.2-4.4-8.2-8.6,0-4.1,4.5-8.7,8.3-8.5Z" fill="#d4c7bf" fill-rule="evenodd"/><path d="M500.6,784c.4,4.1-3.3,8.6-7.6,9.1-4.3,.5-8.4-3.1-8.9-7.6-.5-4.5,3-8.7,7.4-9,4.3-.3,8.6,3.3,9.1,7.6Z" fill="#d4c7bf" fill-rule="evenodd"/><path d="M410,1298.5c0,4.3-3.8,8.5-7.8,8.5-3.9,0-8.1-4.3-8.1-8.3,0-3.9,4.3-8.5,7.9-8.7,3.7-.1,7.9,4.4,7.9,8.5Z" fill="#d4c7bf" fill-rule="evenodd"/><path d="M585.1,1487.8c-4.2-.6-7.9-5.3-7.3-9.1,.7-4.2,5.1-7.7,9.3-7.3,4.3,.4,7.4,4.5,7,9.1-.5,4.5-4.6,7.8-9,7.2Z" fill="#d4c7bf" fill-rule="evenodd"/><path d="M395.3,1369.4c4.1-.3,9,3.9,8.8,8.1-.2,3.7-2,6.8-6.1,7.6-4.6,1-9.1-1.9-9.9-6.4-.8-4.4,2.9-9.1,7.2-9.4Z" fill="#d4c7bf" fill-rule="evenodd"/><path d="M1421.6,1479.8c0,4.2-4.7,8.5-8.9,7.7-3.7-.7-6.5-2.8-7.1-6.9-.6-4.3,3.2-9,7.5-9.3,4-.2,8.5,4.3,8.5,8.5Z" fill="#d4c7bf" fill-rule="evenodd"/><path d="M404.3,618.6c.6,4.4-2.7,8.7-7.2,9.4-4.5,.7-8.9-2.5-9.3-6.8-.4-4.3,2.7-8.5,7.1-9.5,4-.9,8.8,2.7,9.3,7Z" fill="#d4c7bf" fill-rule="evenodd"/><path d="M1222.3,1507.4c-.3,4.4-4.6,7.8-9.1,7.3-4.5-.5-8.1-4.7-7.6-8.9,.5-4.3,5-8,9.1-7.5,4.3,.5,7.8,4.8,7.5,9.1Z" fill="#d4c7bf" fill-rule="evenodd"/><path d="M1583,591.1c.5,4.3-3.3,9.2-7.5,8.9-3.7-.3-6.6-2.1-7.7-5.9-1.3-4.4,1.5-9,6-10,4.3-.9,8.6,2.4,9.2,7.1Z" fill="#d4c7bf" fill-rule="evenodd"/><path d="M1489.4,585.8c-.4,3.9-5.2,7.8-9.2,7.6-4.2-.2-8.1-4.5-7.7-8.7,.4-4.3,4.7-7.9,9-7.6,4.4,.3,8.3,4.7,7.9,8.7Z" fill="#d4c7bf" fill-rule="evenodd"/><path d="M518.2,593.1c-4.6-.7-7.5-5.1-6.6-9.7,.8-4.1,3.9-5.8,7.6-6.2,4.1-.4,8.6,4.5,8.4,8.5-.2,4.2-5.1,8-9.3,7.4Z" fill="#d4c7bf" fill-rule="evenodd"/><path d="M1534.5,580.8c-.3,4.3-5,8.2-9.2,7.3-3.9-.8-6.2-3.3-6.8-7.1-.7-4,3.8-8.8,7.9-8.9,3.9,0,8.4,4.7,8.1,8.7Z" fill="#d4c7bf" fill-rule="evenodd"/><path d="M785.1,1539.7c-.6,4.3-4.6,7.3-9.3,6.9-4.2-.4-7.3-4.7-6.7-9.1,.6-4.4,5-7.8,9-7,4.4,.8,7.6,5.1,6.9,9.3Z" fill="#d4c7bf" fill-rule="evenodd"/><path d="M1231.8,1538c.4,3.9-3.4,8.4-7.6,8.8-4.2,.4-8.3-3.2-8.7-7.6-.3-4.4,3.1-8.6,7.4-8.8,4.2-.3,8.4,3.4,8.8,7.6Z" fill="#d4c7bf" fill-rule="evenodd"/><path d="M591.9,1582.7c-4.2-.7-7.2-5.1-6.5-9.5,.6-4.2,5.1-7.2,9.5-6.4,4.4,.8,7.8,5.4,6.7,9.2-1.2,4.2-5.8,7.3-9.7,6.6Z" fill="#d4c7bf" fill-rule="evenodd"/><path d="M980,1597c-4.3-.6-7.5-5.6-6.2-9.9,1.1-3.7,3.9-6,7.7-6.2,3.9-.3,8.3,5,7.8,8.9-.6,4.6-4.8,7.8-9.3,7.2Z" fill="#d4c7bf" fill-rule="evenodd"/><path d="M1019.4,1580.7c5.3,2.2,9.9,5.1,6.9,11.8-.9,2-3.7,4.2-5.9,4.5-3.6,.6-7-1-8.3-5-2.1-6.5,1-10,7.3-11.3Z" fill="#d4c7bf" fill-rule="evenodd"/><path d="M708.6,1597.6c-.6,4-5.3,7.6-9.3,7.1-4.4-.5-7.7-4.6-7.2-8.9,.4-4.2,4.7-7.5,9.2-7,4.3,.5,8,4.9,7.4,8.8Z" fill="#d4c7bf" fill-rule="evenodd"/><path d="M1300,1588.8c4.2,0,8.5,4.6,7.9,8.6-.6,4.3-5.1,7.8-9.4,7-4.1-.7-5.9-3.6-6.6-7.2-.7-3.9,3.8-8.5,8-8.5Z" fill="#d4c7bf" fill-rule="evenodd"/><path d="M1346.3,1606.7c-.3,4.5-4.7,8.1-8.8,7.4-4.2-.7-7.8-5.7-6.8-9.6,1-3.8,4-5.6,7.6-6,4.4-.4,8.3,3.8,8,8.2Z" fill="#d4c7bf" fill-rule="evenodd"/><path d="M1387.4,1602.1c.1,4-3.7,8.2-8,8.8-4.2,.6-8.6-3.1-8.8-7.6-.2-4.3,3.5-8.5,7.8-8.8,4.4-.3,8.9,3.5,9,7.5Z" fill="#d4c7bf" fill-rule="evenodd"/><path d="M783.1,1616.4c4.2-.4,8.4,3,8.8,7.3,.4,4.2-3.1,8.3-7.4,8.7-4.2,.4-8.4-3.1-8.9-7.3-.4-4.1,3.1-8.3,7.4-8.7Z" fill="#d4c7bf" fill-rule="evenodd"/><path d="M1120,1691.3c-.6,4.4-4.8,7-9.8,6.3-4.7-.7-7.7-5-6.6-9.4,1.2-4.7,5.3-7.4,9.8-6.7,4.4,.8,7.3,5.1,6.6,9.8Z" fill="#d4c7bf" fill-rule="evenodd"/><path d="M812.6,332.5c.1,4-4.4,8.8-8.5,8.4-3.7-.4-6.7-2.3-7.5-6.4-.9-4.7,2.2-9,6.8-9.6,4.3-.6,9,3.4,9.2,7.6Z" fill="#d4c7bf" fill-rule="evenodd"/><path d="M1156.1,1702c-5.5-.1-9.9-5.2-8.9-10.4,.8-4.1,3.9-5.6,7.4-6.1,4.5-.6,8.3,3,8.8,7.6,.5,4.5-3.2,8.9-7.4,8.8Z" fill="#d4c7bf" fill-rule="evenodd"/><path d="M1195.9,341.2c-4.2,0-8.5-4.1-8.6-8.2,0-4.1,4.3-8.3,8.4-8.2,4,.2,8.6,4.5,8.7,8.2,.1,3.8-4.4,8.2-8.6,8.2Z" fill="#d4c7bf" fill-rule="evenodd"/><path d="M1421.7,517c.5,4.4-3,8.7-7.3,9.2-4.2,.5-8.5-3.1-8.9-7.4-.4-4.1,3.3-8.7,7.4-9.3,3.9-.6,8.5,3.2,8.9,7.5Z" fill="#d4c7bf" fill-rule="evenodd"/><path d="M585,526.1c-4.2-.5-8-5.3-7.4-9.1,.7-4,5-7.6,9.1-7.4,4,.2,7.5,4.6,7.1,9.1-.4,4.4-4.7,8-8.8,7.5Z" fill="#d4c7bf" fill-rule="evenodd"/><path d="M1307.9,402.2c-.5,4.3-5.2,7.9-9.3,7.1-4.4-.8-7.4-5.5-6.4-9.8,1-4.1,4.2-5.5,7.7-5.8,4.2-.3,8.5,4.5,8,8.5Z" fill="#d4c7bf" fill-rule="evenodd"/><path d="M620.3,1610.8c-4.6-.7-7.5-4.9-6.7-9.7,.7-4.2,3.7-6,7.4-6.3,4.2-.3,8.6,4.4,8.5,8.5,0,4.2-5,8.2-9.2,7.5Z" fill="#d4c7bf" fill-rule="evenodd"/><path d="M365.5,1043.8c.3-4.4,4.9-8.3,8.7-7.4,4.5,1,7.5,5.4,6.6,9.6-.9,4.1-4.1,5.5-7.5,6.1-4.1,.7-8.2-3.8-7.8-8.2Z" fill="#d4c7bf" fill-rule="evenodd"/><path d="M1080.9,1674.4c-4-.2-8-4.4-7.9-8.4,0-4,4.3-7.4,8.8-7,4.1,.3,5.8,3.1,6.2,6.7,.4,4.5-3.3,8.8-7.1,8.7Z" fill="#d4c7bf" fill-rule="evenodd"/><path d="M919,1658.8c4.3,0,8.1,4.3,7.2,8.5-.7,3.5-2.5,6.3-6.5,6.9-4,.6-8.5-3.2-8.8-7.3-.4-3.9,3.8-8.1,8-8.1Z" fill="#d4c7bf" fill-rule="evenodd"/><path d="M812.6,1663.7c.6,4-3.1,8.9-7.2,9.4-3.9,.5-8.5-3.2-9.1-7.4-.6-4.3,2.9-8.9,7.1-9.4,4.1-.5,8.5,3.1,9.1,7.4Z" fill="#d4c7bf" fill-rule="evenodd"/><path d="M962.7,371.1c.4,3.9-4,8.4-8.2,8-3.7-.3-6.6-2-7.3-6.1-.8-4.7,2.1-9.1,6.4-9.5,4.2-.4,8.7,3.4,9.1,7.5Z" fill="#d4c7bf" fill-rule="evenodd"/><path d="M1054,371.1c.3,3.8-4.2,8.2-8.5,8-3.8-.2-6.6-1.9-7.2-6-.7-4.8,2.3-9.1,6.6-9.4,4.1-.4,8.9,3.5,9.2,7.5Z" fill="#d4c7bf" fill-rule="evenodd"/><path d="M1053.5,1628.1c-1.3,4.1-6.1,6.2-10.6,4.7-4-1.3-5.9-6.4-3.8-10.7,1.7-3.5,4.5-5.1,8.4-4.1,4.4,1.3,7.3,6.1,6,10Z" fill="#d4c7bf" fill-rule="evenodd"/><path d="M1579.5,762.1c3.8,.2,7.5,5.2,6.9,9-.7,4.2-3.9,5.5-7.2,5.8-4.1,.3-7.7-4.6-6.9-8.7,.6-3,4.5-6.3,7.2-6.1Z" fill="#d4c7bf" fill-rule="evenodd"/><path d="M1612.8,1376.8c-1.6,6.1-4.7,10-11.2,8.5-3.7-.8-6-4-6-7.6,0-3.4,2-6.7,5.7-7.9,6.6-2.1,9.3,2.2,11.4,7Z" fill="#d4c7bf" fill-rule="evenodd"/><path d="M919,339.6c-4,0-7.9-4.3-7.9-8.5,0-4.2,4.2-7.6,8.8-7,3.9,.5,6,2.9,6.4,6.7,.4,4.3-3.4,8.8-7.3,8.7Z" fill="#d4c7bf" fill-rule="evenodd"/><path d="M1346.3,391.5c-.9,3.5-1.9,6.9-6.3,7.5-4.2,.6-9.1-3.3-9.3-7.4-.1-4.2,4.6-8.1,9.1-7.5,4.4,.6,5.5,3.9,6.5,7.4Z" fill="#d4c7bf" fill-rule="evenodd"/><path d="M1674.9,1080.4c-.2,4.1-4.9,8-8.7,7.2-4.5-.9-7.4-5.3-6.6-9.3,.9-4,4-5.4,7.4-5.9,4-.6,8.1,3.9,7.9,8Z" fill="#d4c7bf" fill-rule="evenodd"/><path d="M332.6,1087.8c-4.2,0-8.2-4.2-8.1-8.2,.1-4.1,4.4-7.6,8.9-7.1,3.9,.4,6,2.9,6.5,6.6,.5,4.4-3.2,8.7-7.3,8.6Z" fill="#d4c7bf" fill-rule="evenodd"/><path d="M946.8,1625.2c.4-4.3,5.1-8.1,8.9-7.4,4.4,.9,7.4,5.4,6.5,9.7-.9,4.2-4.2,5.3-7.6,5.8-4.3,.6-8.3-3.9-7.9-8.1Z" fill="#d4c7bf" fill-rule="evenodd"/><path d="M1404.3,1428.3c4,.3,6.2,2.6,6.8,6.5,.7,5.1-2,9.1-6.4,9.4-4.1,.3-9-3.9-9-7.7,0-3.7,4.7-8.1,8.7-8.2Z" fill="#d4c7bf" fill-rule="evenodd"/><path d="M613.3,395c0-4,4.2-8.6,8-8.7,3.8-.2,8.2,4.4,8.2,8.4,0,3.9-4.4,8.7-8.1,8.8-3.7,.2-8.2-4.5-8.2-8.5Z" fill="#d4c7bf" fill-rule="evenodd"/><path d="M390.6,1330.4c7.3,.7,8.8,3.8,9.1,7.4,.3,4.5-4.5,8.7-8.4,7.7-3.8-1-6-3.8-6.6-7.4-.7-3.9,4.4-7.9,5.9-7.7Z" fill="#d4c7bf" fill-rule="evenodd"/><path d="M1635.4,1043.8c.4,3.9-3.9,8.4-8.2,8.1-3.6-.3-6.6-2-7.3-6.1-.8-4.7,2.1-9.1,6.4-9.5,4.2-.4,8.6,3.3,9.1,7.5Z" fill="#d4c7bf" fill-rule="evenodd"/><path d="M660.6,1599c3.6,.6,6.8,1.7,7.5,5.9,.8,4.5-2.8,9.2-7,9.2-4.1,0-8.2-4.6-7.8-8.7,.5-4.4,4-5.2,7.2-6.4Z" fill="#d4c7bf" fill-rule="evenodd"/><path d="M1598,1019.4c-.8,4.1-5.5,6.5-10,5.2-3.7-1.1-5.5-3.9-5.5-7.6,0-4.2,4.9-7.9,8.9-7,4.4,1,7.4,5.2,6.6,9.5Z" fill="#d4c7bf" fill-rule="evenodd"/><path d="M582.8,464.3c4.2,.6,7.5,5.2,6.9,9.3-.7,4.2-5.3,7.6-9.4,6.9-4.1-.7-7.6-5.4-6.9-9.3,.8-4.3,5.2-7.5,9.5-6.9Z" fill="#d4c7bf" fill-rule="evenodd"/><path d="M1534.6,1416.8c.2,4-3.8,8.6-7.7,8.9-3.8,.3-8.2-3.9-8.5-7.9-.3-3.9,3.8-8.6,7.6-8.9,3.8-.3,8.4,4,8.6,8Z" fill="#d4c7bf" fill-rule="evenodd"/><path d="M981.7,416.4c-4,.2-8.4-3.9-7.9-8.1,.3-3.4,1.5-6.7,5.7-7.4,4.3-.7,8.5,2.3,9.4,6.7,.8,3.9-3,8.6-7.2,8.8Z" fill="#d4c7bf" fill-rule="evenodd"/><path d="M570.6,591.4c-.3,8.8-3.6,12.1-10,11.1-4.5-.7-7.1-6-5.6-10.1,1.7-4.8,5.7-5.1,15.6-1Z" fill="#d4c7bf" fill-rule="evenodd"/><path d="M1674.9,918.5c-.4,4.1-5,8-8.8,7.2-4.3-.8-7.4-5.4-6.6-9.4,.8-4.1,4.1-5.2,7.4-5.7,4.1-.6,8.3,3.8,7.9,7.8Z" fill="#d4c7bf" fill-rule="evenodd"/><path d="M1419.5,1517.4c4.4,.5,7.8,5,7.1,9.2-.7,4.2-5.3,7.8-9.2,7.3-4-.6-7.5-5.3-7-9.4,.5-4.3,4.8-7.6,9.1-7Z" fill="#d4c7bf" fill-rule="evenodd"/><path d="M1428.6,1403.7c1.7-6,4.8-9.7,11.2-8.2,3.6,.9,6.1,3.9,6.1,7.5,0,3.5-2.1,6.5-5.8,7.6-6.5,1.9-9.4-2-11.5-6.9Z" fill="#d4c7bf" fill-rule="evenodd"/><path d="M431.4,594.4c-1.2,4.6-5.8,6.7-10.2,4.7-3.6-1.6-5.3-4.5-4.7-8.3,.7-4.5,5.4-7.6,9.6-6.6,4.1,.9,6.5,5.6,5.3,10.3Z" fill="#d4c7bf" fill-rule="evenodd"/><path d="M661.1,383.9c3.8,.6,6.5,2.4,7.1,6.5,.6,4.6-3.2,9.5-7.4,8.9-3.7-.5-6.6-2.6-7.4-6.6-.9-4.3,3.1-8.7,7.8-8.8Z" fill="#d4c7bf" fill-rule="evenodd"/><path d="M333.5,925.7c-3.9,.4-8.5-3.2-9.1-7.1-.5-3.7,3.8-8.1,8-7.9,3.5,.2,6.5,1.6,7.3,5.6,.9,4.4-2.1,8.9-6.2,9.4Z" fill="#d4c7bf" fill-rule="evenodd"/><path d="M472.2,588.5c-4.2-.7-7.8-5.3-7.3-9.1,.6-4,5.3-7.5,9.4-7.1,4.3,.5,7.6,4.8,7.1,9.1-.6,4.4-4.9,7.8-9.2,7.1Z" fill="#d4c7bf" fill-rule="evenodd"/><path d="M1405.7,1582.4c-4.3-.5-7.5-5.2-6.5-9.6,.9-4.1,4-5.5,7.6-5.8,4.4-.3,8.9,4.2,8.3,8-.6,4.2-5.3,7.8-9.4,7.4Z" fill="#d4c7bf" fill-rule="evenodd"/><path d="M1236,422c-1.6,4.1-7.1,6.3-10.4,3.9-2.8-2-4.7-4.9-3.1-8.8,1.5-3.6,4.1-5.3,7.9-4.6,4.4,.8,7.2,5.8,5.7,9.6Z" fill="#d4c7bf" fill-rule="evenodd"/><path d="M594.5,553c3.9-.7,8.5,2.9,9.1,7.1,.6,4.3-2.5,8.6-6.8,9.5-3.9,.8-8.5-2.7-9.1-7-.6-4.2,2.7-8.9,6.8-9.7Z" fill="#d4c7bf" fill-rule="evenodd"/><path d="M1087.8,328.4c.6,6.8-2.3,10.8-6.4,11-3.9,.2-8.3-3.8-8.5-7.7-.2-3.8,4.2-8,8.4-7.6,3.7,.3,6.3,2.2,6.5,4.3Z" fill="#d4c7bf" fill-rule="evenodd"/><path d="M381,953.6c0,4.2-4.2,7.5-9.1,7-4.1-.4-6-3-6.4-6.8-.4-4.6,3.4-9.1,7.4-8.8,4.2,.3,8.1,4.4,8.1,8.6Z" fill="#d4c7bf" fill-rule="evenodd"/><path d="M342.6,1193.6c.5,3.8-3.5,8.4-7.7,8.9-4.2,.4-8.8-3.2-9.2-7.3-.4-4.1,3.3-8.5,7.6-9,4-.4,8.8,3.4,9.4,7.4Z" fill="#d4c7bf" fill-rule="evenodd"/><path d="M1619.6,952.5c.4-4.4,5-8.2,8.9-7.4,4.4,1,7.4,5.5,6.5,9.7-.9,4.2-4.2,5.5-7.6,6-4.2,.6-8.2-4-7.8-8.3Z" fill="#d4c7bf" fill-rule="evenodd"/><path d="M1614.7,658.8c.8,4.5-3,9.6-7.3,9.1-3.7-.4-6.8-2.3-7.6-6.4-.8-4,.9-6.9,4.7-8.3,4.6-1.7,9.3,1,10.1,5.5Z" fill="#d4c7bf" fill-rule="evenodd"/><path d="M1614.9,1337.8c0,4.5-4.7,8.6-8.8,7.6-3.9-.9-6-3.7-6.5-7.5-.6-4.2,4.3-8,8.9-7.3,3.6,.5,6.6,3.7,6.5,7.2Z" fill="#d4c7bf" fill-rule="evenodd"/><path d="M1586.5,1226.3c.3,4.2-1.3,7-5.4,8-4,1-7-.5-8.5-4.2-1.6-4,2.1-9.5,6.4-9.9,3-.3,7,3.1,7.6,6.1Z" fill="#d4c7bf" fill-rule="evenodd"/><path d="M1230.3,1570.8c3.8,1.1,6,3.6,6.1,7.5,0,4.2-5,7.4-9.7,6-4-1.2-5.5-4.1-4.4-8.1,1-3.4,4.8-5.9,7.9-5.5Z" fill="#d4c7bf" fill-rule="evenodd"/><path d="M419.8,776.7c-4.6-.5-5.9-4-5.6-7.5,.2-3.6,2.3-6.8,6.6-6.9,4.4-.2,8.1,4.7,6.9,9-1,3.5-4.3,5.8-7.9,5.5Z" fill="#d4c7bf" fill-rule="evenodd"/><path d="M770.9,412.1c3.9,.5,6.7,2.4,7.6,6.3,.9,4.1-3.7,8.5-8.3,8.1-4.6-.4-6.1-3.9-6-7.4,.1-3.7,2.4-6.6,6.7-7Z" fill="#d4c7bf" fill-rule="evenodd"/><path d="M414.2,1228.7c-.1-4.1,1.1-7.1,5.1-8.3,4-1.2,9,2.9,8.7,7.3-.3,4.1-3.1,6.2-6.8,6.8-3.3,.6-6.7-2.6-7-5.8Z" fill="#d4c7bf" fill-rule="evenodd"/><path d="M771,1570.8c3.7,.5,6.6,2.2,7.5,6.1,.9,4.3-3.2,8.2-8.1,7.7-4.3-.3-6-3.2-6.1-7-.1-3.4,3.5-6.7,6.8-6.8Z" fill="#d4c7bf" fill-rule="evenodd"/><polygon points="1439.4 1439.1 1440.1 1437.6 1440.5 1439.3 1439.4 1439.1" fill="#d4c7bf" fill-rule="evenodd"/><path d="M1018.3,309.3c0,2.7-.5,5.2-3.1,6.8-3.1-3.4-2.1-5.9,1.9-7.8l1.2,1.1Z" fill="#d4c7bf" fill-rule="evenodd"/><path d="M1690.5,981.7c-1.9,4-4.4,5.1-8.5,1.3,2.8-.9,5.1-1.7,7.5-2.4l1,1.2Z" fill="#d4c7bf" fill-rule="evenodd"/><polygon points="560.6 1438.8 561.5 1437.2 559.9 1438.1 560.6 1438.8" fill="#d4c7bf" fill-rule="evenodd"/><path d="M425.2,1540.7c.9-.6,1.7-1.2,2.6-1.8-.6,.9-1.2,1.7-1.8,2.6l-.8-.8Z" fill="#d4c7bf" fill-rule="evenodd"/><polygon points="1439.8 559.8 1439.4 558.4 1440.7 558.6 1439.8 559.8" fill="#d4c7bf" fill-rule="evenodd"/><polygon points="1571.9 1541.2 1571.1 1539.9 1571.3 1541.9 1571.9 1541.2" fill="#d4c7bf" fill-rule="evenodd"/><polygon points="1787.6 1024.3 1786.3 1023.6 1787.1 1024.9 1787.6 1024.3" fill="#d4c7bf" fill-rule="evenodd"/><polygon points="559.9 1438.1 559 1439.7 560.6 1438.8 559.9 1438.1" fill="#d4c7bf" fill-rule="evenodd"/><path d="M457.4,1572.8c.9-.6,1.7-1.2,2.6-1.9-.6,.9-1.2,1.7-1.8,2.6l-.8-.8Z" fill="#d4c7bf" fill-rule="evenodd"/><polygon points="1281 448.7 1282.1 447.9 1280.4 448.1 1281 448.7" fill="#d4c7bf" fill-rule="evenodd"/><polygon points="973.7 211.9 975.1 212.6 974.3 211.3 973.7 211.9" fill="#d4c7bf" fill-rule="evenodd"/><polygon points="1550.8 718.5 1550.9 716.8 1550.2 717.9 1550.8 718.5" fill="#d4c7bf" fill-rule="evenodd"/><polygon points="456.8 427.6 458.7 427.7 457.5 427 456.8 427.6" fill="#d4c7bf" fill-rule="evenodd"/><path d="M1308.4,330.4c-.9,.7-1.8,1.4-2.7,2.2,.7-.9,1.5-1.8,2.2-2.7l.6,.6Z" fill="#d4c7bf" fill-rule="evenodd"/><path d="M1669,691c-.9,.7-1.9,1.4-2.8,2.2,.7-.9,1.4-1.9,2.1-2.8l.6,.6Z" fill="#d4c7bf" fill-rule="evenodd"/><path d="M253.1,1341.6c.9-.7,1.7-1.4,2.6-2.2,0,.6,.1,1.4-.2,1.7-.5,.5-1.3,.6-1.9,.9l-.4-.4Z" fill="#d4c7bf" fill-rule="evenodd"/><path d="M656.8,1745.3c.9-.7,1.7-1.4,2.6-2.2,0,.6,0,1.4-.2,1.7-.5,.4-1.3,.6-2,.8l-.4-.4Z" fill="#d4c7bf" fill-rule="evenodd"/><path d="M996.7,1198.6c-36.2,1.6-66-15.1-94.4-34-42.1-27.8-72.2-66-92.5-112.1-6.3-14.3-8.6-29.1-9.3-44.4-1.2-25.4,2.7-49.4,13.9-72.9,20.7-43.1,50.7-77.8,90.2-103.9,23-15.3,47.6-27.8,76.1-31.5,26.7-3.5,51.7,.2,76,10.5,46.6,19.8,83.5,51.7,111.3,93.5,15.8,23.8,28.4,49.5,31.6,78.9,2.5,23.7-.3,46.6-9.3,68.4-8.5,20.6-19.3,40.3-33.2,58-29.4,37.3-65.9,65-110.2,82.5-16.2,6.4-33.3,6.2-50.1,7Zm75.6-274.5c.3-3.2,0-6,.8-8.4,5-14.7-1.8-26.2-10.3-37-3.3-4.3-7.9-7.8-13.5-8.2-13.3-.7-26.9-2.8-38.6,6.9-3.3,2.7-7.6,4.2-11.6,6.3-5.9-3.7-10.8-8.3-16.6-10.1-28-8.8-43.8-4.5-54,18.1-2.7,6-2.5,12.2-2.5,18.4,0,5.2,2.6,10.7-3.2,16.2-19.4-6.5-35.8-.1-48.4,15-7,22.2-.8,41.2,10.5,59.7-15.8,15.9-14,34.6-11.7,52.7,18.3,18.1,19.1,18.5,40.1,18.6,4.4,0,9-1.3,12.2,3.1q.9,31.8,20.7,50.8c8.3,0,18.1-.2,27.9,0,10.6,.3,16.2-11.3,26.2-11.3,25.5,13.4,26.9,13.6,56.3,9.1q18.3-20.1,17.1-50c2.9-2.7,6.5-2.2,10-2,4.5,.2,9,.7,13.4,.3,13.4-1.3,29.1-12.3,30.4-22.8,1.7-13.2,3.3-26.9-5.6-38.8-2.6-3.5-4.7-7.5-7.2-11.4,1.8-3.6,2.7-7.4,5-9.9,10.3-11.2,8.8-24.8,8.4-38.2-.2-5.7-2.8-10.5-7-14-10.5-8.9-21.6-16.3-36.5-12.1-3.4,1-6.8,2.3-12.6-1Zm-70.9,238.7c.7-.4,1.5-.7,2.2-1.1-.6-.5-1.2-1.4-1.9-1.5-2.3-.3-3.3,.5-2.5,1.8,.3,.5,1.4,.5,2.2,.7Zm-1.6-324.2c.7,.2,1.5,.8,1.9,.5,1.5-1,1-1.8-1.2-1.9-.2,0-.5,.9-.7,1.3Zm161.8,159.6c-.2-.6-.5-1.3-.7-2-.4,.5-1.1,1-1.2,1.5-.1,.6,.4,1.3,.6,1.9,.4-.5,.8-1,1.2-1.5Zm-324.9-2.3c-.2,.8-.7,1.6-.6,2.3,.5,2.8,1.5,2.9,2.5,.3,.3-.7,0-1.6-.4-2.3-.1-.3-1-.1-1.5-.2Zm140.1,161.3l.9-1.2-1.4-.3,.5,1.5Zm-133.2-135.1l-1.2-.9-.3,1.4,1.5-.5Z" fill="#d4c7bf" fill-rule="evenodd"/><path d="M673.2,908c37.2,9.5,71.8,18.3,106.1,27,2.8,9.8-1.8,16.3-7.2,23.9-35.6,4.2-69.9-9.3-104.2-10.9-6.1-4.7-6-10.3-5.1-15.5,1.5-8.8,4.1-17.3,10.5-24.5Z" fill="#d4c7bf" fill-rule="evenodd"/><path d="M1091.1,1325.9c-12.3,7.9-23.9,13.5-39.5,8-3.7-35.3-13.8-69.7-12.3-105.1,5.8-7.8,13.1-10.2,21.1-10.4,1.7,1.4,3.8,2.2,4.2,3.5,4.5,17.3,8.5,34.7,12.9,52,4.2,16.5,8.6,32.8,13.6,51.9Z" fill="#d4c7bf" fill-rule="evenodd"/><path d="M1063.5,779.9c-9.7-1.1-16.7-2.4-23.7-9.7-4.2-34.3,9.3-68.5,10.9-104.7,15.5-6.6,28-2.6,40.1,6-9.1,36.2-18,71.6-27.2,108.3Z" fill="#d4c7bf" fill-rule="evenodd"/><path d="M1228.2,959.2c-6.9-8.1-8.5-14.9-8.9-22,1.4-1.2,2.6-2.9,4.1-3.3,32.8-8.5,66.3-14.7,98.6-25.3,1.5-.5,3.4,.2,5.1,.3q10.3,18.6,6.3,38.5c-34.7,3.3-69,14.5-105.2,11.8Z" fill="#d4c7bf" fill-rule="evenodd"/><path d="M959.2,1227.7c3.9,36.2-7.2,70.4-11.7,105.8-14.6,6.4-25.8-.2-38.7-7.6,10.7-35.8,16.9-72.3,28.3-107.2,10.1-.5,16.9,2.4,22.1,9Z" fill="#d4c7bf" fill-rule="evenodd"/><path d="M774.1,1040.9c3.4,6.8,7.1,11.9,6.1,18.6-1.3,1.2-2.4,2.9-3.9,3.4-18,4.9-35.9,10-54,14.3-15.5,3.7-31.1,7-46.5,13.2-11.6-9.8-13.9-22-13.1-35.3,23.9-10.4,81.1-17.7,111.4-14.1Z" fill="#d4c7bf" fill-rule="evenodd"/><path d="M1334.7,1051.2c4,16.1,0,27.3-7.7,38.4-36.2-9.3-71.5-18.3-106.2-27.2-.7-3-1.6-4.8-1.2-6.2,1.4-5.1,3.2-10.1,5-15.4,38.1-7,73.1,6.4,110.1,10.4Z" fill="#d4c7bf" fill-rule="evenodd"/><path d="M957.8,772.3c-5.3,5.2-11.9,6.8-19.7,7-1.1-2.3-2.6-4.6-3.2-7.1-8.5-32.8-17-65.7-25.4-98.3q15.4-12.1,36.1-9.4c13.1,51.6,16.2,78.9,12.1,107.7Z" fill="#d4c7bf" fill-rule="evenodd"/><path d="M1173.4,711.6c14,5.1,26.7,6.8,35.9,18.9-9.3,18.1-25.6,30.8-38.1,46.5-12.2,15.1-23.3,31.1-34.8,44.9-7.6-.6-10.8-3.1-12.3-9.8,13.4-33.1,28.1-67.2,49.3-100.4Z" fill="#d4c7bf" fill-rule="evenodd"/><path d="M1186.4,875.2c-6.1-2.6-8.2-5.3-9.7-10,1.6-2.2,3.2-5.6,5.8-7.5,26.7-19.4,52.1-40.4,76.2-63,2.4-2.3,6-3.5,9.2-5.2,12.8,8.6,14.3,22.2,19.2,35.7-31.8,21.5-66.4,35.1-100.6,50Z" fill="#d4c7bf" fill-rule="evenodd"/><path d="M863.9,1175.5c7.5,1.4,10,3.7,12.6,8.5-13.3,33.3-28.1,67.1-48.3,99.5-15.2,0-27.5-4.3-37.9-17.1,11.2-16.9,25.5-30.1,37.7-45,12.4-15,24-30.6,35.9-45.9Z" fill="#d4c7bf" fill-rule="evenodd"/><path d="M814.9,1121.9c2.4,2.2,4.6,3.7,6.2,5.7,1,1.3,1,3.2,1.5,4.9-.2,.8-.2,1.9-.7,2.4-2.4,2.6-4.7,5.4-7.5,7.4-28.3,19.9-53.6,43.4-78.3,64.6-7.6,0-10.7-3.3-12.7-7.3-4.3-8.6-9.1-17.2-8-28.5,30.9-21.2,65.6-34.3,99.6-49.3Z" fill="#d4c7bf" fill-rule="evenodd"/><path d="M1286.1,1173.4c-3.2,12.4-5.5,25.4-18.2,34.7-17.4-9.5-29.6-24.9-44.6-36.9-15.2-12.1-30.6-24-44.8-35.1-.9-6.8,.7-10.6,6.6-13.1,6-1.9,78.5,33.4,101.1,50.3Z" fill="#d4c7bf" fill-rule="evenodd"/><path d="M876.7,812.9c-3.3,5.6-5.7,8-9.8,7.9-1.6-.6-3.6-.7-4.8-1.8-2.6-2.4-5-5.1-7.1-8-19.7-27.6-42.7-52.6-64.9-77.7,8.7-15.3,22.7-16.4,36.2-21.2,21.9,31.4,35,66.5,50.5,100.9Z" fill="#d4c7bf" fill-rule="evenodd"/><path d="M1207.6,1269.8c-9.3,9.4-21.5,13-34.1,14.5-17.6-25.9-31.3-54-49.4-100.3,1.4-1.8,2.8-4.1,4.6-5.9,1.2-1.1,3.1-1.3,5.2-2.1,1.9,1.4,4.6,2.4,6.2,4.4,22.6,27.6,45.2,55.3,67.7,83,.5,.6,.3,1.7,.3,2.6s-.2,1.7-.5,3.9Z" fill="#d4c7bf" fill-rule="evenodd"/><path d="M714.5,825.5c1.5-14,5.7-25.2,13.6-33.6,5.3-1.8,9-1.3,11.7,1.2,24.6,23.5,51.1,44.8,78.3,65.3,2,1.5,3.2,4.1,4.5,5.8,0,6-3.5,8.4-7.7,10.4-38.3-14.2-73.3-31.2-100.4-49Z" fill="#d4c7bf" fill-rule="evenodd"/><path d="M641.3,745.1c-3.7-9.6-15-14.4-16-27.4,2.5-9.8,7.4-19.4,20-22.6,.7,.8,1.4,1.7,2.1,2.5-2,2.9-4.5,5.6-6,8.8-8.5,18.4,2.9,34.5,23.2,32.8,3.4-.3,6.6-2,9.8-3,5.9-9.6,3.3-19.7,4.2-29.3l-.6,.6c10,15,9.1,27.3-3,36.2-3.5,2.6-7.8,4-11.6,5.8-8.2-1.2-15-6.4-23.3-5.3l1,.9Z" fill="#d4c7bf" fill-rule="evenodd"/><path d="M645.3,695.1c2.1-3.3,5.4-4.2,9-4,2.5,.2,5,1.1,10.5,2.4-7.7,1.8-12.5,2.9-17.3,4.1-.7-.9-1.4-1.7-2.1-2.5Z" fill="#d4c7bf" fill-rule="evenodd"/><polygon points="678.7 706.9 677.6 705.7 678.2 707.4 678.7 706.9" fill="#d4c7bf" fill-rule="evenodd"/><path d="M1291.9,1320.1c-8.8,.6-17.9-1.1-26.1,2.3-5.3,3.7-6.5,9-6.6,14.4-.2,17.4,14.7,28,30.7,21.6,4-1.6,7.5-4.7,11.2-7.1,.9,.7,1.7,1.4,2.6,2.1q-7.9,13.5-24.1,19.9c-11.6-.9-16.4-12.4-26-16.1l.9,1c.9-8.2-3.3-15.3-5.5-21.5,1.2-3,1.6-4.8,2.5-6.2,10.8-18.1,18-20.4,38.8-12.2,.6,.2,.7,1.6,1,2.4l.6-.6Z" fill="#d4c7bf" fill-rule="evenodd"/><path d="M1301.2,1351.3c1.1-4.8,2.3-9.7,3.7-15.9,3.4,7.5,4.7,13.2-1.2,18.1-.9-.7-1.7-1.4-2.6-2.1Z" fill="#d4c7bf" fill-rule="evenodd"/><polygon points="1291.3 1320.7 1293 1321.2 1291.9 1320.1 1291.3 1320.7" fill="#d4c7bf" fill-rule="evenodd"/><path d="M1248.6,652.8c5.5-1.7,5.2-6.3,5.5-10.7,5.3-4.7,10.4-9.7,15.9-14.1,3.6-2.9,8.2-3.6,12.7-2.9,7.4,1.2,13.2,5.3,17.7,11.2,4.9,6.4,10.1,12.9,5.6,22.4-2.7-4.4-5.1-8.6-7.8-12.7-5.8-8.7-14.4-10.1-23.7-7.7-8.6,2.3-13.6,8.8-14.8,17.3-.9,6.1,.1,12.5,.3,18.7l-.6,.7c-3.6-1.9-7.1-3.7-10.6-5.6,0-5.5,0-11,0-16.6Z" fill="#d4c7bf" fill-rule="evenodd"/><path d="M1286,679.5c-12.4,8.8-17.3,8-26.8-4.5l.6-.7c8.9,1.9,17.8,3.9,26.7,5.8l-.5-.7Z" fill="#d4c7bf" fill-rule="evenodd"/><path d="M1297.1,674.8c-2.4,4.6-6.4,5.3-11,4.7l.5,.7c1.7-5.8,6.6-4.5,10.8-4.9l-.3-.5Z" fill="#d4c7bf" fill-rule="evenodd"/><path d="M1297.4,675.3c.4-.4,1.3-.9,1.2-1-.7-1.4-1.3-1.2-1.6,.6l.3,.5Z" fill="#d4c7bf" fill-rule="evenodd"/><path d="M624.4,1271.8c7.4-7,15.6-13.2,21.5-21.7,5-.1,10-.3,14.9-.4,5.1,0,10,.3,12.7,5.7l-1.1,1c-3.5,.2-6.9,.5-10.4,.5-19.2,0-33,24.5-16.2,39.2,2.5,2.2,5.8,4,5.8,8.1h0c-10.2,1-15.9-5.7-21.1-12.8-4.2-5.7-6.2-12.4-6-19.6Z" fill="#d4c7bf" fill-rule="evenodd"/><path d="M678.7,1260.9c1.4,1,3.6,1.6,4.1,2.9,3.5,10.4,3.1,20.4-4.1,29.4l.6,.6c-.3-10.8-.6-21.6-1-32.5l.4-.4Z" fill="#d4c7bf" fill-rule="evenodd"/><path d="M651.6,1304.2c2.3-.3,3.3,.5,2.7,2.3,0,.2-1.5,.3-1.8,0-.5-.5-.7-1.5-1-2.2h0Z" fill="#d4c7bf" fill-rule="evenodd"/><polygon points="672.5 1298.9 671.6 1300.4 673.2 1299.6 672.5 1298.9" fill="#d4c7bf" fill-rule="evenodd"/><path d="M673.2,1299.6c2-2,4.1-3.9,6.1-5.9l-.6-.6c-2,1.9-4.1,3.8-6.1,5.8l.6,.7Z" fill="#d4c7bf" fill-rule="evenodd"/><path d="M673.5,1255.4c3.3,.4,5.2,2.1,5.2,5.6l-.4,.4c-3.2-.2-5.3-1.6-5.9-4.9l1.1-1Z" fill="#d4c7bf" fill-rule="evenodd"/><path d="M748.8,1352.9c-8.5,5.9-14.7,14.1-21.7,21.5-13.2-.3-23.5-6-30.2-17.3-1.6-2.7-1.5-6.5-2.2-9.8h0c5.2,.1,6.9,4.8,9.9,7.6,10.5,9.9,30.1,8,36.9-13,1.6-4.8,.7-10.3,1-15.6l1-1.1c5.4,2.7,5.7,7.6,5.7,12.7,0,5-.3,9.9-.4,14.9Z" fill="#d4c7bf" fill-rule="evenodd"/><path d="M705.7,1320.3c8.8-7.6,18.9-7.6,29.3-4.3,1.3,.4,1.9,2.7,2.9,4.1l-.4,.4c-10.8-.3-21.6-.6-32.4-.9l.6,.7Z" fill="#d4c7bf" fill-rule="evenodd"/><path d="M737.9,1320.1c3.4,0,5.1,1.9,5.5,5.2l-1,1.1c-3.3-.5-4.7-2.7-4.9-5.9l.4-.4Z" fill="#d4c7bf" fill-rule="evenodd"/><path d="M700.1,1325.4c1.9-1.7,3.7-3.4,5.6-5.1l-.6-.7c-1.7,1.8-3.5,3.6-5.2,5.3l.2,.5Z" fill="#d4c7bf" fill-rule="evenodd"/><path d="M699.9,1325c-.5,.4-1.5,1-1.4,1.1,1,1.6,1.6,1.4,1.6-.6l-.2-.5Z" fill="#d4c7bf" fill-rule="evenodd"/><path d="M694.6,1347.3c-2.3-.2-3.1-1.2-2.2-2.8,0-.2,1.5,0,1.8,.4,.4,.6,.3,1.5,.4,2.4h0Z" fill="#d4c7bf" fill-rule="evenodd"/><path d="M1356.7,744.8c-4.4,.2-9,0-10.7,5.5-5.5,0-11.1,0-16.6-.1-1.8-3.6-3.7-7.1-5.6-10.7l.6-.5c6.2,.1,12.6,1.1,18.7,.3,8.5-1.2,15.1-6.2,17.3-14.8,2.4-9.3,1-17.9-7.7-23.7-4.1-2.7-8.3-5.1-12.7-7.8,9.5-4.5,15.9,.7,22.4,5.6,5.9,4.5,10,10.2,11.2,17.7,.7,4.5,0,9.2-2.9,12.7-4.4,5.5-9.4,10.6-14.1,15.9Z" fill="#d4c7bf" fill-rule="evenodd"/><path d="M1323.9,739.5c-12.5-9.3-13.3-13.9-4.7-26.9l-.7-.6c2,9,4,17.9,6,26.9l-.6,.5Z" fill="#d4c7bf" fill-rule="evenodd"/><path d="M1323.9,701.7c-.8,4,.5,9.1-5.5,10.3l.7,.6c-.4-4.5,0-8.6,5.1-10.5l-.3-.5Z" fill="#d4c7bf" fill-rule="evenodd"/><path d="M1324.3,702.2c2.9-2.1,1.1,2.6,1.2-1,0-1.4-1.2-1.2-1.6,.5l.3,.5Z" fill="#d4c7bf" fill-rule="evenodd"/><path d="M748.6,674.7c-5.8,1.2-9.5,4.8-11,10.5-4.4,0-8.9,0-13.3-.2-3.7-.2-6.9-1.3-7.5-5.6l-.5,.6c4.4-.8,9-1.1,13.1-2.6,11.1-4.1,15.6-15.9,10.4-26.2-5.7-11.2-13.6-15.5-26.4-13.2-4.2,.8-8.1,3.5-12.1,5.4-1-.9-1.9-1.8-2.8-2.7,6.4-16.4,19.7-16.8,34-14.8,4.2,8.1,9.7,15.2,16.2,21.6,0,9.1,0,18.2-.1,27.3Z" fill="#d4c7bf" fill-rule="evenodd"/><path d="M701.3,643.4c-1.7,4.6-1.7,10.6-8.9,10.7-1.4-6.1,1.4-10.2,6.1-13.4,.9,.9,1.9,1.8,2.8,2.7Z" fill="#d4c7bf" fill-rule="evenodd"/><path d="M716.8,679.4c-2.8-.4-6.1,1.3-8.5-1.7,3.9-3.2,5.6,.7,8,2.3l.5-.6Z" fill="#d4c7bf" fill-rule="evenodd"/><path d="M1313.5,1261.2c5.7-1.5,9.3-5.2,10.5-11,9.1,0,18.2,0,27.3-.1,6.3,6.6,13.5,12,21.6,16.3,1.9,14.3,1.5,27.7-14.8,34-.9-1-1.8-1.9-2.7-2.9,2.8-5.5,6.3-10.7,6.1-17.4-.3-11.9-9.9-22.6-21.6-23-7.7-.3-14.4,2.4-17.4,9.9-2,4.9-2.5,10.4-3.7,15.6l.6-.5c-4.3-.7-5.4-3.9-5.6-7.6-.2-4.4-.2-8.8-.2-13.3Z" fill="#d4c7bf" fill-rule="evenodd"/><path d="M1358.1,1300.4c-3.2,4.7-7.3,7.4-13.4,6.1,.1-7.2,6.1-7.3,10.7-9,.9,1,1.8,1.9,2.7,2.9Z" fill="#d4c7bf" fill-rule="evenodd"/><path d="M1318.7,1282.6c1.7,2.3,5.5,4,2.4,7.9-3.1-2.4-1.4-5.6-1.8-8.5l-.6,.5Z" fill="#d4c7bf" fill-rule="evenodd"/><path d="M1382.7,810.2c-.9,0-1.8,0-2.7,0-16.2-.6-27.5-9.5-28.5-22.6-.9-11,8.9-23.1,22.1-26.9,4.2-1.2,8.8-1.5,13.2-1.5,15.7,0,24.1,7.4,25.1,21.7,1.2,17.1-7.4,27.6-23.9,29.1-1.8,.2-3.6,.2-5.3,.3Zm-.6-6.4c3.3-.4,6-.4,8.6-1,6.7-1.7,10.5-6.5,11.9-13,1.3-6.4,.2-12.5-4.8-17.1-5.8-5.4-18.2-6.7-25-2.3-7.2,4.6-10.9,11.6-10,20.3,.6,5.8,4.3,9.8,9.5,11.8,3.2,1.2,7,1,9.9,1.3Z" fill="#d4c7bf" fill-rule="evenodd"/><path d="M1188.6,615c.4-15.3,5.8-24.2,17.2-26.9,20.2-4.8,35.7,4,34,27.7-.8,10.4-4.9,18.9-12.5,25.7-11,9.8-26.6,6.9-34.3-5.9-3.8-6.4-4.6-13.4-4.4-20.6Zm42.2-.3c-.4-12-6.9-18.9-17.8-18.8-10.8,.2-17.3,7-17.8,18.8-.1,2.7-.1,5.4,.2,8,1.3,10.7,11.4,16.5,21.7,12.5,9.5-3.7,13.9-10.4,13.6-20.5Z" fill="#d4c7bf" fill-rule="evenodd"/><path d="M1188.4,1379.3c.7-3.5,1.1-9,3-13.9,6.6-16.4,28.1-19.5,39.4-6,9.5,11.2,11,24,7.2,37.7-.7,2.5-2.2,5-4.1,6.7-7.8,7-16.8,10-27.1,6.3-9.9-3.6-17-9.6-17.7-21.1-.1-2.7-.4-5.3-.7-9.8Zm42.4,3.9c.5-12.4-9-22.6-20.9-22.6-8.9,0-15,9-14.7,21.5,0,2.6,0,5.6,1,7.8,1.5,3.1,3.4,6.5,6.2,8.2,13.2,8.3,27.7,.4,28.3-15Z" fill="#d4c7bf" fill-rule="evenodd"/><path d="M621.1,810.1c-19.3,.3-27.3-4.6-32.2-17.2-5.4-13.9,2.7-34,22.5-33.9,9.2,0,17.6,1.5,25.3,6.8,9,6.3,12.6,14.7,10.5,25.4-1.9,9.9-8.9,15.1-18,17.7-3.4,1-7,1.1-8.1,1.2Zm17.1-21.1c-6-15.1-7.4-17.5-12.2-19.4-6-2.5-12.2-2.3-18.2-.1-5.4,1.9-9.1,5.6-9.6,11.5-.6,7.1-.9,14.5,5.9,19.3,7.2,5,15.3,3.9,23.1,2.2,6.9-1.5,9.5-7.3,11.1-13.5Z" fill="#d4c7bf" fill-rule="evenodd"/><path d="M1430.4,1164.1c-15.1,3.6-30.4,3.7-44-8.3-11.9-10.5-12.5-26.2-1.1-37.6,11.5-11.4,37.2-15.1,50.3,1.6,6.6,8.5,9.3,17.3,5,27.4-2.4,5.7-3.9,12-10.3,17Zm-17.2-8.3c6.7,.3,14.4-5.1,16.5-11.6,3-9.3-.4-18.3-8.5-22.8-10-5.5-20.4-4.7-27.1,1.9-4.9,4.8-6.6,14.6-3,19.6,5.4,7.6,13.3,11.4,22.1,13Z" fill="#d4c7bf" fill-rule="evenodd"/><path d="M835,568.4c3.4-5.3,8.6-7,13.6-8.9,17-6.6,33.4,0,39.7,15.8,6.9,17.3-1.8,38.6-18.4,44.8-9.3,3.5-17.6,2-24.5-5.3-7.7-7.9-13.1-16.9-12.6-28.6,.3-6.2-.7-12.6,2.2-17.9Zm25.2-.2c-11.9,.6-19.8,11-16,22,1.7,4.9,4.5,9.6,7.6,13.8,4.9,6.5,14.5,7.4,21.4,2.6,7-4.8,9.6-14.1,6.5-23.8-3-9.8-10.1-15.1-19.6-14.6Z" fill="#d4c7bf" fill-rule="evenodd"/><path d="M803.9,1402.7c-3.7,5.8-9.6,7.8-15.8,8.7-14.2,2-26.5-7.5-28.5-21.6-1.9-13.4,3.2-24.5,12.8-33.4,9.4-8.7,25.9-6.8,33,3.5,5.1,7.4,8.9,15.5,7,24.9-.6,2.7-2.3,4.6-5.1,5.3l.5,.4c-.9-5.3-1.3-10.6-2.7-15.7-3.7-12.8-12.1-16.6-24.2-11.2-3.2,1.4-5.8,3.9-8.4,5.5-4.6,30.3-2.1,33,27.7,30.1,1.2,1.2,2.4,2.3,3.6,3.4Z" fill="#d4c7bf" fill-rule="evenodd"/><path d="M807.4,1390.1c1.5,4.9,1.5,9.5-3.5,12.6-1.2-1.1-2.4-2.3-3.6-3.4,1.4-3.8,2.5-8,7.5-8.8l-.5-.4Z" fill="#d4c7bf" fill-rule="evenodd"/><path d="M608.7,1191.5c.3-.8,.5-2.2,1-2.4,20.3-7.4,40.2,5.9,37.7,25.2-.4,3.4-1.6,7-3.5,9.9-7.6,11.8-26.8,18.2-40.1,13.8-10.2-3.4-17.2-13.4-16.6-24.6,.3-7.3,2.5-13.9,8.8-18.4,1.2,1.2,2.4,2.3,3.5,3.5-.6,4.4-1.7,8.8-1.6,13.1,.2,12.2,4.1,16.3,15.4,17,5.3,.3,10.6,.4,16.5-2.8,1.4-2.1,3.9-4.8,5.3-7.9,5.4-12.1,1.6-20.6-11.2-24.2-5.1-1.4-10.4-1.8-15.7-2.7l.4,.5Z" fill="#d4c7bf" fill-rule="evenodd"/><path d="M596.1,1195c3.1-5.1,7.7-5,12.6-3.5l-.4-.5c-.7,5-4.9,6.1-8.7,7.5-1.2-1.2-2.3-2.3-3.5-3.5Z" fill="#d4c7bf" fill-rule="evenodd"/><path d="M1411.9,1214.9c-.3,14.2-8.7,23.4-22.7,24.5-13.4,1.1-24.2-4.2-32.8-14.1-7.4-8.6-6.5-20.9,1.3-29,12-12.3,32.4-13.6,46-2.8,7,5.5,8.1,13.3,8.2,21.5Zm-28.3,13.9c15.1,0,23.5-11.6,17.8-24.5-3.7-8.3-11.1-11.2-19.5-11.4-7.6-.2-14.3,2.7-17.9,9.5-3.7,7-1.3,13.7,3.1,19.9,4.2,5.9,10.1,6.7,16.5,6.5Z" fill="#d4c7bf" fill-rule="evenodd"/><path d="M785.3,586.9c18.8,.3,31.7,18,26.7,37-1.3,5-3.9,10-6.9,14.2-8,11-22.7,12.5-32.6,3.4-8.8-8.1-13.8-18.3-13.1-30.6,.9-15.2,10.6-24.2,25.9-23.9Zm-15.1,27.7c0,1.8-.2,3.6,0,5.3,.9,8.7,8.2,15.3,18.1,16.4,7.7,.8,15.3-5.1,17-13.8,.7-3.4,.7-7.1,.1-10.5-2-11.1-10.3-17.3-20.7-16.1-9.6,1.1-14.4,7.3-14.4,18.7Z" fill="#d4c7bf" fill-rule="evenodd"/><path d="M623.9,1138.5c-2,10.7-8.8,17.2-17.6,22.6-11.7,7.2-23.9,5.3-35.9,3.6-7.2-5.7-10.1-13.2-11.6-21.1-3.6-18.4,9-34,27.7-34.8,8.2-.3,15.8,.9,23,5.4,9.3,5.8,12.4,14.8,14.4,24.4Zm-12.5-.9c0-14.9-12.6-22.9-26.8-18.7-12.2,3.5-17.4,14.6-12.9,27.3,3.1,8.6,14.6,11.9,24.8,6.7,3.9-2,7.7-4.5,10.8-7.6,2.3-2.4,3.3-6,4.2-7.7Z" fill="#d4c7bf" fill-rule="evenodd"/><path d="M834.3,1429.6c-1.9-13.2-3.8-25.4,3.5-37.1,5.7-9.1,6.2-9.8,22.5-17.6,9.7,2,18.6,5.2,24.4,14.4,5,8.1,6.1,16.7,5.2,25.7-1.6,15.9-16.1,27.3-32,25.4-8.2-1-15.4-4.1-23.6-10.9Zm46.7-24.6c-.3-1.4-.6-4.1-1.6-6.5-3.1-8.2-15-13.5-21.8-9.6-9.1,5.3-13.6,13.7-14.4,23.9-.6,7,5.3,13.8,12.2,15.3,15.4,3.2,25.5-5.5,25.5-23Z" fill="#d4c7bf" fill-rule="evenodd"/><path d="M624,858.2c-2.2,15.4-9.8,24.5-22.4,29.3-12.8,4.8-24.2,3-34.3-6.7-9.5-9.1-11.1-19.7-7.2-31.7,1.1-3.3,2.6-6.6,4.2-9.7,2.6-5.1,7-7.7,12.6-8.4,21.5-2.6,34.6,4.8,47.1,27.2Zm-30.7,20.8c1.4-.2,5-.4,8.2-1.5,6.6-2.2,11.5-13.6,8.8-19.8-4.4-10.1-17.6-17.3-28.2-14.9-5.4,1.2-9.4,4.5-11,10.1-4.3,15.4,3.6,25.7,22.1,26.1Z" fill="#d4c7bf" fill-rule="evenodd"/><path d="M1139.6,1374.6c15.4,3.9,23.9,14.7,26.9,27.8,5.5,24.2,1.3,33-23.5,37.8-15.7,3.1-32-10.2-33.9-26.4-1.7-15.4,6.3-29.4,21.1-36.2,3.1-1.4,6.6-2.2,9.4-3.1Zm-19.6,31.2c-.3,8.9,1.3,16.5,9.4,20.8,6.7,3.6,17.3,2.4,22.4-2.1,5.4-4.7,6.7-14,2.5-22-2-3.9-4.7-7.5-7.6-10.7-4.3-4.7-10.7-5.2-16.9-2.5-7.6,3.3-10,9.3-9.8,16.5Z" fill="#d4c7bf" fill-rule="evenodd"/><path d="M1011.5,1423.3c6.9-1.6,8.1-9,13.1-12.8,11.9-9.2,28.5-12.7,37.5-6.4,11.9,8.4,16.6,20.3,16.1,34.9-.7,26.7-31.7,32.3-45.7,21.8-12.8-9.7-21.6-21.4-20.1-38.5l-.9,1.1Zm54.3,7.2c-.1-10.9-7.5-18.3-18.2-18.1-11.2,.1-19.2,9.1-18.9,21,.3,10.3,6.1,15.7,17.1,15.8,13.8,0,20.1-5.8,20-18.7Z" fill="#d4c7bf" fill-rule="evenodd"/><path d="M1426.9,889.6c-7.1,0-14.4,.7-21.4-.2-14.8-2-25.4-12-28.1-25-1.6-7.6,0-14.6,5.9-19.5,5.4-4.5,11.3-9.1,17.7-11.7,20.2-8.3,35-.6,40.6,20.2,2,7.3,1.4,14.2-3.1,20.4-4.1,5.7-8.4,11.2-12.7,16.8l1.1-.9Zm-15.8-10.7c1.1-.2,4.7-.5,7.9-1.6,12.2-4.2,15.6-21.3,6.2-30.6-5.2-5.2-13.8-5.9-22.1-1.8-10.5,5.1-15.1,11.9-13.8,20.2,1.4,9,8.5,14.1,21.7,13.8Z" fill="#d4c7bf" fill-rule="evenodd"/><path d="M1108.3,573c6.8-1.3,9.4-7.9,14.5-11.3,12-8.1,32.3-5.8,41.5,5.3,1.6,1.9,2.8,4.6,3.2,7.1,2.4,13.9-.7,26.5-9.7,37.6-10.6,13.1-28.4,13.7-39.3,.7-5.8-7-9.7-15-9.5-24.4,0-5.4,.2-10.7,.3-16.1l-.9,1Zm30.9-4.8c-7.3-.2-14.5,4.1-17.2,10.2-4,9-2.4,22.1,3.4,27.1,6.3,5.4,16.2,5.5,21.7,0,4.4-4.5,7.7-9.7,9.2-15.8,2.9-11.2-5.1-21.2-17-21.5Z" fill="#d4c7bf" fill-rule="evenodd"/><path d="M576.6,986.4c-14.7,1.4-26-5.2-35.2-15.8-10.2-11.8-11.3-27.1-2.4-39.6,2.5-3.4,6.5-6.5,10.4-7.9,4.9-1.8,10.6-2.5,15.8-2.2,13.4,.6,25,6.1,30.7,18.4,5.2,11.4,.7,22.6-5.8,33-3.9,6.2-12.1,7.8-14.5,15.2l1.1-.9Zm-26.8-32.5c.3,10.7,6.1,16.3,16.6,16.2,12-.2,20.4-8.5,20.1-19.7-.3-10.8-7.6-17.5-18.9-17.4-12.5,.1-18.2,6.8-17.8,20.9Z" fill="#d4c7bf" fill-rule="evenodd"/><path d="M969.2,534.4c3.4,7.4,8.5,13.1,16.2,16.2,0,2.6,.1,5.3,.2,8,.9,25.4-18.7,41.8-43.4,36.2-2.5-.6-5-1.9-7.1-3.5-14.2-11.4-18-33.4-8.4-48.4,3.6-5.6,9.2-8.8,15.7-9,8.9-.3,17.8,.3,26.7,.5Zm-16.7,51.4c8.9,.2,18.6-9.2,19.4-18.9,.9-10.2-7.4-19.1-17.8-19.1-12.8,0-21,7.7-20.7,19.4,.3,10.3,8.6,18.3,19.1,18.5Z" fill="#d4c7bf" fill-rule="evenodd"/><path d="M1448.2,1013.4c3.1,7.7,8.8,12.8,16.2,16.2,.4,7.1,1.5,14.3,1.2,21.4-.8,17.9-14.9,29.2-32.7,26.7-2.6-.4-5.2-1.3-7.7-2.2-18.2-6.9-24.4-17-21.4-34.9,2.7-16.9,16.1-27.9,33.8-27.8,3.5,0,7.1,.4,10.6,.6Zm2.7,32c.3-9.6-6.4-17.5-15.7-18.3-11-1.1-21.8,7.9-22.3,18.5-.4,10.2,7.7,19.3,17.8,19.9,11.8,.7,19.7-7.1,20.1-20Z" fill="#d4c7bf" fill-rule="evenodd"/><path d="M1442.7,986.7c-15.4,1.2-26.3-7.3-36.6-17-.9-6.2-2-12.3-2.7-18.5-1.4-12.2,3.9-20.8,14.9-25.8,4-1.8,8.2-4,12.5-4.4,11.8-1,23.7-.7,31,11,7.3,11.7,5.2,29.4-4.4,39.8-4.7,5.1-9.8,9.9-14.7,14.9Zm-22.9-50.9c-1.8,3.2-3.5,5.3-4.4,7.8-3.3,9.7-.8,18.5,6.3,23.4,6.1,4.1,17.6,4.7,22.6,.2,6.6-5.8,8.2-13.3,5.4-21.7-1.5-4.3-3.4-8.2-7.8-10.8-6.6-2.2-13.5-2.4-22.1,1.2Z" fill="#d4c7bf" fill-rule="evenodd"/><path d="M1029.1,592.8c-9.7-10.3-18.3-21.2-17-36.7,5-4.9,9.9-9.8,14.9-14.7,5.3-5.3,11.5-8.1,19.1-8.4,23.6-1,35.8,10.9,31.2,37.6-3,17.7-14.3,25.7-32.3,24.7-5.3-.3-10.6-1.7-15.9-2.5Zm36.6-25c.4-12.5-6.5-19.7-19.4-20-9.9-.3-17.2,6.3-17.6,15.8-.5,12,7.6,21.8,18.1,22.2,10.1,.3,18.6-7.8,18.9-18Z" fill="#d4c7bf" fill-rule="evenodd"/><path d="M985,1417.4c4.6,17-1.3,30.2-14.4,41.1-2.6,2.1-4.6,4.9-6.8,7.4-5.4,0-10.8,.4-16.1-.4-22.6-3.5-32.7-22.7-23.5-44,.4-.8,.6-1.7,1-2.5,7.5-15.9,20.3-24.3,42.2-13.5,6.3,3.1,11.7,7.8,17.5,11.8Zm-30.1,31.8c10-.2,17-7,17-16.5,0-11.4-9.3-20.8-20.2-20.3-11,.5-18.5,8.2-18.3,18.8,.2,11.7,8,18.2,21.6,18Z" fill="#d4c7bf" fill-rule="evenodd"/><path d="M532.9,1035c2.5-2.3,5.3-4.3,7.4-6.8,10.9-13,24.2-18.9,41.1-14.4,4,5.8,8.4,11.4,11.8,17.5,5.6,9.9,7.4,20.9,.8,30.5-7.5,10.8-19.1,17.3-32.3,15.7-17.8-2.2-25-7-28.5-26.4-.9-5.2-.3-10.7-.4-16.1Zm16.8,10.7c.4,13.2,7.7,20.5,19.8,19.7,10.2-.7,17.5-9.3,17-20.1-.5-10.8-10.8-19.4-22-18.3-9.8,1-15.1,7.7-14.7,18.7Z" fill="#d4c7bf" fill-rule="evenodd"/><path d="M990.4,931.3c-9.5,3.7-18.5,7.3-27.9,10.9-10.7-7.3-10-20.2-14.7-30.2-3.2-6.7,.3-15.6,5.5-19.3,6.1-4.4,19.2-3.7,24.9,1.8,5.1,4.9,9.8,10.2,10.1,18.1,.2,6.1,1.3,12.1,2.1,18.6Z" fill="#d4c7bf" fill-rule="evenodd"/><path d="M1054.7,905.6c-6,12.1-6.9,26-16.4,36.6-9.5-3.5-18.5-6.8-28.4-10.4,.8-7.8,.5-16,2.8-23.3,2.6-8.5,7.4-16.6,17.7-18,4.3-.6,8.8,.1,13.2,.7,1.6,.2,3.5,1.4,4.4,2.7,2.4,3.6,4.4,7.5,6.8,11.8Z" fill="#d4c7bf" fill-rule="evenodd"/><path d="M1056.1,1037.4c4.2-10.6,7.8-19.5,11.4-28.7,7.6,.7,14.7,.7,21.5,2.1,12.3,2.6,20.1,12.8,19.8,24.8-.3,10.7-9.6,19.1-19.6,15.8-10.8-3.6-22.7-5.1-33-14Z" fill="#d4c7bf" fill-rule="evenodd"/><path d="M934.3,1008.3c2.9,9.8,4,19.7,10.8,28.3-11.2,9.9-24.5,11.8-37,15.3-6.5,1.8-14.3-5.1-15.5-11.8-2.8-15.7,4.1-26.2,19.8-29.3,6.9-1.4,14-1.7,21.9-2.5Z" fill="#d4c7bf" fill-rule="evenodd"/><path d="M1067,989.1c-3.8-10.2-6.9-18.5-10.2-27.1,2-5.2,6.9-7.2,12-8.9,7.6-2.5,15.1-5.3,22.5-7.9,6.9,.2,12.5,3,15.8,8.7,2.7,4.8,2.4,10.5,1.2,15.7-2.3,9.8-10.3,14.5-18.9,17.1-6.6,2-14,1.6-22.4,2.5Z" fill="#d4c7bf" fill-rule="evenodd"/><path d="M961.4,1054.6c5.3,2.3,10,4.6,15.1,6.4,4.1,1.4,8.5,2.1,12.4,3,3.5,8.8-.4,16.6-1.6,24.2-2.2,14.1-13,20.2-27.8,18.2-8-1.1-14.8-9.6-12.4-17.4,3.6-11.7,5.4-24.3,14.2-34.4Z" fill="#d4c7bf" fill-rule="evenodd"/><path d="M934.7,989.5c-9.6-1.1-16.9-1-23.6-2.9-13.7-3.9-19.8-12.1-19.1-24.9,.5-9.8,5.9-14.2,15.4-16.8,11.6,3.5,23.8,8.1,33.6,13,2.7,8.8-2.6,12.6-3.4,17.7-.7,4.3-1.8,8.5-2.9,13.9Z" fill="#d4c7bf" fill-rule="evenodd"/><path d="M1054.3,1089.3c-2.6,14-9.9,18.5-21.4,17.4-9.8-1-18.2-7.6-20.4-18-1.6-7.7-1.9-15.8-3-24.9,9.6-1.6,18.9-3.6,27.4-8.6,12.3,9.9,9.8,25.5,17.4,34.1Z" fill="#d4c7bf" fill-rule="evenodd"/><path d="M999.9,981.3c8.9,0,17.1,7.7,17.5,16.7,.5,9.9-8.6,18.8-18.7,18.3-9-.5-16.6-9-16.1-18,.5-9.3,8.2-16.9,17.2-16.9Z" fill="#d4c7bf" fill-rule="evenodd"/></svg>