	<svg version="1.1" id="xmas" xmlns="http://www.w3.org/2000/svg" xmlns:xlink="http://www.w3.org/1999/xlink" x="0px" y="0px"
		 viewBox="0 0 96.354 121.005" style="enable-background:new 0 0 96.354 121.005;" fill="gainsboro" xml:space="preserve">
		<g>
			<path d="M55.966,50.3l-2.52,0.549l0.225,1.313c0.812-0.466,1.745-0.741,2.74-0.769L55.966,50.3z"/>
			<circle cx="49.739" cy="65.286" r="1.56"/>
			<path d="M58.599,62.731c-0.011,0.076-0.023,0.153-0.023,0.231c0,0.86,0.7,1.56,1.56,1.56s1.56-0.7,1.56-1.56
		c0-0.695-0.456-1.282-1.09-1.482C60.034,62.024,59.353,62.452,58.599,62.731z"/>
			<path d="M67.617,51.818c0.192,0,0.376,0.027,0.56,0.057c0.463-0.934,0.562-1.924,0.354-3.327l-3.928-4.323
		c-1.499,2.724-3.747,4.579-6.688,5.559l0.824,2.021c2.16,0.863,3.692,2.973,3.692,5.438c0,0.933-0.225,1.812-0.614,2.596
		c0.445,0.24,0.829,0.57,1.134,0.968c1.035-0.56,2.091-1.465,2.701-2.464c-0.96-0.638-1.595-1.727-1.595-2.964
		C64.057,53.415,65.654,51.818,67.617,51.818z"/>
			<circle cx="40.501" cy="64.192" r="1.56"/>
			<circle cx="63.498" cy="28.528" r="1.315"/>
			<path d="M43.708,11.794l-2.422,5.432l6.441-3.252c0.014-0.007,0.031-0.004,0.045-0.011c0.039-0.016,0.082-0.018,0.123-0.029
		c0.094-0.028,0.186-0.067,0.283-0.067c0.097,0,0.189,0.039,0.283,0.067c0.041,0.011,0.084,0.013,0.123,0.029
		c0.014,0.006,0.031,0.004,0.045,0.011l6.441,3.252l-2.422-5.432c-0.157-0.353-0.097-0.764,0.153-1.057l3.974-4.653h-4.496
		c-0.357,0-0.687-0.19-0.865-0.499L48.177,0l-3.236,5.586c-0.179,0.309-0.508,0.499-0.865,0.499H39.58l3.974,4.653
		C43.805,11.03,43.864,11.441,43.708,11.794z"/>
			<circle cx="30.737" cy="61.804" r="1.56"/>
			<circle cx="67.617" cy="55.377" r="1.56"/>
			<path d="M56.748,83.347c0,2,1.626,3.626,3.626,3.626S64,85.346,64,83.347s-1.626-3.626-3.626-3.626S56.748,81.347,56.748,83.347z"
		/>
			<path d="M60.82,77.743l-0.372-1.395l-2.16,0.347v1.431c0.646-0.259,1.348-0.405,2.085-0.405
		C60.525,77.721,60.673,77.732,60.82,77.743z"/>
			<path d="M67.617,58.937c0,0-0.001,0-0.001,0c-0.818,1.612-2.421,2.986-3.947,3.756c0.007,0.09,0.026,0.177,0.026,0.269
		c0,1.963-1.597,3.56-3.56,3.56c-0.978,0-1.865-0.397-2.509-1.038c-1.506,0.376-3.014,0.66-4.503,0.848
		c-0.45,1.45-1.788,2.513-3.385,2.513c-1.528,0-2.823-0.973-3.327-2.328c-0.996-0.072-1.981-0.19-2.951-0.354
		c-0.639,0.956-1.726,1.588-2.96,1.588c-1.642,0-3.015-1.124-3.424-2.639c-1.384-0.138-2.619-0.437-3.73-0.909
		c-0.651,0.708-1.576,1.159-2.611,1.159c-1.267,0-2.373-0.67-3.004-1.669l-7.43,7.636c5.16-0.347,9.49-1.523,13.172-3.579
		c0.108-0.061,0.228-0.096,0.352-0.113c0.041-0.006,0.081,0,0.122-0.001c0.058-0.001,0.114-0.011,0.173-0.001l3.979,0.635
		c0.024,0.004,0.044,0.017,0.067,0.022c0.041,0.009,0.078,0.024,0.117,0.039c0.08,0.03,0.153,0.067,0.222,0.115
		c0.02,0.014,0.044,0.018,0.064,0.033c6.214,5.017,12.295,7.099,18.589,6.37l3.808-0.612c3.721-0.912,6.892-3.541,9.935-8.201
		l-3.442-3.538c-0.28-0.288-0.361-0.716-0.205-1.086c0.157-0.37,0.52-0.611,0.921-0.611h11.489L70.57,50.791
		c-0.091,0.691-0.286,1.329-0.589,1.944c0.728,0.652,1.196,1.589,1.196,2.642C71.176,57.34,69.58,58.937,67.617,58.937z"/>
			<path d="M56.575,61.099c2.127,0,3.857-1.73,3.857-3.857s-1.73-3.857-3.857-3.857s-3.857,1.73-3.857,3.857
		S54.448,61.099,56.575,61.099z"/>
			<path d="M74.761,67.136l5.988,6.154c0.454-0.704,0.706-1.52,0.706-2.38c0-2.436-1.981-4.418-4.417-4.418
		C76.221,66.492,75.443,66.723,74.761,67.136z"/>
			<path d="M37.281,31.054c0.426-0.2,0.896-0.32,1.397-0.32c1.828,0,3.315,1.487,3.315,3.315c0,0.155-0.025,0.303-0.046,0.452
		c0.831,0.268,1.732,0.421,2.686,0.474c0.608-0.703,1.496-1.158,2.496-1.158c1.009,0,1.903,0.463,2.512,1.176
		c0.998-0.018,1.91-0.088,2.744-0.219c0.178-1.661,1.572-2.964,3.28-2.964c0.804,0,1.533,0.299,2.108,0.778
		c0.941-0.682,1.856-1.542,2.766-2.595c-0.144-0.289-0.248-0.598-0.303-0.927L48.177,16.321L37.339,27.777
		c0.004,0.067,0.02,0.131,0.02,0.199c0,0.791-0.29,1.508-0.753,2.078C36.821,30.406,37.046,30.74,37.281,31.054z"/>
			<path d="M29.177,78.721c0,2.914,2.371,5.284,5.284,5.284s5.284-2.371,5.284-5.284s-2.37-5.284-5.284-5.284
		S29.177,75.807,29.177,78.721z"/>
			<path d="M51.475,51.186c-1.396,0.189-2.771,0.309-4.107,0.309c-6.234,0-11.803-2.074-16.637-6.147l-8.076,8.889
		c1.886,2.572,3.617,4.216,5.466,5.173c0.651-0.711,1.578-1.165,2.616-1.165c1.963,0,3.56,1.597,3.56,3.56
		c0,0.208-0.027,0.41-0.062,0.609c0.858,0.351,1.818,0.581,2.893,0.7c0.46-1.433,1.79-2.479,3.374-2.479
		c1.963,0,3.56,1.597,3.56,3.56c0,0.014-0.004,0.028-0.004,0.042c0.731,0.116,1.469,0.205,2.217,0.265
		c0.36-1.585,1.773-2.774,3.466-2.774c1.623,0,2.981,1.099,3.408,2.587c1.158-0.156,2.328-0.371,3.5-0.647
		c-0.037-0.184-0.05-0.375-0.057-0.568c-0.005,0-0.01,0.001-0.015,0.001c-3.229,0-5.857-2.627-5.857-5.857
		c0-1.325,0.447-2.545,1.192-3.527L51.475,51.186z"/>
			<path d="M37.323,72.024l-0.268-1.894l-2.478-0.395l-0.738,1.733c0.206-0.018,0.412-0.031,0.622-0.031
		C35.477,71.437,36.444,71.647,37.323,72.024z"/>
			<path d="M78.393,89.304c-0.869,0.688-1.76,1.341-2.67,1.958c0.124,0.372,0.207,0.762,0.207,1.174c0,2.066-1.681,3.748-3.748,3.748
		c-1.143,0-2.155-0.525-2.843-1.334c-1.307,0.599-2.655,1.141-4.034,1.619c-0.133,1.947-1.742,3.495-3.722,3.495
		c-1.296,0-2.439-0.662-3.112-1.664c-1.919,0.367-3.912,0.637-5.948,0.805c-0.416,1.616-1.873,2.818-3.617,2.818
		c-1.591,0-2.945-1.001-3.488-2.403h-5.501c-0.441,1.579-1.877,2.748-3.595,2.748c-1.752,0-3.215-1.213-3.623-2.839
		c-1.803-0.198-3.578-0.492-5.301-0.878c-0.651,1.109-1.844,1.864-3.221,1.864c-2.066,0-3.748-1.681-3.748-3.748
		c0-0.093,0.021-0.18,0.027-0.271c-1.712-0.689-3.391-1.489-5.012-2.39c-0.543,0.306-1.16,0.496-1.827,0.496
		c-0.265,0-0.522-0.029-0.772-0.082L0,107.266h96.354L78.393,89.304z"/>
			<circle cx="48.906" cy="98.176" r="1.748"/>
			<circle cx="61.583" cy="96.217" r="1.748"/>
			<circle cx="36.323" cy="98.521" r="1.748"/>
			<circle cx="72.182" cy="92.437" r="1.748"/>
			<path d="M13.618,89.006c-0.963,0-1.747,0.784-1.747,1.748c0,0.72,0.438,1.339,1.061,1.606c0.005,0.002,0.009,0.004,0.014,0.006
		c0.207,0.087,0.434,0.135,0.672,0.135c0.963,0,1.748-0.784,1.748-1.748c0-0.238-0.049-0.465-0.135-0.672
		c-0.002-0.005-0.004-0.009-0.006-0.014C14.957,89.445,14.338,89.006,13.618,89.006z"/>
			<path d="M64.769,119.209l-11.891-1.776c-1.824-0.273-3.199-1.869-3.199-3.713v-4.454h-3.002v4.454c0,1.844-1.375,3.44-3.199,3.713
		l-11.891,1.777c-1.027,0.153-1.866,0.865-2.223,1.795h37.629C66.634,120.075,65.796,119.363,64.769,119.209z"/>
			<path d="M22.43,96.667c0,0.963,0.784,1.748,1.748,1.748s1.748-0.784,1.748-1.748s-0.784-1.747-1.748-1.747
		S22.43,95.703,22.43,96.667z"/>
			<circle cx="55.666" cy="35.127" r="1.315"/>
			<path d="M21.771,84.622c0.155,0.374,0.069,0.804-0.217,1.09l-4.27,4.27c0.052,0.249,0.082,0.507,0.082,0.772
		c0,0.643-0.178,1.24-0.465,1.77c1.372,0.74,2.785,1.403,4.223,1.985c0.679-0.958,1.792-1.589,3.054-1.589
		c2.05,0,3.716,1.656,3.743,3.699c1.574,0.349,3.193,0.619,4.838,0.805c0.473-1.529,1.882-2.65,3.565-2.65
		c1.718,0,3.154,1.168,3.595,2.748h5.307c0.312-1.754,1.839-3.092,3.681-3.092c1.691,0,3.107,1.133,3.572,2.674
		c1.839-0.156,3.638-0.397,5.375-0.721c-0.003-0.056-0.017-0.108-0.017-0.164c0-2.066,1.681-3.748,3.748-3.748
		c1.442,0,2.681,0.827,3.308,2.024c1.23-0.435,2.435-0.92,3.604-1.455c-0.032-0.197-0.061-0.395-0.061-0.601
		c0-2.066,1.681-3.748,3.748-3.748c0.929,0,1.77,0.352,2.425,0.914c0.803-0.545,1.59-1.121,2.361-1.724L74.8,85.712
		c-0.286-0.286-0.372-0.716-0.217-1.09c0.155-0.374,0.52-0.617,0.924-0.617h12.876l-8.284-8.514c0,0-0.001,0-0.001-0.001
		s0-0.001-0.001-0.001l-7.771-7.986c-2.982,4.438-6.248,7.196-9.931,8.385l0.672,2.522C64.813,79.366,66,81.22,66,83.347
		c0,3.103-2.524,5.626-5.626,5.626s-5.626-2.524-5.626-5.626c0-1.493,0.588-2.848,1.541-3.856v-2.556
		c-0.531,0.037-1.061,0.061-1.588,0.061c-5.227,0-10.313-1.812-15.428-5.476l0.283,2.004c1.349,1.323,2.19,3.163,2.19,5.197
		c0,4.017-3.268,7.284-7.284,7.284c-4.017,0-7.284-3.268-7.284-7.284c0-2.916,1.727-5.431,4.208-6.593l0.611-1.436
		c-3.92,1.701-8.44,2.602-13.727,2.729L7.971,84.005h12.876C21.251,84.005,21.616,84.249,21.771,84.622z"/>
			<path d="M37.363,34.05c0,0.726,0.59,1.316,1.316,1.316c0.725,0,1.315-0.59,1.315-1.316c0-0.725-0.59-1.315-1.315-1.315
		C37.953,32.735,37.363,33.325,37.363,34.05z"/>
			<circle cx="34.043" cy="27.976" r="1.315"/>
			<circle cx="47.13" cy="37.134" r="1.315"/>
			<path d="M36.092,38.563c0.16,0.362,0.091,0.783-0.175,1.076l-3.853,4.24c5.694,4.786,12.261,6.496,20.051,5.212l4.226-0.92
		c3.186-0.781,5.413-2.606,6.813-5.54l-2.719-2.992c-0.266-0.292-0.334-0.714-0.175-1.076s0.517-0.596,0.912-0.597l7.462-0.021
		l-5.849-6.182c-0.304-0.067-0.585-0.184-0.852-0.328c-1.003,1.143-2.023,2.082-3.081,2.837c0.074,0.275,0.126,0.558,0.126,0.855
		c0,1.828-1.487,3.315-3.315,3.315c-1.242,0-2.313-0.694-2.881-1.707c-0.737,0.119-1.516,0.2-2.355,0.239
		c0.003,0.054,0.016,0.104,0.016,0.159c0,1.828-1.487,3.315-3.315,3.315s-3.315-1.487-3.315-3.315c0-0.07,0.016-0.135,0.021-0.204
		c-0.969-0.101-1.883-0.315-2.748-0.616c-0.605,0.644-1.458,1.052-2.409,1.052c-1.829,0-3.316-1.487-3.316-3.316
		c0-0.596,0.171-1.149,0.448-1.633c-0.306-0.396-0.597-0.817-0.873-1.264c-0.286,0.081-0.582,0.138-0.894,0.138
		c-0.009,0-0.018-0.003-0.028-0.003l-6.298,6.657l7.462,0.021C35.575,37.968,35.933,38.202,36.092,38.563z"/>
			<path d="M27.167,46.295c-0.809-0.75-1.86-1.174-2.99-1.174c-2.435,0-4.416,1.981-4.416,4.416c0,1.28,0.544,2.456,1.476,3.286
		L27.167,46.295z"/>
			<path d="M19.895,54.3c-0.397-0.355-0.744-0.752-1.037-1.186c-0.329,0.419-0.533,0.93-0.533,1.483c0,0.397,0.104,0.777,0.283,1.12
		L19.895,54.3z"/>
			<path d="M29.22,44.037l-0.949-0.861l-0.842,0.835c0.386,0.228,0.748,0.497,1.082,0.805L29.22,44.037z"/>
			<path d="M21.279,55.751l-4.591,5.053h9.851C24.349,59.485,22.628,57.558,21.279,55.751z"/>
		</g>
	</svg>
