<?xml version="1.0" encoding="utf-8"?>

<svg  xmlns="http://www.w3.org/2000/svg">

	<symbol id="cash" data-name="Layer 1" viewBox="0 0 512 512">
		<path d="M16,171.78V315.97a29.614,29.614,0,0,0,29.61,29.61h247.7L458.2,279.37l.04-.05V171.78Z" style="fill:#4689d3"/>
		<rect x="16" y="123.55" width="442.24" height="48.23" style="fill:#6d7486"/>
		<path d="M458.24,82.02v41.53H16V82.02A29.616,29.616,0,0,1,45.61,52.4H428.62a29.616,29.616,0,0,1,29.62,29.61Z" style="fill:#4689d3"/>
		<path d="M291.31,345.58a102.664,102.664,0,1,1-.63,11.36A101.5,101.5,0,0,1,291.31,345.58Z" style="fill:#edb740"/>
		<circle cx="393.34" cy="356.94" r="73.75" style="fill:#f9d438"/>
		<path d="M163.53,235.51a24.925,24.925,0,0,1,0,49.85H84.38a24.925,24.925,0,0,1,0-49.85Z" style="fill:#6994fe"/>
		<path d="M46,315.97V171.78H16V315.97a29.614,29.614,0,0,0,29.61,29.61h30A29.614,29.614,0,0,1,46,315.97Z" style="fill:#3a75aa"/>
		<rect x="16" y="123.55" width="30" height="48.23" style="fill:#4d535e"/>
		<path d="M75.61,52.4h-30A29.616,29.616,0,0,0,16,82.02v41.53H46V82.02A29.616,29.616,0,0,1,75.61,52.4Z" style="fill:#3a75aa"/>
		<path d="M349.59,356.94a73.775,73.775,0,0,1,58.75-72.22,73.75,73.75,0,1,0,0,144.44A73.775,73.775,0,0,1,349.59,356.94Z" style="fill:#d3b433"/>
		<path d="M393.339,351.214a12.07,12.07,0,1,1,12.069-12.069,6,6,0,0,0,12,0,24.113,24.113,0,0,0-18.069-23.313v-4.685a6,6,0,0,0-12,0v4.685a24.071,24.071,0,0,0,6,47.382,12.066,12.066,0,0,1,.13,24.132c-.044,0-.086-.007-.13-.007s-.087.006-.131.007a12.079,12.079,0,0,1-11.938-12.063,6,6,0,0,0-12,0A24.111,24.111,0,0,0,387.339,398.6V404.1a6,6,0,0,0,12,0V398.6a24.071,24.071,0,0,0-6-47.381Z" style="fill:#d8a43d"/>
		<path d="M393.338,442.179a6,6,0,0,0-6,6v10.579a6.074,6.074,0,0,0,.039.665c1.974.113,3.961.177,5.963.177s3.986-.064,5.959-.176a6.107,6.107,0,0,0,.039-.666V448.179A6,6,0,0,0,393.338,442.179Z" style="fill:#c69739"/>
		<path d="M393.34,254.28c-2,0-3.99.064-5.964.177a6,6,0,0,0-.038.66V265.7a6,6,0,0,0,12,0V255.117a6.008,6.008,0,0,0-.036-.646C397.327,254.358,395.343,254.28,393.34,254.28Z" style="fill:#c69739"/>
		<path d="M302.1,350.938H291.518a6.085,6.085,0,0,0-.664.039q-.171,2.96-.174,5.963c0,2,.063,3.987.176,5.96a6.293,6.293,0,0,0,.662.038H302.1a6,6,0,0,0,0-12Z" style="fill:#c69739"/>
		<path d="M495.83,350.978a5.955,5.955,0,0,0-.671-.04H484.58a6,6,0,0,0,0,12h10.579a6.089,6.089,0,0,0,.665-.039c.113-1.972.176-3.958.176-5.959S495.943,352.951,495.83,350.978Z" style="fill:#c69739"/>
		<path d="M325.582,280.7a5.968,5.968,0,0,0-.514-.42,103.163,103.163,0,0,0-8.393,8.389,6.044,6.044,0,0,0,.423.517l7.481,7.48a6,6,0,0,0,8.484-8.486Z" style="fill:#c69739"/>
		<path d="M462.1,417.212a6,6,0,0,0-8.486,8.486l7.48,7.48a6.28,6.28,0,0,0,.519.424,103.311,103.311,0,0,0,8.39-8.391,6.07,6.07,0,0,0-.423-.519Z" style="fill:#c69739"/>
		<path d="M457.856,298.42a5.984,5.984,0,0,0,4.243-1.757l7.48-7.48a6.006,6.006,0,0,0,.421-.516,103.188,103.188,0,0,0-8.4-8.386,6.207,6.207,0,0,0-.509.416l-7.48,7.48a6,6,0,0,0,4.243,10.243Z" style="fill:#c69739"/>
		<path d="M324.579,417.212l-7.481,7.48a5.706,5.706,0,0,0-.422.517,103.151,103.151,0,0,0,8.39,8.391,6.214,6.214,0,0,0,.516-.422l7.481-7.48a6,6,0,0,0-8.484-8.486Z" style="fill:#c69739"/>
	</symbol>

	<symbol id="palette" data-name="Layer 1" viewBox="0 0 512 512">
		<path d="M486.12,241.27C485.11,110.14,376.2,16.235,245.065,16.005c-53.56.56-90.515,55.175-69.655,104.515,16.31,38.55,25.85,85.21,25.85,135.48s-9.54,96.92-25.85,135.48C154.57,440.76,191.28,495.405,244.78,496,377.96,496,487.14,374.68,486.12,241.27Zm-230.487,91.2c-14.84-.88-26.923-14.57-25.1-29.32A385.566,385.566,0,0,0,233.4,256a384.734,384.734,0,0,0-3.18-49.58c-1.91-14.76,10.333-28.433,25.173-29.453,41.72-.1,77.457,33.143,78.977,74.833C335.98,296.09,299.553,332.47,255.633,332.47Z" style="fill:#ffd8b7"/>
		<path d="M203.41,391.48c16.31-38.56,25.85-85.21,25.85-135.48s-9.54-96.93-25.85-135.48c-19.616-46.4,11.9-97.455,60.261-103.845q-9.217-.646-18.606-.67c-53.56.56-90.515,55.175-69.655,104.515,16.31,38.55,25.85,85.21,25.85,135.48s-9.54,96.92-25.85,135.48C154.57,440.76,191.28,495.405,244.78,496q9.1,0,18.036-.751C214.856,488.494,183.891,437.635,203.41,391.48Z" style="fill:#e2b99a"/>
		<path d="M245.065,16.005c1-.01-1,0,0,0Z" style="fill:#ffd8b7"/>
		<path d="M132.48,193.44a351.206,351.206,0,0,1-4.59,54.34H64.8C59.9,130.32,78.23,18.7,78.59,16.5c.2-.02.4-.03.59-.03C97.43,16.47,132.48,92.84,132.48,193.44Z" style="fill:#577ddd"/>
		<path d="M64.8,247.78h63.09a541.4,541.4,0,0,1-25.92,98.67c-.02.06-.04.11-.06.17H75.37v-.63C69.4,314.33,66.18,280.83,64.8,247.78Z" style="fill:#ce4a60"/>
		<path d="M102.45,346.62C138.86,413.15,88.64,467.13,91.15,496,44.71,445.79,74.87,346.62,74.87,346.62h27.04c.02-.06.04-.11.06-.17Z" style="fill:#545b6b"/>
		<path d="M75.37,345.99v.63H56.45c-.02-.05-.03-.09-.05-.14a541.267,541.267,0,0,1-25.93-98.7H64.8C66.18,280.83,69.4,314.33,75.37,345.99Z" style="fill:#e75163"/>
		<path d="M78.59,16.5C78.23,18.7,59.9,130.32,64.8,247.78H30.47a351.206,351.206,0,0,1-4.59-54.34C25.88,93.99,61.45,18.22,78.59,16.5Z" style="fill:#6492ed"/>
		<path d="M56.45,346.62H74.87S44.71,445.79,91.15,496C10.81,470.89,56.01,346.62,56.01,346.62l.39-.14C56.42,346.53,56.43,346.57,56.45,346.62Z" style="fill:#697384"/>
		<path d="M407.06,215.5a40.5,40.5,0,1,1-40.5,40.5A40.495,40.495,0,0,1,407.06,215.5Z" style="fill:#604af3"/>
		<path d="M364.63,98.51a40.5,40.5,0,1,1-40.49,40.5A40.5,40.5,0,0,1,364.63,98.51Z" style="fill:#e75163"/>
		<path d="M364.63,327.35a40.5,40.5,0,1,1-40.49,40.5A40.5,40.5,0,0,1,364.63,327.35Z" style="fill:#f9d438"/>
		<path d="M259.21,50.95a40.5,40.5,0,1,1-40.49,40.49A40.495,40.495,0,0,1,259.21,50.95Z" style="fill:#50dd5a"/>
		<path d="M259.21,383.92a40.5,40.5,0,1,1-40.49,40.49A40.495,40.495,0,0,1,259.21,383.92Z" style="fill:#fd9003"/>
		<path d="M102.632,107.5a5,5,0,0,1-4.873-3.9c-.827-3.677-1.713-7.345-2.633-10.9a5,5,0,1,1,9.681-2.5c.947,3.659,1.858,7.432,2.708,11.212a5,5,0,0,1-4.883,6.1Z" style="fill:#e2e4ed"/>
		<path d="M111.352,224.424q-.21,0-.423-.018a5,5,0,0,1-4.565-5.4c.739-8.813,1.114-17.413,1.114-25.562a420.663,420.663,0,0,0-5.536-68.321,5,5,0,0,1,9.867-1.628,430.744,430.744,0,0,1,5.669,69.949c0,8.427-.387,17.308-1.149,26.4A5,5,0,0,1,111.352,224.424Z" style="fill:#e2e4ed"/>
	</symbol>

	<symbol id="secure" data-name="Layer 1" viewBox="0 0 512 512">
		<title>promotions</title>
		<path d="M450.75,11,485,62.41l-21.34,41.57a159.59,159.59,0,0,0-12.23,113.07h.01C495.28,452.16,256,501,256,501S2.06,458.06,60.56,217.05h.01A159.59,159.59,0,0,0,48.34,103.98L27,62.41,61.25,11a109.294,109.294,0,0,0,97.57,60.04C235.01,71.04,256,11,256,11s20.99,60.04,97.18,60.04A109.294,109.294,0,0,0,450.75,11Z" style="fill:#e04a5d"/>
		<path d="M351.16,236.53a3.163,3.163,0,0,1,1.75,5.39l-45.02,43.87a3.176,3.176,0,0,0-.91,2.79l10.57,62a3.154,3.154,0,0,1-4.58,3.33L257.4,324.6a3.152,3.152,0,0,0-2.94-.01l-55.62,29.23a3.155,3.155,0,0,1-4.57-3.34l10.67-61.98a3.2,3.2,0,0,0-.91-2.8l-44.94-43.94a3.153,3.153,0,0,1,1.75-5.38l62.17-9a3.14,3.14,0,0,0,2.37-1.72l27.85-56.38a3.153,3.153,0,0,1,5.66,0l27.75,56.43a3.152,3.152,0,0,0,2.37,1.73Z" style="fill:#fffd54"/>
		<path d="M100.56,217.05h.01A159.59,159.59,0,0,0,88.34,103.98L67,62.41,82.183,39.62A109.717,109.717,0,0,1,61.25,11L27,62.41l21.34,41.57A159.59,159.59,0,0,1,60.57,217.05h-.01C2.06,458.06,256,501,256,501s7.119-1.454,18.673-5.064C214.8,479.162,52.576,414.736,100.56,217.05Z" style="fill:#ff5a5a"/>
	</symbol>


	<symbol id="pc" viewBox="0 0 512 512">
		<path d="M422.604,343.683l-6.734-7.393,1.636-1.49c15.307-13.95,32.949-24.581,52.438-31.597,9.604-3.458,16.057-12.639,16.057-22.846,0-8.311-3.979-15.699-10.918-20.273-6.938-4.572-15.296-5.318-22.935-2.043l-1.271,.545-3.941-9.189,1.271-.545c10.627-4.558,22.729-3.478,32.38,2.884,9.652,6.362,15.414,17.062,15.414,28.622,0,14.411-9.11,27.373-22.67,32.254-18.243,6.568-34.759,16.521-49.089,29.58l-1.637,1.491Z" style="fill:#ad2a34;"/>
		<path d="M312.47,226.47v22.48c0,40.59,16.57,79.43,45.88,107.52h53.53l.76-.79c4.16-4.35,8.03-8.92,11.6-13.69,18.54-24.77,28.98-54.82,29.67-86l.03-29.52h-141.47Z" style="fill:#de3c44;"/>
		<rect x="358.35" y="356.47" width="53.53" height="18.17" style="fill:#ad2a34;"/>
		<rect x="16" y="105.48" width="267.41" height="206.82" rx="16.53" ry="16.53" style="fill:#ccd3df;"/>
		<rect x="92.26" y="357.74" width="114.89" height="16.9" style="fill:#ccd3df;"/>
		<rect x="115.35" y="312.3" width="68.72" height="45.44" style="fill:#b0b5ca;"/>
		<circle cx="149.71" cy="290.48" r="7" style="fill:#6d7486;"/>
		<rect x="31.77" y="374.64" width="451.29" height="31.88" style="fill:#7cadc2;"/>
		<rect x="31.77" y="374.64" width="25" height="31.88" style="fill:#5d91a3;"/>
		<path d="M41,295.77V122.01c0-9.13,7.4-16.53,16.53-16.53h-25c-9.13,0-16.53,7.4-16.53,16.53v173.76c0,9.13,7.4,16.53,16.53,16.53h25c-9.13,0-16.53-7.4-16.53-16.53Z" style="fill:#9faec4;"/>
		<rect x="92.26" y="357.74" width="25" height="16.9" style="fill:#9faec4;"/>
		<rect x="40.56" y="128.81" width="218.29" height="139.62" style="fill:#4689d3;"/>
		<rect x="40.56" y="128.81" width="25" height="139.62" style="fill:#2f73af;"/>
		<path d="M337.47,248.95v-22.48h-25v22.48c0,40.59,16.57,79.43,45.88,107.52h25c-29.31-28.09-45.88-66.93-45.88-107.52Z" style="fill:#bc2a38;"/>
		<rect x="358.35" y="356.47" width="25" height="18.17" style="fill:#8e1b29;"/>
		<g>
			<path d="M63.248,168.718c-2.762,0-5-2.238-5-5v-14.779c0-2.762,2.238-5,5-5s5,2.238,5,5v14.779c0,2.762-2.238,5-5,5Z" style="fill:#f4f8fc;"/>
			<path d="M63.248,230.497c-2.762,0-5-2.238-5-5v-39.587c0-2.762,2.238-5,5-5s5,2.238,5,5v39.587c0,2.762-2.238,5-5,5Z" style="fill:#f4f8fc;"/>
			<path d="M379.948,184.354c-2.008,0-3.901-1.218-4.667-3.203-5.498-14.27-1.783-23.586,1.494-31.805,2.972-7.455,5.539-13.894,1.45-24.506-.992-2.577,.292-5.471,2.868-6.464,2.576-.991,5.47,.292,6.464,2.868,5.498,14.27,1.783,23.586-1.494,31.805-2.972,7.455-5.539,13.894-1.45,24.506,.992,2.577-.292,5.471-2.868,6.464-.591,.228-1.199,.335-1.797,.335Z" style="fill:#b0b5ca;"/>
			<path d="M349.333,204.106c-2.008,0-3.901-1.218-4.667-3.203-5.498-14.27-1.783-23.586,1.493-31.805,2.973-7.455,5.539-13.894,1.45-24.506-.992-2.577,.292-5.471,2.868-6.464,2.575-.991,5.471,.292,6.464,2.868,5.498,14.27,1.783,23.586-1.493,31.805-2.973,7.455-5.539,13.894-1.45,24.506,.992,2.577-.292,5.471-2.868,6.464-.591,.228-1.199,.335-1.797,.335Z" style="fill:#b0b5ca;"/>
			<path d="M410.564,204.106c-2.008,0-3.901-1.218-4.667-3.203-5.498-14.27-1.783-23.586,1.493-31.805,2.973-7.455,5.539-13.894,1.45-24.506-.992-2.577,.292-5.471,2.868-6.464,2.575-.991,5.471,.292,6.464,2.868,5.498,14.27,1.783,23.586-1.493,31.805-2.973,7.455-5.539,13.894-1.45,24.506,.992,2.577-.292,5.471-2.868,6.464-.591,.228-1.199,.335-1.797,.335Z" style="fill:#b0b5ca;"/>
		</g>
	</symbol>

	<symbol id="schedule" viewBox="0 0 64 64" data-name="Layer 1">
		<path d="M52,8h0a4,4,0,0,1,4,4V39.2L44.677,58H6a4,4,0,0,1-4-4V12A4,4,0,0,1,6,8Z" style="fill:#ccc"/>
		<path d="M26.682,55h19.8L56,39.2V12a4,4,0,0,0-4-4H6V34.318A20.682,20.682,0,0,0,26.682,55Z" style="fill:#e6e6e6"/>
		<path d="M52,8H6a4,4,0,0,0-4,4v8H56V12A4,4,0,0,0,52,8Z" style="fill:#e73844"/>
		<path d="M52,8H6V20H56V12A4,4,0,0,0,52,8Z" style="fill:#ff4d55"/>
		<rect x="26" y="26" width="6" height="6" style="fill:#fff"/>
		<rect x="36" y="26" width="6" height="6" style="fill:#fff"/>
		<rect x="46" y="26" width="6" height="6" style="fill:#fff"/>
		<rect x="26" y="36" width="6" height="6" style="fill:#fff"/>
		<rect x="36" y="36" width="6" height="6" style="fill:#fff"/>
		<polyline points="52 38 52 36 46 36 46 39.201" style="fill:#fff"/>
		<rect x="6" y="36" width="6" height="6" style="fill:#fff"/>
		<rect x="16" y="36" width="6" height="6" style="fill:#fff"/>
		<rect x="26" y="46" width="6" height="6" style="fill:#fff"/>
		<polyline points="40.415 46 36 46 36 52 40.413 52" style="fill:#fff"/>
		<rect x="6" y="46" width="6" height="6" style="fill:#fff"/>
		<rect x="16" y="46" width="6" height="6" style="fill:#fff"/>
		<rect x="7" y="4" width="4" height="10" rx="2" style="fill:#f9cb5d"/>
		<rect x="17" y="4" width="4" height="10" rx="2" style="fill:#f9cb5d"/>
		<rect x="27" y="4" width="4" height="10" rx="2" style="fill:#f9cb5d"/>
		<rect x="37" y="4" width="4" height="10" rx="2" style="fill:#f9cb5d"/>
		<rect x="47" y="4" width="4" height="10" rx="2" style="fill:#f9cb5d"/>
		<path d="M9,4v6a2,2,0,0,0,2,2V6A2,2,0,0,0,9,4Z" style="fill:#ffd98c"/>
		<path d="M19,4v6a2,2,0,0,0,2,2V6A2,2,0,0,0,19,4Z" style="fill:#ffd98c"/>
		<path d="M29,4v6a2,2,0,0,0,2,2V6A2,2,0,0,0,29,4Z" style="fill:#ffd98c"/>
		<path d="M39,4v6a2,2,0,0,0,2,2V6A2,2,0,0,0,39,4Z" style="fill:#ffd98c"/>
		<path d="M49,4v6a2,2,0,0,0,2,2V6A2,2,0,0,0,49,4Z" style="fill:#ffd98c"/>
		<circle cx="51" cy="49" r="11" style="fill:#8dbf00"/>
		<path d="M51,38a10.94,10.94,0,0,0-6.706,2.294A10.987,10.987,0,0,0,59.706,55.706,10.987,10.987,0,0,0,51,38Z" style="fill:#a8d600"/>
		<polygon points="43 50 46 47 49 50 56 43 59 46 49 56 43 50" style="fill:#fff"/>
	</symbol>



	<symbol id="printer" data-name="Layer 1" viewBox ="0 0 512 512">
		<title>printer</title>
		<path d="M461.09,229.31A20,20,0,0,0,449.86,226H62.14A19.956,19.956,0,0,0,42,245.76V372.32A19.908,19.908,0,0,0,62.14,392H449.86A19.908,19.908,0,0,0,470,372.32V245.76A19.863,19.863,0,0,0,461.09,229.31Z" style="fill:#53c1d3"/>
		<path d="M373.54,53.52A20.742,20.742,0,0,0,352.85,35H159.15a20.742,20.742,0,0,0-20.69,18.52L128.77,144H383.23Z" style="fill:#f8d2c5"/>
		<path d="M419.93,253.02a10.655,10.655,0,1,1-10.65,10.65A10.654,10.654,0,0,1,419.93,253.02Z" style="fill:#9be147"/>
		<path d="M378.54,313H133.46a24.526,24.526,0,0,0-17.27,7.38A24.227,24.227,0,0,0,109,337.6,24.489,24.489,0,0,0,133.46,362H378.54a24.226,24.226,0,0,0,17.27-7.04A24.586,24.586,0,0,0,378.54,313Z" style="fill:#4f9bb2"/>
		<path d="M372.57,253.02a10.655,10.655,0,1,1-10.65,10.65A10.654,10.654,0,0,1,372.57,253.02Z" style="fill:#fb6771"/>
		<path d="M325.21,253.02a10.655,10.655,0,1,1-10.65,10.65A10.646,10.646,0,0,1,325.21,253.02Z" style="fill:#ffdb00"/>
		<path d="M393.93,464.72,362,336H149.98L118.07,464.8a9.816,9.816,0,0,0,9.7,12.2H384.23A9.88,9.88,0,0,0,393.93,464.72Z" style="fill:#e0eff9"/>
		<path d="M72,372.32V245.76A19.956,19.956,0,0,1,92.14,226h-30A19.956,19.956,0,0,0,42,245.76V372.32A19.908,19.908,0,0,0,62.14,392h30A19.908,19.908,0,0,1,72,372.32Z" style="fill:#36acb2"/>
		<path d="M189.15,35h-30a20.742,20.742,0,0,0-20.69,18.52L128.77,144h30l9.69-90.48A20.742,20.742,0,0,1,189.15,35Z" style="fill:#d8a9a0"/>
		<path d="M148.07,464.8,179.98,336h-30L118.07,464.8a9.816,9.816,0,0,0,9.7,12.2h30A9.816,9.816,0,0,1,148.07,464.8Z" style="fill:#bcd5e2"/>
		<path d="M256,60.619a6,6,0,0,0-6,6V144h12V66.619A6,6,0,0,0,256,60.619Z" style="fill:#c68d85"/>
		<path d="M221.151,60.622a6,6,0,0,0-6.178,5.815l-2.335,77.217,11.994.363L226.967,66.8A6,6,0,0,0,221.151,60.622Z" style="fill:#c68d85"/>
		<path d="M186.392,60.636a6,6,0,0,0-6.435,5.531l-5.838,77.217,11.965.9,5.839-77.217A6,6,0,0,0,186.392,60.636Z" style="fill:#c68d85"/>
		<path d="M290.849,60.622a6,6,0,0,0-5.816,6.178l2.335,77.217,11.994-.363-2.335-77.217A6,6,0,0,0,290.849,60.622Z" style="fill:#c68d85"/>
		<path d="M332.043,66.167a6,6,0,1,0-11.966.9l5.839,77.217,11.965-.9Z" style="fill:#c68d85"/>
		<path d="M212.3,264.292H103.242a6,6,0,0,1,0-12H212.3a6,6,0,1,1,0,12Z" style="fill:#fff"/>
		<path d="M85.532,264.292h-5.36a6,6,0,0,1,0-12h5.36a6,6,0,1,1,0,12Z" style="fill:#fff"/>
		<path d="M418.29,154.04A19.907,19.907,0,0,0,400.9,144H109.54A19.92,19.92,0,0,0,92.1,154.13L49.68,229.7l.24.41A19.721,19.721,0,0,1,62.14,226H449.86a19.8,19.8,0,0,1,11.16,3.35Z" style="fill:#7ce5e9"/>
		<path d="M139.54,144h-30A19.92,19.92,0,0,0,92.1,154.13L49.68,229.7l.24.41A19.721,19.721,0,0,1,62.14,226H81.757L122.1,154.13A19.92,19.92,0,0,1,139.54,144Z" style="fill:#6acece"/>
	</symbol>

	<symbol id="admin" data-name="Layer 1" viewBox="0 0 512 512">
		<path d="M472.26,46.3V79.24c-16.99-11.81-27.67-11.45-43.37-.03V46.3C444.59,57.73,455.27,58.11,472.26,46.3Z" style="fill:#b0b5ca"/>
		<path d="M451.97,249.67V434.73a40,40,0,0,1-40,40H76.76a40,40,0,0,1-40-40V249.67c.03,0,.07,0,.1-1H451.87C451.9,249.67,451.94,249.67,451.97,249.67Z" style="fill:#d88c6b"/>
		<path d="M424.85,87.54v2.77l-6.25,7.62a27.978,27.978,0,0,0-6.34,17.74v93.27h-25.4V115.67a27.978,27.978,0,0,0-6.34-17.74l-6.25-7.62v-2.9h50.58Z" style="fill:#b0b5ca"/>
		<path d="M367.28,44.32V81.19c-6.3-2.36-28.34-2.17-34.2,0V44.32C338.94,46.49,360.98,46.68,367.28,44.32Z" style="fill:#b0b5ca"/>
		<path d="M290.66,89.81A49.217,49.217,0,0,0,258.5,46.2L258.51,90H225.67l-.01-43.855a48.914,48.914,0,0,0-23.38,73.481,76.051,76.051,0,0,1,13.71,43.217L216.03,209h52.24l-.04-46.03A73.507,73.507,0,0,1,281.74,120.3,48.374,48.374,0,0,0,290.66,89.81Z" style="fill:#b0b5ca"/>
		<path d="M163.98,182.04l2.74.02a5.561,5.561,0,0,1,5.53,5.56v21.32H123.44V187.38a5.563,5.563,0,0,1,5.6-5.56l2.67.02Z" style="fill:#5fa8ed"/>
		<path d="M163.98,158v24.04l-32.27-.2v-.06c-1.09-20.74-10.29-23.62-21.24-23.78Z" style="fill:#ccd3df"/>
		<polygon points="109.34 41.03 151.89 114.86 115.43 114.86 109.34 114.86 109.34 41.75 109.34 41.03" style="fill:#b0b5ca"/>
		<polygon points="109.34 41.75 109.34 114.86 96.75 114.86 66.8 114.86 109.34 41.03 109.34 41.75" style="fill:#ccd3df"/>
		<path d="M97,115H64.24A9.166,9.166,0,0,0,55,124.39v57.65l32-.2v-.06c1-20.74,10.385-23.62,21.335-23.78Z" style="fill:#b0b5ca"/>
		<path d="M54.7,182.04l32.28-.2,2.67-.02a5.561,5.561,0,0,1,5.59,5.56v21.56H46.43V187.62a5.567,5.567,0,0,1,5.53-5.56Z" style="fill:#5fa8ed"/>
		<path d="M382.46,310.99v93.03a15.345,15.345,0,1,1-30.69,0V310.99a15.345,15.345,0,0,1,30.69,0Z" style="fill:#a86a54"/>
		<path d="M300.63,310.99v93.03a15.345,15.345,0,1,1-30.69,0V310.99a15.345,15.345,0,0,1,30.69,0Z" style="fill:#a86a54"/>
		<path d="M218.79,310.99v93.03a15.34,15.34,0,1,1-30.68,0V310.99a15.34,15.34,0,0,1,30.68,0Z" style="fill:#a86a54"/>
		<path d="M136.96,310.99v93.03a15.345,15.345,0,1,1-30.69,0V310.99a15.345,15.345,0,0,1,30.69,0Z" style="fill:#a86a54"/>
		<path d="M250.6,150.28l.03,58.66h-16.6L234,150.28a8.3,8.3,0,1,1,16.6,0Z" style="fill:#ccd3df"/>
		<path d="M154.45,115H96.75a21.5,21.5,0,1,0,0,43H164V124.39A9.433,9.433,0,0,0,154.45,115Z" style="fill:#d4e1f4"/>
		<rect x="471" y="37" width="25" height="50" style="fill:#ccd3df"/>
		<rect x="309" y="37" width="25" height="51" style="fill:#ccd3df"/>
		<rect x="366" y="37" width="64" height="51" style="fill:#ccd3df"/>
		<path d="M67,434.73V249.67s-.17.33-.14-.67h-30c-.03,1,.14.67.14.67V434.73C37,456.82,54.67,475,76.76,475h30C84.67,475,67,456.82,67,434.73Z" style="fill:#a36d5a"/>
		<path d="M451.87,208H36.86a21,21,0,0,0-.1,42H451.97a21,21,0,0,0-.1-42Z" style="fill:#a86a54"/>
		<path d="M46,229.005a20.979,20.979,0,0,1,20.86-21h-30a21,21,0,0,0-.1,42h30A20.943,20.943,0,0,1,46,229.005Z" style="fill:#7c4e40"/>
		<path d="M62,402.006a6,6,0,0,1-6-6V294.25a6,6,0,0,1,12,0V396.006A6,6,0,0,1,62,402.006Z" style="fill:#f4f8fc"/>
		<path d="M62,281.566a6,6,0,0,1-6-6v-4.884a6,6,0,0,1,12,0v4.884A6,6,0,0,1,62,281.566Z" style="fill:#f4f8fc"/>
	</symbol>
</svg>

