<?xml version="1.0" encoding="utf-8"?>

<svg  xmlns="http://www.w3.org/2000/svg">

	<symbol id="secure" data-name="Layer 1" viewBox="0 0 512 512">
		<title>promotions</title>
		<path d="M450.75,11,485,62.41l-21.34,41.57a159.59,159.59,0,0,0-12.23,113.07h.01C495.28,452.16,256,501,256,501S2.06,458.06,60.56,217.05h.01A159.59,159.59,0,0,0,48.34,103.98L27,62.41,61.25,11a109.294,109.294,0,0,0,97.57,60.04C235.01,71.04,256,11,256,11s20.99,60.04,97.18,60.04A109.294,109.294,0,0,0,450.75,11Z" style="fill:#e04a5d"/>
		<path d="M351.16,236.53a3.163,3.163,0,0,1,1.75,5.39l-45.02,43.87a3.176,3.176,0,0,0-.91,2.79l10.57,62a3.154,3.154,0,0,1-4.58,3.33L257.4,324.6a3.152,3.152,0,0,0-2.94-.01l-55.62,29.23a3.155,3.155,0,0,1-4.57-3.34l10.67-61.98a3.2,3.2,0,0,0-.91-2.8l-44.94-43.94a3.153,3.153,0,0,1,1.75-5.38l62.17-9a3.14,3.14,0,0,0,2.37-1.72l27.85-56.38a3.153,3.153,0,0,1,5.66,0l27.75,56.43a3.152,3.152,0,0,0,2.37,1.73Z" style="fill:#fffd54"/>
		<path d="M100.56,217.05h.01A159.59,159.59,0,0,0,88.34,103.98L67,62.41,82.183,39.62A109.717,109.717,0,0,1,61.25,11L27,62.41l21.34,41.57A159.59,159.59,0,0,1,60.57,217.05h-.01C2.06,458.06,256,501,256,501s7.119-1.454,18.673-5.064C214.8,479.162,52.576,414.736,100.56,217.05Z" style="fill:#ff5a5a"/>
	</symbol>	
	
	
	<symbol id="pc" viewBox="0 0 512 512">
		<path d="M422.604,343.683l-6.734-7.393,1.636-1.49c15.307-13.95,32.949-24.581,52.438-31.597,9.604-3.458,16.057-12.639,16.057-22.846,0-8.311-3.979-15.699-10.918-20.273-6.938-4.572-15.296-5.318-22.935-2.043l-1.271,.545-3.941-9.189,1.271-.545c10.627-4.558,22.729-3.478,32.38,2.884,9.652,6.362,15.414,17.062,15.414,28.622,0,14.411-9.11,27.373-22.67,32.254-18.243,6.568-34.759,16.521-49.089,29.58l-1.637,1.491Z" style="fill:#ad2a34;"/>
		<path d="M312.47,226.47v22.48c0,40.59,16.57,79.43,45.88,107.52h53.53l.76-.79c4.16-4.35,8.03-8.92,11.6-13.69,18.54-24.77,28.98-54.82,29.67-86l.03-29.52h-141.47Z" style="fill:#de3c44;"/>
		<rect x="358.35" y="356.47" width="53.53" height="18.17" style="fill:#ad2a34;"/>
		<rect x="16" y="105.48" width="267.41" height="206.82" rx="16.53" ry="16.53" style="fill:#ccd3df;"/>
		<rect x="92.26" y="357.74" width="114.89" height="16.9" style="fill:#ccd3df;"/>
		<rect x="115.35" y="312.3" width="68.72" height="45.44" style="fill:#b0b5ca;"/>
		<circle cx="149.71" cy="290.48" r="7" style="fill:#6d7486;"/>
		<rect x="31.77" y="374.64" width="451.29" height="31.88" style="fill:#7cadc2;"/>
		<rect x="31.77" y="374.64" width="25" height="31.88" style="fill:#5d91a3;"/>
		<path d="M41,295.77V122.01c0-9.13,7.4-16.53,16.53-16.53h-25c-9.13,0-16.53,7.4-16.53,16.53v173.76c0,9.13,7.4,16.53,16.53,16.53h25c-9.13,0-16.53-7.4-16.53-16.53Z" style="fill:#9faec4;"/>
		<rect x="92.26" y="357.74" width="25" height="16.9" style="fill:#9faec4;"/>
		<rect x="40.56" y="128.81" width="218.29" height="139.62" style="fill:#4689d3;"/>
		<rect x="40.56" y="128.81" width="25" height="139.62" style="fill:#2f73af;"/>
		<path d="M337.47,248.95v-22.48h-25v22.48c0,40.59,16.57,79.43,45.88,107.52h25c-29.31-28.09-45.88-66.93-45.88-107.52Z" style="fill:#bc2a38;"/>
		<rect x="358.35" y="356.47" width="25" height="18.17" style="fill:#8e1b29;"/>
		<g>
			<path d="M63.248,168.718c-2.762,0-5-2.238-5-5v-14.779c0-2.762,2.238-5,5-5s5,2.238,5,5v14.779c0,2.762-2.238,5-5,5Z" style="fill:#f4f8fc;"/>
			<path d="M63.248,230.497c-2.762,0-5-2.238-5-5v-39.587c0-2.762,2.238-5,5-5s5,2.238,5,5v39.587c0,2.762-2.238,5-5,5Z" style="fill:#f4f8fc;"/>
			<path d="M379.948,184.354c-2.008,0-3.901-1.218-4.667-3.203-5.498-14.27-1.783-23.586,1.494-31.805,2.972-7.455,5.539-13.894,1.45-24.506-.992-2.577,.292-5.471,2.868-6.464,2.576-.991,5.47,.292,6.464,2.868,5.498,14.27,1.783,23.586-1.494,31.805-2.972,7.455-5.539,13.894-1.45,24.506,.992,2.577-.292,5.471-2.868,6.464-.591,.228-1.199,.335-1.797,.335Z" style="fill:#b0b5ca;"/>
			<path d="M349.333,204.106c-2.008,0-3.901-1.218-4.667-3.203-5.498-14.27-1.783-23.586,1.493-31.805,2.973-7.455,5.539-13.894,1.45-24.506-.992-2.577,.292-5.471,2.868-6.464,2.575-.991,5.471,.292,6.464,2.868,5.498,14.27,1.783,23.586-1.493,31.805-2.973,7.455-5.539,13.894-1.45,24.506,.992,2.577-.292,5.471-2.868,6.464-.591,.228-1.199,.335-1.797,.335Z" style="fill:#b0b5ca;"/>
			<path d="M410.564,204.106c-2.008,0-3.901-1.218-4.667-3.203-5.498-14.27-1.783-23.586,1.493-31.805,2.973-7.455,5.539-13.894,1.45-24.506-.992-2.577,.292-5.471,2.868-6.464,2.575-.991,5.471,.292,6.464,2.868,5.498,14.27,1.783,23.586-1.493,31.805-2.973,7.455-5.539,13.894-1.45,24.506,.992,2.577-.292,5.471-2.868,6.464-.591,.228-1.199,.335-1.797,.335Z" style="fill:#b0b5ca;"/>
		</g>
	</symbol>

	<symbol id="schedule" viewBox="0 0 64 64" data-name="Layer 1">
			<path d="M52,8h0a4,4,0,0,1,4,4V39.2L44.677,58H6a4,4,0,0,1-4-4V12A4,4,0,0,1,6,8Z" style="fill:#ccc"/>
			<path d="M26.682,55h19.8L56,39.2V12a4,4,0,0,0-4-4H6V34.318A20.682,20.682,0,0,0,26.682,55Z" style="fill:#e6e6e6"/>
			<path d="M52,8H6a4,4,0,0,0-4,4v8H56V12A4,4,0,0,0,52,8Z" style="fill:#e73844"/>
			<path d="M52,8H6V20H56V12A4,4,0,0,0,52,8Z" style="fill:#ff4d55"/>
			<rect x="26" y="26" width="6" height="6" style="fill:#fff"/>
			<rect x="36" y="26" width="6" height="6" style="fill:#fff"/>
			<rect x="46" y="26" width="6" height="6" style="fill:#fff"/>
			<rect x="26" y="36" width="6" height="6" style="fill:#fff"/>
			<rect x="36" y="36" width="6" height="6" style="fill:#fff"/>
			<polyline points="52 38 52 36 46 36 46 39.201" style="fill:#fff"/>
			<rect x="6" y="36" width="6" height="6" style="fill:#fff"/>
			<rect x="16" y="36" width="6" height="6" style="fill:#fff"/>
			<rect x="26" y="46" width="6" height="6" style="fill:#fff"/>
			<polyline points="40.415 46 36 46 36 52 40.413 52" style="fill:#fff"/>
			<rect x="6" y="46" width="6" height="6" style="fill:#fff"/>
			<rect x="16" y="46" width="6" height="6" style="fill:#fff"/>
			<rect x="7" y="4" width="4" height="10" rx="2" style="fill:#f9cb5d"/>
			<rect x="17" y="4" width="4" height="10" rx="2" style="fill:#f9cb5d"/>
			<rect x="27" y="4" width="4" height="10" rx="2" style="fill:#f9cb5d"/>
			<rect x="37" y="4" width="4" height="10" rx="2" style="fill:#f9cb5d"/>
			<rect x="47" y="4" width="4" height="10" rx="2" style="fill:#f9cb5d"/>
			<path d="M9,4v6a2,2,0,0,0,2,2V6A2,2,0,0,0,9,4Z" style="fill:#ffd98c"/>
			<path d="M19,4v6a2,2,0,0,0,2,2V6A2,2,0,0,0,19,4Z" style="fill:#ffd98c"/>
			<path d="M29,4v6a2,2,0,0,0,2,2V6A2,2,0,0,0,29,4Z" style="fill:#ffd98c"/>
			<path d="M39,4v6a2,2,0,0,0,2,2V6A2,2,0,0,0,39,4Z" style="fill:#ffd98c"/>
			<path d="M49,4v6a2,2,0,0,0,2,2V6A2,2,0,0,0,49,4Z" style="fill:#ffd98c"/>
			<circle cx="51" cy="49" r="11" style="fill:#8dbf00"/>
			<path d="M51,38a10.94,10.94,0,0,0-6.706,2.294A10.987,10.987,0,0,0,59.706,55.706,10.987,10.987,0,0,0,51,38Z" style="fill:#a8d600"/>
			<polygon points="43 50 46 47 49 50 56 43 59 46 49 56 43 50" style="fill:#fff"/>
	</symbol>	
	
	
	
	<symbol id="printer" data-name="Layer 1" viewBox ="0 0 512 512">
		<title>printer</title>
		<path d="M461.09,229.31A20,20,0,0,0,449.86,226H62.14A19.956,19.956,0,0,0,42,245.76V372.32A19.908,19.908,0,0,0,62.14,392H449.86A19.908,19.908,0,0,0,470,372.32V245.76A19.863,19.863,0,0,0,461.09,229.31Z" style="fill:#53c1d3"/>
		<path d="M373.54,53.52A20.742,20.742,0,0,0,352.85,35H159.15a20.742,20.742,0,0,0-20.69,18.52L128.77,144H383.23Z" style="fill:#f8d2c5"/>
		<path d="M419.93,253.02a10.655,10.655,0,1,1-10.65,10.65A10.654,10.654,0,0,1,419.93,253.02Z" style="fill:#9be147"/>
		<path d="M378.54,313H133.46a24.526,24.526,0,0,0-17.27,7.38A24.227,24.227,0,0,0,109,337.6,24.489,24.489,0,0,0,133.46,362H378.54a24.226,24.226,0,0,0,17.27-7.04A24.586,24.586,0,0,0,378.54,313Z" style="fill:#4f9bb2"/>
		<path d="M372.57,253.02a10.655,10.655,0,1,1-10.65,10.65A10.654,10.654,0,0,1,372.57,253.02Z" style="fill:#fb6771"/>
		<path d="M325.21,253.02a10.655,10.655,0,1,1-10.65,10.65A10.646,10.646,0,0,1,325.21,253.02Z" style="fill:#ffdb00"/>
		<path d="M393.93,464.72,362,336H149.98L118.07,464.8a9.816,9.816,0,0,0,9.7,12.2H384.23A9.88,9.88,0,0,0,393.93,464.72Z" style="fill:#e0eff9"/>
		<path d="M72,372.32V245.76A19.956,19.956,0,0,1,92.14,226h-30A19.956,19.956,0,0,0,42,245.76V372.32A19.908,19.908,0,0,0,62.14,392h30A19.908,19.908,0,0,1,72,372.32Z" style="fill:#36acb2"/>
		<path d="M189.15,35h-30a20.742,20.742,0,0,0-20.69,18.52L128.77,144h30l9.69-90.48A20.742,20.742,0,0,1,189.15,35Z" style="fill:#d8a9a0"/>
		<path d="M148.07,464.8,179.98,336h-30L118.07,464.8a9.816,9.816,0,0,0,9.7,12.2h30A9.816,9.816,0,0,1,148.07,464.8Z" style="fill:#bcd5e2"/>
		<path d="M256,60.619a6,6,0,0,0-6,6V144h12V66.619A6,6,0,0,0,256,60.619Z" style="fill:#c68d85"/>
		<path d="M221.151,60.622a6,6,0,0,0-6.178,5.815l-2.335,77.217,11.994.363L226.967,66.8A6,6,0,0,0,221.151,60.622Z" style="fill:#c68d85"/>
		<path d="M186.392,60.636a6,6,0,0,0-6.435,5.531l-5.838,77.217,11.965.9,5.839-77.217A6,6,0,0,0,186.392,60.636Z" style="fill:#c68d85"/>
		<path d="M290.849,60.622a6,6,0,0,0-5.816,6.178l2.335,77.217,11.994-.363-2.335-77.217A6,6,0,0,0,290.849,60.622Z" style="fill:#c68d85"/>
		<path d="M332.043,66.167a6,6,0,1,0-11.966.9l5.839,77.217,11.965-.9Z" style="fill:#c68d85"/>
		<path d="M212.3,264.292H103.242a6,6,0,0,1,0-12H212.3a6,6,0,1,1,0,12Z" style="fill:#fff"/>
		<path d="M85.532,264.292h-5.36a6,6,0,0,1,0-12h5.36a6,6,0,1,1,0,12Z" style="fill:#fff"/>
		<path d="M418.29,154.04A19.907,19.907,0,0,0,400.9,144H109.54A19.92,19.92,0,0,0,92.1,154.13L49.68,229.7l.24.41A19.721,19.721,0,0,1,62.14,226H449.86a19.8,19.8,0,0,1,11.16,3.35Z" style="fill:#7ce5e9"/>
		<path d="M139.54,144h-30A19.92,19.92,0,0,0,92.1,154.13L49.68,229.7l.24.41A19.721,19.721,0,0,1,62.14,226H81.757L122.1,154.13A19.92,19.92,0,0,1,139.54,144Z" style="fill:#6acece"/>
	</symbol>

	<symbol id="admin" data-name="Layer 1" viewBox="0 0 512 512">
		<path d="M472.26,46.3V79.24c-16.99-11.81-27.67-11.45-43.37-.03V46.3C444.59,57.73,455.27,58.11,472.26,46.3Z" style="fill:#b0b5ca"/>
		<path d="M451.97,249.67V434.73a40,40,0,0,1-40,40H76.76a40,40,0,0,1-40-40V249.67c.03,0,.07,0,.1-1H451.87C451.9,249.67,451.94,249.67,451.97,249.67Z" style="fill:#d88c6b"/>
		<path d="M424.85,87.54v2.77l-6.25,7.62a27.978,27.978,0,0,0-6.34,17.74v93.27h-25.4V115.67a27.978,27.978,0,0,0-6.34-17.74l-6.25-7.62v-2.9h50.58Z" style="fill:#b0b5ca"/>
		<path d="M367.28,44.32V81.19c-6.3-2.36-28.34-2.17-34.2,0V44.32C338.94,46.49,360.98,46.68,367.28,44.32Z" style="fill:#b0b5ca"/>
		<path d="M290.66,89.81A49.217,49.217,0,0,0,258.5,46.2L258.51,90H225.67l-.01-43.855a48.914,48.914,0,0,0-23.38,73.481,76.051,76.051,0,0,1,13.71,43.217L216.03,209h52.24l-.04-46.03A73.507,73.507,0,0,1,281.74,120.3,48.374,48.374,0,0,0,290.66,89.81Z" style="fill:#b0b5ca"/>
		<path d="M163.98,182.04l2.74.02a5.561,5.561,0,0,1,5.53,5.56v21.32H123.44V187.38a5.563,5.563,0,0,1,5.6-5.56l2.67.02Z" style="fill:#5fa8ed"/>
		<path d="M163.98,158v24.04l-32.27-.2v-.06c-1.09-20.74-10.29-23.62-21.24-23.78Z" style="fill:#ccd3df"/>
		<polygon points="109.34 41.03 151.89 114.86 115.43 114.86 109.34 114.86 109.34 41.75 109.34 41.03" style="fill:#b0b5ca"/>
		<polygon points="109.34 41.75 109.34 114.86 96.75 114.86 66.8 114.86 109.34 41.03 109.34 41.75" style="fill:#ccd3df"/>
		<path d="M97,115H64.24A9.166,9.166,0,0,0,55,124.39v57.65l32-.2v-.06c1-20.74,10.385-23.62,21.335-23.78Z" style="fill:#b0b5ca"/>
		<path d="M54.7,182.04l32.28-.2,2.67-.02a5.561,5.561,0,0,1,5.59,5.56v21.56H46.43V187.62a5.567,5.567,0,0,1,5.53-5.56Z" style="fill:#5fa8ed"/>
		<path d="M382.46,310.99v93.03a15.345,15.345,0,1,1-30.69,0V310.99a15.345,15.345,0,0,1,30.69,0Z" style="fill:#a86a54"/>
		<path d="M300.63,310.99v93.03a15.345,15.345,0,1,1-30.69,0V310.99a15.345,15.345,0,0,1,30.69,0Z" style="fill:#a86a54"/>
		<path d="M218.79,310.99v93.03a15.34,15.34,0,1,1-30.68,0V310.99a15.34,15.34,0,0,1,30.68,0Z" style="fill:#a86a54"/>
		<path d="M136.96,310.99v93.03a15.345,15.345,0,1,1-30.69,0V310.99a15.345,15.345,0,0,1,30.69,0Z" style="fill:#a86a54"/>
		<path d="M250.6,150.28l.03,58.66h-16.6L234,150.28a8.3,8.3,0,1,1,16.6,0Z" style="fill:#ccd3df"/>
		<path d="M154.45,115H96.75a21.5,21.5,0,1,0,0,43H164V124.39A9.433,9.433,0,0,0,154.45,115Z" style="fill:#d4e1f4"/>
		<rect x="471" y="37" width="25" height="50" style="fill:#ccd3df"/>
		<rect x="309" y="37" width="25" height="51" style="fill:#ccd3df"/>
		<rect x="366" y="37" width="64" height="51" style="fill:#ccd3df"/>
		<path d="M67,434.73V249.67s-.17.33-.14-.67h-30c-.03,1,.14.67.14.67V434.73C37,456.82,54.67,475,76.76,475h30C84.67,475,67,456.82,67,434.73Z" style="fill:#a36d5a"/>
		<path d="M451.87,208H36.86a21,21,0,0,0-.1,42H451.97a21,21,0,0,0-.1-42Z" style="fill:#a86a54"/>
		<path d="M46,229.005a20.979,20.979,0,0,1,20.86-21h-30a21,21,0,0,0-.1,42h30A20.943,20.943,0,0,1,46,229.005Z" style="fill:#7c4e40"/>
		<path d="M62,402.006a6,6,0,0,1-6-6V294.25a6,6,0,0,1,12,0V396.006A6,6,0,0,1,62,402.006Z" style="fill:#f4f8fc"/>
		<path d="M62,281.566a6,6,0,0,1-6-6v-4.884a6,6,0,0,1,12,0v4.884A6,6,0,0,1,62,281.566Z" style="fill:#f4f8fc"/>
	</symbol>
</svg>

