<svg xmlns="http://www.w3.org/2000/svg" >
	<symbol id="printer" data-name="Layer 1" viewBox ="0 0 512 512">
		<title>printer</title>
		<path d="M461.09,229.31A20,20,0,0,0,449.86,226H62.14A19.956,19.956,0,0,0,42,245.76V372.32A19.908,19.908,0,0,0,62.14,392H449.86A19.908,19.908,0,0,0,470,372.32V245.76A19.863,19.863,0,0,0,461.09,229.31Z" style="fill:#53c1d3"/>
		<path d="M373.54,53.52A20.742,20.742,0,0,0,352.85,35H159.15a20.742,20.742,0,0,0-20.69,18.52L128.77,144H383.23Z" style="fill:#f8d2c5"/>
		<path d="M419.93,253.02a10.655,10.655,0,1,1-10.65,10.65A10.654,10.654,0,0,1,419.93,253.02Z" style="fill:#9be147"/>
		<path d="M378.54,313H133.46a24.526,24.526,0,0,0-17.27,7.38A24.227,24.227,0,0,0,109,337.6,24.489,24.489,0,0,0,133.46,362H378.54a24.226,24.226,0,0,0,17.27-7.04A24.586,24.586,0,0,0,378.54,313Z" style="fill:#4f9bb2"/>
		<path d="M372.57,253.02a10.655,10.655,0,1,1-10.65,10.65A10.654,10.654,0,0,1,372.57,253.02Z" style="fill:#fb6771"/>
		<path d="M325.21,253.02a10.655,10.655,0,1,1-10.65,10.65A10.646,10.646,0,0,1,325.21,253.02Z" style="fill:#ffdb00"/>
		<path d="M393.93,464.72,362,336H149.98L118.07,464.8a9.816,9.816,0,0,0,9.7,12.2H384.23A9.88,9.88,0,0,0,393.93,464.72Z" style="fill:#e0eff9"/>
		<path d="M72,372.32V245.76A19.956,19.956,0,0,1,92.14,226h-30A19.956,19.956,0,0,0,42,245.76V372.32A19.908,19.908,0,0,0,62.14,392h30A19.908,19.908,0,0,1,72,372.32Z" style="fill:#36acb2"/>
		<path d="M189.15,35h-30a20.742,20.742,0,0,0-20.69,18.52L128.77,144h30l9.69-90.48A20.742,20.742,0,0,1,189.15,35Z" style="fill:#d8a9a0"/>
		<path d="M148.07,464.8,179.98,336h-30L118.07,464.8a9.816,9.816,0,0,0,9.7,12.2h30A9.816,9.816,0,0,1,148.07,464.8Z" style="fill:#bcd5e2"/>
		<path d="M256,60.619a6,6,0,0,0-6,6V144h12V66.619A6,6,0,0,0,256,60.619Z" style="fill:#c68d85"/>
		<path d="M221.151,60.622a6,6,0,0,0-6.178,5.815l-2.335,77.217,11.994.363L226.967,66.8A6,6,0,0,0,221.151,60.622Z" style="fill:#c68d85"/>
		<path d="M186.392,60.636a6,6,0,0,0-6.435,5.531l-5.838,77.217,11.965.9,5.839-77.217A6,6,0,0,0,186.392,60.636Z" style="fill:#c68d85"/>
		<path d="M290.849,60.622a6,6,0,0,0-5.816,6.178l2.335,77.217,11.994-.363-2.335-77.217A6,6,0,0,0,290.849,60.622Z" style="fill:#c68d85"/>
		<path d="M332.043,66.167a6,6,0,1,0-11.966.9l5.839,77.217,11.965-.9Z" style="fill:#c68d85"/>
		<path d="M212.3,264.292H103.242a6,6,0,0,1,0-12H212.3a6,6,0,1,1,0,12Z" style="fill:#fff"/>
		<path d="M85.532,264.292h-5.36a6,6,0,0,1,0-12h5.36a6,6,0,1,1,0,12Z" style="fill:#fff"/>
		<path d="M418.29,154.04A19.907,19.907,0,0,0,400.9,144H109.54A19.92,19.92,0,0,0,92.1,154.13L49.68,229.7l.24.41A19.721,19.721,0,0,1,62.14,226H449.86a19.8,19.8,0,0,1,11.16,3.35Z" style="fill:#7ce5e9"/>
		<path d="M139.54,144h-30A19.92,19.92,0,0,0,92.1,154.13L49.68,229.7l.24.41A19.721,19.721,0,0,1,62.14,226H81.757L122.1,154.13A19.92,19.92,0,0,1,139.54,144Z" style="fill:#6acece"/>
	</symbol>

	<symbol id="admin" data-name="Layer 1" viewBox="0 0 512 512">
		<path d="M472.26,46.3V79.24c-16.99-11.81-27.67-11.45-43.37-.03V46.3C444.59,57.73,455.27,58.11,472.26,46.3Z" style="fill:#b0b5ca"/>
		<path d="M451.97,249.67V434.73a40,40,0,0,1-40,40H76.76a40,40,0,0,1-40-40V249.67c.03,0,.07,0,.1-1H451.87C451.9,249.67,451.94,249.67,451.97,249.67Z" style="fill:#d88c6b"/>
		<path d="M424.85,87.54v2.77l-6.25,7.62a27.978,27.978,0,0,0-6.34,17.74v93.27h-25.4V115.67a27.978,27.978,0,0,0-6.34-17.74l-6.25-7.62v-2.9h50.58Z" style="fill:#b0b5ca"/>
		<path d="M367.28,44.32V81.19c-6.3-2.36-28.34-2.17-34.2,0V44.32C338.94,46.49,360.98,46.68,367.28,44.32Z" style="fill:#b0b5ca"/>
		<path d="M290.66,89.81A49.217,49.217,0,0,0,258.5,46.2L258.51,90H225.67l-.01-43.855a48.914,48.914,0,0,0-23.38,73.481,76.051,76.051,0,0,1,13.71,43.217L216.03,209h52.24l-.04-46.03A73.507,73.507,0,0,1,281.74,120.3,48.374,48.374,0,0,0,290.66,89.81Z" style="fill:#b0b5ca"/>
		<path d="M163.98,182.04l2.74.02a5.561,5.561,0,0,1,5.53,5.56v21.32H123.44V187.38a5.563,5.563,0,0,1,5.6-5.56l2.67.02Z" style="fill:#5fa8ed"/>
		<path d="M163.98,158v24.04l-32.27-.2v-.06c-1.09-20.74-10.29-23.62-21.24-23.78Z" style="fill:#ccd3df"/>
		<polygon points="109.34 41.03 151.89 114.86 115.43 114.86 109.34 114.86 109.34 41.75 109.34 41.03" style="fill:#b0b5ca"/>
		<polygon points="109.34 41.75 109.34 114.86 96.75 114.86 66.8 114.86 109.34 41.03 109.34 41.75" style="fill:#ccd3df"/>
		<path d="M97,115H64.24A9.166,9.166,0,0,0,55,124.39v57.65l32-.2v-.06c1-20.74,10.385-23.62,21.335-23.78Z" style="fill:#b0b5ca"/>
		<path d="M54.7,182.04l32.28-.2,2.67-.02a5.561,5.561,0,0,1,5.59,5.56v21.56H46.43V187.62a5.567,5.567,0,0,1,5.53-5.56Z" style="fill:#5fa8ed"/>
		<path d="M382.46,310.99v93.03a15.345,15.345,0,1,1-30.69,0V310.99a15.345,15.345,0,0,1,30.69,0Z" style="fill:#a86a54"/>
		<path d="M300.63,310.99v93.03a15.345,15.345,0,1,1-30.69,0V310.99a15.345,15.345,0,0,1,30.69,0Z" style="fill:#a86a54"/>
		<path d="M218.79,310.99v93.03a15.34,15.34,0,1,1-30.68,0V310.99a15.34,15.34,0,0,1,30.68,0Z" style="fill:#a86a54"/>
		<path d="M136.96,310.99v93.03a15.345,15.345,0,1,1-30.69,0V310.99a15.345,15.345,0,0,1,30.69,0Z" style="fill:#a86a54"/>
		<path d="M250.6,150.28l.03,58.66h-16.6L234,150.28a8.3,8.3,0,1,1,16.6,0Z" style="fill:#ccd3df"/>
		<path d="M154.45,115H96.75a21.5,21.5,0,1,0,0,43H164V124.39A9.433,9.433,0,0,0,154.45,115Z" style="fill:#d4e1f4"/>
		<rect x="471" y="37" width="25" height="50" style="fill:#ccd3df"/>
		<rect x="309" y="37" width="25" height="51" style="fill:#ccd3df"/>
		<rect x="366" y="37" width="64" height="51" style="fill:#ccd3df"/>
		<path d="M67,434.73V249.67s-.17.33-.14-.67h-30c-.03,1,.14.67.14.67V434.73C37,456.82,54.67,475,76.76,475h30C84.67,475,67,456.82,67,434.73Z" style="fill:#a36d5a"/>
		<path d="M451.87,208H36.86a21,21,0,0,0-.1,42H451.97a21,21,0,0,0-.1-42Z" style="fill:#a86a54"/>
		<path d="M46,229.005a20.979,20.979,0,0,1,20.86-21h-30a21,21,0,0,0-.1,42h30A20.943,20.943,0,0,1,46,229.005Z" style="fill:#7c4e40"/>
		<path d="M62,402.006a6,6,0,0,1-6-6V294.25a6,6,0,0,1,12,0V396.006A6,6,0,0,1,62,402.006Z" style="fill:#f4f8fc"/>
		<path d="M62,281.566a6,6,0,0,1-6-6v-4.884a6,6,0,0,1,12,0v4.884A6,6,0,0,1,62,281.566Z" style="fill:#f4f8fc"/>
	</symbol>
</svg>
